<svg xmlns="http://www.w3.org/2000/svg" viewBox="0 0 280.12 315.9"><defs><style>.a{fill:#f7bcae;}.b{fill:#fff;}.c{fill:none;stroke:#3d4752;stroke-miterlimit:10;stroke-width:0.9px;}.d{fill:#3d4752;}.e{fill:#abddf3;}.f{fill:#d6d6d6;}</style></defs><title>relational-model</title><rect class="a" x="18.67" y="0.45" width="86.98" height="18"/><rect class="a" x="105.66" y="0.45" width="87.03" height="18"/><rect class="a" x="192.69" y="0.45" width="86.98" height="18"/><rect class="b" x="18.67" y="18.45" width="86.98" height="18"/><rect class="b" x="105.66" y="18.45" width="87.03" height="18"/><rect class="b" x="192.69" y="18.45" width="86.98" height="18"/><rect class="b" x="18.67" y="36.45" width="86.98" height="18"/><rect class="b" x="105.66" y="36.45" width="87.03" height="18"/><rect class="b" x="192.69" y="36.45" width="86.98" height="18"/><rect class="b" x="18.67" y="54.45" width="86.98" height="18"/><rect class="b" x="105.66" y="54.45" width="87.03" height="18"/><rect class="b" x="192.69" y="54.45" width="86.98" height="18"/><rect class="c" x="18.67" y="0.45" width="261" height="72"/><rect class="c" x="18.67" y="0.45" width="86.98" height="18"/><rect class="c" x="105.66" y="0.45" width="87.03" height="18"/><rect class="c" x="192.69" y="0.45" width="86.98" height="18"/><rect class="c" x="18.67" y="18.45" width="86.98" height="18"/><rect class="c" x="105.66" y="18.45" width="87.03" height="18"/><rect class="c" x="192.69" y="18.45" width="86.98" height="18"/><rect class="c" x="18.67" y="36.45" width="86.98" height="18"/><rect class="c" x="105.66" y="36.45" width="87.03" height="18"/><rect class="c" x="192.69" y="36.45" width="86.98" height="18"/><rect class="c" x="18.67" y="54.45" width="86.98" height="18"/><rect class="c" x="105.66" y="54.45" width="87.03" height="18"/><rect class="c" x="192.69" y="54.45" width="86.98" height="18"/><path class="d" d="M158.4,115.48c0-1.57,1.73-2.1,3.21-1.62a2.41,2.41,0,0,1,.89.53l-0.88.93a1.55,1.55,0,0,0-1-.49c-0.64-.07-1.13.66-0.56,1,0.94,0.53,2.42.53,2.42,2s-0.91,1.91-2.2,1.91a3,3,0,0,1-2.15-.83L159,118a2,2,0,0,0,1.24.61c0.72,0.07,1.1-.79.49-1.11-0.94-.49-2.35-0.52-2.35-2" transform="translate(-116.55 -107.55)"/><path class="d" d="M164.83,119.66a1.26,1.26,0,0,1-1.43-1.43v-1.7h-0.65v-1h0.64v-1.06h1.3v1.06h0.95v1h-0.95v1.54c0,0.38.11,0.57,0.5,0.57a1.11,1.11,0,0,0,.39-0.06l0,1a2.69,2.69,0,0,1-.77.12" transform="translate(-116.55 -107.55)"/><path class="d" d="M168.16,118.58a0.77,0.77,0,0,0,.71-0.87v-2.18h1.33v4h-1.28a3.15,3.15,0,0,0,0-.56,1.33,1.33,0,0,1-1.22.67,1.42,1.42,0,0,1-1.47-1.65v-2.49h1.34v2.19c0,0.48.12,0.85,0.6,0.86" transform="translate(-116.55 -107.55)"/><path class="d" d="M173.27,118.58a1,1,0,0,0,0-2.07,1,1,0,0,0,0,2.07m-0.33-3.16a1.67,1.67,0,0,1,1.25.54v-2.52h1.33v6.12h-1.22a2.8,2.8,0,0,0,0-.53,1.54,1.54,0,0,1-1.32.64A2.14,2.14,0,0,1,172.94,115.42Z" transform="translate(-116.55 -107.55)"/><path class="d" d="M178.54,115.4c1.43,0,2.09,1,2,2.51h-2.92a0.91,0.91,0,0,0,1,.76,1,1,0,0,0,.89-0.42l0.92,0.58a2.09,2.09,0,0,1-1.83.86,2.15,2.15,0,1,1,0-4.29m0.8,1.68a0.84,0.84,0,0,0-1.43-.54,0.77,0.77,0,0,0-.28.54h1.71Z" transform="translate(-116.55 -107.55)"/><path class="d" d="M183.91,115.42a1.42,1.42,0,0,1,1.47,1.65v2.49H184v-2.2c0-.47-0.12-0.85-0.6-0.85a0.73,0.73,0,0,0-.71.87v2.19H181.4v-4h1.29a3.15,3.15,0,0,0,0,.56,1.34,1.34,0,0,1,1.21-.67" transform="translate(-116.55 -107.55)"/><path class="d" d="M188,119.66a1.26,1.26,0,0,1-1.43-1.43v-1.7h-0.65v-1h0.64v-1.06h1.3v1.06h0.95v1h-0.95v1.54c0,0.38.11,0.57,0.5,0.57a1.11,1.11,0,0,0,.39-0.06l0,1a2.69,2.69,0,0,1-.77.12" transform="translate(-116.55 -107.55)"/><polyline class="d" points="74.93 12.02 74.93 9.15 74.93 6.28 76.32 6.28 76.32 9.15 76.32 12.02 74.93 12.02"/><path class="d" d="M195.41,118.37c1.5,0.09,2.56-.27,2.56-1.68s-1.07-1.77-2.56-1.67v3.35m0.72-4.54c2,0,3.28.85,3.28,2.85s-1.32,2.88-3.22,2.88h-2.14v-5.73h2.07Z" transform="translate(-116.55 -107.55)"/><polyline class="d" points="130.75 7.46 130.75 8.05 130.75 8.64 132.97 8.64 132.97 9.22 132.97 9.79 130.75 9.79 130.75 10.9 130.75 12.02 129.38 12.02 129.38 9.15 129.38 6.28 133.16 6.28 133.16 6.87 133.16 7.46 130.75 7.46"/><path class="d" d="M250.54,119.57v-4h1.33v4h-1.33m0.66-6.05a0.7,0.7,0,0,1,.76.73,0.71,0.71,0,0,1-.76.73,0.73,0.73,0,0,1-.76-0.73A0.71,0.71,0,0,1,251.2,113.51Z" transform="translate(-116.55 -107.55)"/><path class="d" d="M254.22,116.11a1.21,1.21,0,0,1,1.38-.66l-0.06,1.17a0.94,0.94,0,0,0-1.29.87v2.07h-1.33v-4h1.28a3.44,3.44,0,0,0,0,.58" transform="translate(-116.55 -107.55)"/><path class="d" d="M255.93,116.75c0-1.59,2.44-1.65,3.3-.79l-0.73.75a1.27,1.27,0,0,0-.84-0.36c-0.23,0-.53.08-0.5,0.32,0.06,0.43.78,0.34,1.19,0.54a1.19,1.19,0,0,1,.83,1.09c0,1.7-2.63,1.65-3.48.75l0.75-.79a1.39,1.39,0,0,0,1,.45c0.22,0,.51-0.1.48-0.35-0.06-.46-0.79-0.39-1.22-0.59a1.11,1.11,0,0,1-.75-1" transform="translate(-116.55 -107.55)"/><path class="d" d="M261.53,119.66a1.26,1.26,0,0,1-1.43-1.43v-1.7h-0.65v-1h0.64v-1.06h1.3v1.06h0.95v1h-0.95v1.54c0,0.38.11,0.57,0.5,0.57a1.12,1.12,0,0,0,.39-0.06l0,1a2.69,2.69,0,0,1-.77.12" transform="translate(-116.55 -107.55)"/><path class="d" d="M267.49,115.42a1.42,1.42,0,0,1,1.47,1.65v2.49h-1.34v-2.2c0-.47-0.12-0.85-0.6-0.85a0.73,0.73,0,0,0-.71.87v2.19H265v-4h1.29a3.15,3.15,0,0,0,0,.56,1.34,1.34,0,0,1,1.21-.67" transform="translate(-116.55 -107.55)"/><path class="d" d="M271.58,116.39a1.54,1.54,0,0,0-1,.41l-0.67-.72a2.59,2.59,0,0,1,1.8-.68c1.38,0,1.85.76,1.85,2.13v2h-1.21v-0.43h0a1.49,1.49,0,0,1-2.61-.74c0-1.21,1.34-1.33,2.59-1.36a0.62,0.62,0,0,0-.73-0.65m-0.06,2.38a0.79,0.79,0,0,0,.83-1c-0.62,0-1.41,0-1.41.55A0.47,0.47,0,0,0,271.52,118.77Z" transform="translate(-116.55 -107.55)"/><path class="d" d="M279.57,115.42a1.43,1.43,0,0,1,1.47,1.65v2.49h-1.33v-2.2c0-.47-0.11-0.85-0.58-0.85a0.73,0.73,0,0,0-.67.87v2.18h-1.33v-2.3a0.61,0.61,0,0,0-.58-0.75,0.75,0.75,0,0,0-.66.87v2.19h-1.34v-4h1.29a3.15,3.15,0,0,0,0,.56,1.31,1.31,0,0,1,1.21-.67,1.25,1.25,0,0,1,1.21.69,1.42,1.42,0,0,1,1.29-.69" transform="translate(-116.55 -107.55)"/><path class="d" d="M284,115.4c1.43,0,2.09,1,2,2.51h-2.92a0.91,0.91,0,0,0,1,.76,1,1,0,0,0,.89-0.42l0.92,0.58a2.09,2.09,0,0,1-1.83.86,2.15,2.15,0,1,1,0-4.29m0.8,1.68a0.84,0.84,0,0,0-1.43-.54,0.77,0.77,0,0,0-.28.54h1.71Z" transform="translate(-116.55 -107.55)"/><polyline class="d" points="217.09 12.02 217.09 9.15 217.09 6.28 218.48 6.28 218.48 8.54 218.48 10.81 220.7 10.81 220.7 11.41 220.7 12.02 217.09 12.02"/><path class="d" d="M339.44,116.39a1.54,1.54,0,0,0-1,.41l-0.67-.72a2.59,2.59,0,0,1,1.8-.68c1.38,0,1.85.76,1.85,2.13v2h-1.21v-0.43h0a1.49,1.49,0,0,1-2.61-.74c0-1.21,1.34-1.33,2.59-1.36a0.62,0.62,0,0,0-.73-0.65m-0.06,2.38a0.79,0.79,0,0,0,.83-1c-0.62,0-1.41,0-1.41.55A0.47,0.47,0,0,0,339.37,118.77Z" transform="translate(-116.55 -107.55)"/><path class="d" d="M342.21,116.75c0-1.59,2.44-1.65,3.3-.79l-0.73.75a1.27,1.27,0,0,0-.84-0.36c-0.23,0-.53.08-0.5,0.32,0.06,0.43.78,0.34,1.19,0.54a1.19,1.19,0,0,1,.83,1.09c0,1.7-2.63,1.65-3.48.75l0.75-.79a1.39,1.39,0,0,0,1,.45c0.22,0,.51-0.1.48-0.35-0.06-.46-0.79-0.39-1.22-0.59a1.11,1.11,0,0,1-.75-1" transform="translate(-116.55 -107.55)"/><path class="d" d="M347.81,119.66a1.26,1.26,0,0,1-1.43-1.43v-1.7h-0.65v-1h0.64v-1.06h1.3v1.06h0.95v1h-0.95v1.54c0,0.38.11,0.57,0.5,0.57a1.12,1.12,0,0,0,.39-0.06l0,1a2.69,2.69,0,0,1-.77.12" transform="translate(-116.55 -107.55)"/><path class="d" d="M353.76,115.42a1.42,1.42,0,0,1,1.47,1.65v2.49H353.9v-2.2c0-.47-0.12-0.85-0.6-0.85a0.73,0.73,0,0,0-.71.87v2.19h-1.34v-4h1.29a3.15,3.15,0,0,0,0,.56,1.34,1.34,0,0,1,1.21-.67" transform="translate(-116.55 -107.55)"/><path class="d" d="M357.85,116.39a1.54,1.54,0,0,0-1,.41l-0.67-.72a2.59,2.59,0,0,1,1.8-.68c1.38,0,1.85.76,1.85,2.13v2h-1.21v-0.43h0a1.49,1.49,0,0,1-2.61-.74c0-1.21,1.34-1.33,2.59-1.36a0.62,0.62,0,0,0-.73-0.65m-0.06,2.38a0.79,0.79,0,0,0,.83-1c-0.62,0-1.41,0-1.41.55A0.47,0.47,0,0,0,357.79,118.77Z" transform="translate(-116.55 -107.55)"/><path class="d" d="M365.84,115.42a1.43,1.43,0,0,1,1.47,1.65v2.49H366v-2.2c0-.47-0.11-0.85-0.58-0.85a0.73,0.73,0,0,0-.67.87v2.18H363.4v-2.3a0.61,0.61,0,0,0-.58-0.75,0.75,0.75,0,0,0-.66.87v2.19h-1.34v-4h1.29a3.15,3.15,0,0,0,0,.56,1.31,1.31,0,0,1,1.21-.67,1.25,1.25,0,0,1,1.21.69,1.42,1.42,0,0,1,1.29-.69" transform="translate(-116.55 -107.55)"/><path class="d" d="M370.28,115.4c1.43,0,2.09,1,2,2.51h-2.92a0.91,0.91,0,0,0,1,.76,1,1,0,0,0,.89-0.42l0.92,0.58a2.09,2.09,0,0,1-1.83.86,2.15,2.15,0,1,1,0-4.29m0.8,1.68a0.84,0.84,0,0,0-1.43-.54,0.77,0.77,0,0,0-.28.54h1.71Z" transform="translate(-116.55 -107.55)"/><path class="d" d="M160.33,134.56a2.89,2.89,0,0,0-1.27.32l0.08-3h3.09v0.7h-2.37l0,1.51c1.4-.36,2.69.3,2.66,1.7a2,2,0,0,1-3.83.83l0.71-.28a1.18,1.18,0,0,0,1.12.77,1.13,1.13,0,0,0,1.2-1.23,1.19,1.19,0,0,0-1.34-1.26" transform="translate(-116.55 -107.55)"/><path class="d" d="M165.47,131.68a1.63,1.63,0,0,1,1.74,2.14,2.64,2.64,0,0,1-.85,1.22l-1.86,1.81h2.81v0.7h-3.74v-0.75l2.28-2.27a1.75,1.75,0,0,0,.63-1.22,0.94,0.94,0,0,0-1-1,1.08,1.08,0,0,0-1.08,1l-0.77-.13a1.76,1.76,0,0,1,1.85-1.52" transform="translate(-116.55 -107.55)"/><polyline class="d" points="53.59 28.36 51.71 28.36 51.71 28.04 51.71 27.71 53.59 27.71 53.59 28.04 53.59 28.36"/><polyline class="d" points="58.12 24.99 55.82 30.02 54.92 30.02 57.31 24.98 54.46 24.98 54.46 24.63 54.46 24.28 58.12 24.28 58.12 24.64 58.12 24.99"/><path class="d" d="M178.21,135.6c0-1,0-2,0-2.88l-1.81,2.88h1.83m0.76,0h0.83v0.67H179v1.29h-0.76v-1.29h-2.64v-0.71l2.44-3.73h1v3.77Z" transform="translate(-116.55 -107.55)"/><path class="d" d="M183.55,136c0-.87-0.77-1.09-1.68-1.06v-0.65c0.85,0,1.53-.15,1.53-1a0.92,0.92,0,0,0-1-.95,1,1,0,0,0-1,.7l-0.71-.25a1.81,1.81,0,0,1,1.75-1.11,1.53,1.53,0,0,1,1.77,1.56,1.34,1.34,0,0,1-1,1.32,1.36,1.36,0,0,1,1.17,1.4,1.7,1.7,0,0,1-1.92,1.75,1.89,1.89,0,0,1-2-1.26l0.73-.24a1.21,1.21,0,0,0,1.21.84,1,1,0,0,0,1.15-1.09" transform="translate(-116.55 -107.55)"/><path class="d" d="M187.37,134.77a1.11,1.11,0,0,0,1.2-1.21,1.19,1.19,0,1,0-2.38,0,1.1,1.1,0,0,0,1.18,1.2m0-3.09a1.8,1.8,0,0,1,2,1.89,2.8,2.8,0,0,1-.55,1.63l-1.5,2.37h-0.93c0.5-.78,1.05-1.56,1.53-2.32a1.56,1.56,0,0,1-.72.15,1.67,1.67,0,0,1-1.79-1.8A1.8,1.8,0,0,1,187.38,131.68Z" transform="translate(-116.55 -107.55)"/><path class="d" d="M192.19,134.62a1.11,1.11,0,0,0-1.2,1.21,1.19,1.19,0,1,0,2.37,0,1.09,1.09,0,0,0-1.17-1.2m0,3.09a1.8,1.8,0,0,1-2-1.89,2.73,2.73,0,0,1,.56-1.63l1.5-2.37h0.93l-1.54,2.31v0a1.45,1.45,0,0,1,.71-0.15,1.7,1.7,0,0,1,1.79,1.8A1.8,1.8,0,0,1,192.18,137.71Z" transform="translate(-116.55 -107.55)"/><path class="d" d="M196.66,134.56a2.89,2.89,0,0,0-1.27.32l0.08-3h3.09v0.7H196.2l0,1.51c1.4-.36,2.69.3,2.66,1.7a2,2,0,0,1-3.83.83l0.71-.28a1.18,1.18,0,0,0,1.12.77,1.13,1.13,0,0,0,1.2-1.23,1.19,1.19,0,0,0-1.34-1.26" transform="translate(-116.55 -107.55)"/><path class="d" d="M255.21,137a1.78,1.78,0,0,0,1.54-.76l0.64,0.44a2.57,2.57,0,0,1-2.19,1,2.87,2.87,0,0,1-2.79-1.8,3.44,3.44,0,0,1,0-2.45,3,3,0,0,1,3.42-1.73,2.23,2.23,0,0,1,1.47.83l-0.63.49a1.73,1.73,0,0,0-1.43-.67,2.1,2.1,0,0,0-2.18,2.3,2.06,2.06,0,0,0,2.15,2.31" transform="translate(-116.55 -107.55)"/><path class="d" d="M260,134.27a1.12,1.12,0,0,0-1,1.26v2h-0.76v-6.12h0.76c0,0.95,0,1.94,0,2.87a1.35,1.35,0,0,1,1.21-.69,1.37,1.37,0,0,1,1.43,1.56v2.38h-0.76v-2.12c0-.67-0.19-1.17-0.87-1.17" transform="translate(-116.55 -107.55)"/><path class="d" d="M264.18,137.06a1.09,1.09,0,0,0,1.11-1.33c-0.83,0-1.9,0-1.9.73a0.65,0.65,0,0,0,.79.6m-1.56-.58c0-1.24,1.4-1.26,2.67-1.3a0.83,0.83,0,0,0-.95-0.95,1.6,1.6,0,0,0-1.09.45l-0.4-.49a2.26,2.26,0,0,1,1.57-.58,1.42,1.42,0,0,1,1.6,1.51,23.92,23.92,0,0,0,.06,2.44h-0.69a2.56,2.56,0,0,1-.06-0.55h0a1.47,1.47,0,0,1-1.29.65A1.19,1.19,0,0,1,262.61,136.48Z" transform="translate(-116.55 -107.55)"/><path class="d" d="M267.29,137.57c0-1.28,0-2.61,0-3.84H268c0,0.16,0,.48,0,0.65h0a1.3,1.3,0,0,1,1.47-.72l0,0.7a1.1,1.1,0,0,0-1.43,1.19v2h-0.76" transform="translate(-116.55 -107.55)"/><polyline class="d" points="154.45 30.02 153.69 30.02 153.69 26.95 153.69 23.89 154.45 23.89 154.45 26.95 154.45 30.02"/><path class="d" d="M274.06,133.62c1.3,0,1.9.87,1.84,2.25h-3A1.2,1.2,0,0,0,274.1,137a1.28,1.28,0,0,0,1.12-.58l0.53,0.43a1.92,1.92,0,0,1-1.65.79,2,2,0,0,1,0-4m1.08,1.68a1.07,1.07,0,0,0-1.54-1,1.12,1.12,0,0,0-.75,1h2.28Z" transform="translate(-116.55 -107.55)"/><path class="d" d="M276.83,135.25c-0.5-1.26.95-2,2.14-1.47a1.3,1.3,0,0,1,.6.47l-0.53.45a1,1,0,0,0-.89-0.48,0.58,0.58,0,0,0-.71.5c0,0.59.92,0.51,1.39,0.73a1.08,1.08,0,0,1,.78,1c0.06,1.56-2.45,1.51-3.08.55l0.54-.46a1.24,1.24,0,0,0,1,.53,0.62,0.62,0,0,0,.76-0.56c0-.73-1.27-0.51-1.76-0.95a0.84,0.84,0,0,1-.26-0.3" transform="translate(-116.55 -107.55)"/><path class="d" d="M345.15,133.43c0-1-1.15-.92-2.19-0.92v1.85c1,0,2.19.09,2.19-.94m0.81,0c0,1.51-1.39,1.69-3,1.62v2.52h-0.8v-5.73h1.75C345.1,131.85,346,132.24,346,133.43Z" transform="translate(-116.55 -107.55)"/><path class="d" d="M348.14,133.62c1.3,0,1.9.87,1.84,2.25h-3a1.2,1.2,0,0,0,1.25,1.17,1.28,1.28,0,0,0,1.12-.58l0.53,0.43a1.92,1.92,0,0,1-1.65.79,2,2,0,0,1,0-4m1.08,1.68a1.07,1.07,0,0,0-1.54-1,1.12,1.12,0,0,0-.75,1h2.28Z" transform="translate(-116.55 -107.55)"/><path class="d" d="M352.27,137.63a1,1,0,0,1-1.12-1.2v-2.08h-0.74v-0.62h0.74v-1.1h0.75v1.1h1v0.62h-1v2c0,0.44.13,0.64,0.54,0.65a1.09,1.09,0,0,0,.45-0.1l0,0.62a1.94,1.94,0,0,1-.65.11" transform="translate(-116.55 -107.55)"/><path class="d" d="M355.45,133.62c1.3,0,1.9.87,1.84,2.25h-3a1.2,1.2,0,0,0,1.25,1.17,1.28,1.28,0,0,0,1.12-.58l0.53,0.43a1.92,1.92,0,0,1-1.65.79,2,2,0,0,1,0-4m1.08,1.68a1.07,1.07,0,0,0-1.54-1,1.12,1.12,0,0,0-.75,1h2.28Z" transform="translate(-116.55 -107.55)"/><path class="d" d="M358.36,137.57c0-1.28,0-2.61,0-3.84H359c0,0.16,0,.48,0,0.65h0a1.3,1.3,0,0,1,1.47-.72l0,0.7a1.1,1.1,0,0,0-1.43,1.19v2h-0.76" transform="translate(-116.55 -107.55)"/><path class="d" d="M361.15,135.25c-0.5-1.26.95-2,2.14-1.47a1.3,1.3,0,0,1,.6.47l-0.53.45a1,1,0,0,0-.89-0.48,0.58,0.58,0,0,0-.71.5c0,0.59.92,0.51,1.39,0.73a1.08,1.08,0,0,1,.78,1c0.06,1.56-2.45,1.51-3.08.55l0.54-.46a1.24,1.24,0,0,0,1,.53,0.62,0.62,0,0,0,.76-0.56c0-.73-1.27-0.51-1.76-0.95a0.84,0.84,0,0,1-.26-0.3" transform="translate(-116.55 -107.55)"/><path class="d" d="M161.16,153.6c0-1,0-2,0-2.88l-1.81,2.88h1.83m0.76,0h0.83v0.67h-0.83v1.29h-0.76v-1.29h-2.64v-0.71l2.44-3.73h1v3.77Z" transform="translate(-116.55 -107.55)"/><path class="d" d="M165.5,152.88a1.09,1.09,0,1,0,1.12,1.09,1,1,0,0,0-1.12-1.09m0-2.54a0.94,0.94,0,1,0,0,1.87A0.94,0.94,0,1,0,165.5,150.33Zm1.72,0.9a1.36,1.36,0,0,1-.88,1.31,1.43,1.43,0,0,1,1.09,1.46,1.94,1.94,0,0,1-3.85,0,1.44,1.44,0,0,1,1.09-1.46h0a1.29,1.29,0,0,1-.88-1.28A1.73,1.73,0,0,1,167.22,151.23Z" transform="translate(-116.55 -107.55)"/><polyline class="d" points="53.59 46.36 51.71 46.36 51.71 46.04 51.71 45.72 53.59 45.72 53.59 46.04 53.59 46.36"/><path class="d" d="M172.89,149.68a1.63,1.63,0,0,1,1.74,2.14,2.64,2.64,0,0,1-.85,1.22l-1.86,1.81h2.81v0.7H171v-0.75l2.28-2.27a1.75,1.75,0,0,0,.63-1.22,0.94,0.94,0,0,0-1-1,1.08,1.08,0,0,0-1.08,1l-0.77-.13a1.76,1.76,0,0,1,1.85-1.52" transform="translate(-116.55 -107.55)"/><path class="d" d="M178.3,150.58a0.85,0.85,0,0,0-1.15,0c-0.68.71-.72,2.57-0.36,3.66a1,1,0,0,0,.94.81c1.22,0,1.21-1.83,1.1-3.13a2.3,2.3,0,0,0-.53-1.34m-2.41,3.3c-0.32-1.88,0-4.2,1.85-4.2,1.53,0,2,1.43,2,3a3.17,3.17,0,0,1-1.08,2.78,1.79,1.79,0,0,1-1.76,0A2.3,2.3,0,0,1,175.88,153.88Z" transform="translate(-116.55 -107.55)"/><path class="d" d="M182.55,152.77a1.11,1.11,0,0,0,1.2-1.21,1.19,1.19,0,1,0-2.38,0,1.1,1.1,0,0,0,1.18,1.2m0-3.09a1.8,1.8,0,0,1,2,1.89,2.8,2.8,0,0,1-.55,1.63l-1.5,2.37h-0.93c0.5-.78,1.05-1.56,1.53-2.32a1.56,1.56,0,0,1-.72.15,1.67,1.67,0,0,1-1.79-1.8A1.8,1.8,0,0,1,182.56,149.68Z" transform="translate(-116.55 -107.55)"/><path class="d" d="M187.37,152.62a1.11,1.11,0,0,0-1.2,1.21,1.19,1.19,0,1,0,2.37,0,1.09,1.09,0,0,0-1.17-1.2m0,3.09a1.8,1.8,0,0,1-2-1.89,2.73,2.73,0,0,1,.56-1.63l1.5-2.37h0.93l-1.54,2.31v0a1.45,1.45,0,0,1,.71-0.15,1.7,1.7,0,0,1,1.79,1.8A1.8,1.8,0,0,1,187.36,155.71Z" transform="translate(-116.55 -107.55)"/><path class="d" d="M192.19,152.88a1.09,1.09,0,1,0,1.12,1.09,1,1,0,0,0-1.12-1.09m0-2.54a0.94,0.94,0,1,0,0,1.87A0.94,0.94,0,1,0,192.19,150.33Zm1.72,0.9a1.36,1.36,0,0,1-.88,1.31,1.43,1.43,0,0,1,1.09,1.46,1.94,1.94,0,0,1-3.85,0,1.44,1.44,0,0,1,1.09-1.46h0a1.29,1.29,0,0,1-.88-1.28A1.73,1.73,0,0,1,193.9,151.23Z" transform="translate(-116.55 -107.55)"/><path class="d" d="M197,152.77a1.11,1.11,0,0,0,1.2-1.21,1.19,1.19,0,1,0-2.38,0,1.1,1.1,0,0,0,1.18,1.2m0-3.09a1.8,1.8,0,0,1,2,1.89,2.8,2.8,0,0,1-.55,1.63l-1.5,2.37H196c0.5-.78,1.05-1.56,1.53-2.32a1.56,1.56,0,0,1-.72.15,1.67,1.67,0,0,1-1.79-1.8A1.8,1.8,0,0,1,197,149.68Z" transform="translate(-116.55 -107.55)"/><path class="d" d="M251.81,153.45H254l-1.07-2.69m-1.94,4.8h-0.89l2.49-5.73h0.73l2.46,5.73h-0.91l-0.58-1.41h-2.72Z" transform="translate(-116.55 -107.55)"/><path class="d" d="M256.44,155.57c0-1.28,0-2.61,0-3.84h0.72c0,0.16,0,.45,0,0.63h0a1.34,1.34,0,0,1,1.25-.74,1.36,1.36,0,0,1,1.43,1.56v2.38H259.1v-2.13c0-.68-0.19-1.17-0.87-1.17a1.11,1.11,0,0,0-1,1.26v2h-0.76" transform="translate(-116.55 -107.55)"/><path class="d" d="M262.37,155.63a1,1,0,0,1-1.12-1.2v-2.08h-0.74v-0.62h0.74v-1.1H262v1.1h1v0.62h-1v2c0,0.44.13,0.64,0.54,0.65a1.09,1.09,0,0,0,.45-0.1l0,0.62a1.94,1.94,0,0,1-.65.11" transform="translate(-116.55 -107.55)"/><path class="d" d="M265.63,152.27a1.12,1.12,0,0,0-1,1.26v2h-0.76v-6.12h0.76c0,0.95,0,1.94,0,2.87a1.35,1.35,0,0,1,1.21-.69,1.37,1.37,0,0,1,1.43,1.56v2.38H266.5v-2.12c0-.67-0.19-1.17-0.87-1.17" transform="translate(-116.55 -107.55)"/><path class="d" d="M270.36,155a1.39,1.39,0,1,0-1.28-1.39,1.24,1.24,0,0,0,1.28,1.39m0-3.41a2,2,0,1,1-2.07,2A1.9,1.9,0,0,1,270.36,151.62Z" transform="translate(-116.55 -107.55)"/><path class="d" d="M273.49,155.57c0-1.28,0-2.61,0-3.84h0.72c0,0.16,0,.45,0,0.63h0a1.34,1.34,0,0,1,1.25-.74,1.36,1.36,0,0,1,1.43,1.56v2.38h-0.76v-2.13c0-.68-0.19-1.17-0.87-1.17a1.11,1.11,0,0,0-1,1.26v2h-0.76" transform="translate(-116.55 -107.55)"/><path class="d" d="M278.47,151.73c0.41,1,.78,2,1.21,3l1.06-3h0.81l-1.86,4.75a1.4,1.4,0,0,1-1.83,1l0.07-.67a0.79,0.79,0,0,0,.83-0.1,4.73,4.73,0,0,0,.51-1.12l-1.64-3.84h0.85" transform="translate(-116.55 -107.55)"/><path class="d" d="M337.24,151.32c0-1.43,1.6-1.93,2.91-1.46a1.65,1.65,0,0,1,.7.48l-0.57.55a1.38,1.38,0,0,0-1.12-.53,1,1,0,0,0-1,1.32c0.45,0.66,1.61.61,2.21,1.12a1.44,1.44,0,0,1,.55,1.17c0,1.54-1.67,2.07-3,1.53a2,2,0,0,1-.83-0.62l0.62-.53a1.6,1.6,0,0,0,1.28.67,1,1,0,0,0,1-1.42c-0.4-.71-1.68-0.61-2.27-1.17a1.44,1.44,0,0,1-.47-1.12" transform="translate(-116.55 -107.55)"/><path class="d" d="M343.81,155a1.39,1.39,0,1,0-1.28-1.39,1.24,1.24,0,0,0,1.28,1.39m0-3.41a2,2,0,1,1-2.07,2A1.9,1.9,0,0,1,343.81,151.62Z" transform="translate(-116.55 -107.55)"/><path class="d" d="M346.94,155.57c0-1.28,0-2.61,0-3.84h0.72c0,0.16,0,.45,0,0.63h0a1.34,1.34,0,0,1,1.25-.74,1.36,1.36,0,0,1,1.43,1.56v2.38h-0.76v-2.13c0-.68-0.19-1.17-0.87-1.17a1.11,1.11,0,0,0-1,1.26v2h-0.76" transform="translate(-116.55 -107.55)"/><path class="d" d="M353.46,152.25a1.39,1.39,0,0,0,0,2.78,1.39,1.39,0,0,0,0-2.78m-0.14-.63a1.7,1.7,0,0,1,1.39.68v-2.86h0.76v6.12h-0.74a3.73,3.73,0,0,0,0-.61,1.6,1.6,0,0,1-1.39.71,1.84,1.84,0,0,1-1.94-2A1.86,1.86,0,0,1,353.32,151.62Z" transform="translate(-116.55 -107.55)"/><path class="d" d="M356.8,155.57c0-1.28,0-2.61,0-3.84h0.72c0,0.16,0,.48,0,0.65h0a1.3,1.3,0,0,1,1.47-.72l0,0.7a1.1,1.1,0,0,0-1.43,1.19v2H356.8" transform="translate(-116.55 -107.55)"/><path class="d" d="M363.12,151.73c0,1.28,0,2.61,0,3.84h-0.72c0-.16,0-0.49,0-0.63a1.41,1.41,0,0,1-1.26.74,1.36,1.36,0,0,1-1.43-1.56v-2.38h0.76v2.12c0,0.68.19,1.18,0.87,1.18a1.11,1.11,0,0,0,1-1.26v-2h0.76" transform="translate(-116.55 -107.55)"/><path class="d" d="M366.45,155a1.39,1.39,0,0,0,0-2.78,1.39,1.39,0,0,0,0,2.78m0.13,0.64a1.59,1.59,0,0,1-1.35-.68h0v2.52h-0.76v-5.78h0.75v0.6h0a1.54,1.54,0,0,1,1.39-.7A2,2,0,0,1,366.58,155.67Z" transform="translate(-116.55 -107.55)"/><polyline class="d" points="44.78 66.02 44 66.02 44 63.63 44 61.24 42.91 62.14 42.45 61.6 44.08 60.28 44.78 60.28 44.78 63.15 44.78 66.02"/><path class="d" d="M166,171.6c0-1,0-2,0-2.88l-1.81,2.88H166m0.76,0h0.83v0.67h-0.83v1.29H166v-1.29h-2.64v-0.71l2.44-3.73h1v3.77Z" transform="translate(-116.55 -107.55)"/><polyline class="d" points="53.59 64.36 51.71 64.36 51.71 64.04 51.71 63.72 53.59 63.72 53.59 64.04 53.59 64.36"/><path class="d" d="M172.89,167.68a1.63,1.63,0,0,1,1.74,2.14,2.64,2.64,0,0,1-.85,1.22l-1.86,1.81h2.81v0.7H171v-0.75l2.28-2.27a1.75,1.75,0,0,0,.63-1.22,0.94,0.94,0,0,0-1-1,1.08,1.08,0,0,0-1.08,1l-0.77-.13a1.76,1.76,0,0,1,1.85-1.52" transform="translate(-116.55 -107.55)"/><path class="d" d="M178.3,168.58a0.85,0.85,0,0,0-1.15,0c-0.68.71-.72,2.57-0.36,3.66a1,1,0,0,0,.94.81c1.22,0,1.21-1.83,1.1-3.13a2.3,2.3,0,0,0-.53-1.34m-2.41,3.3c-0.32-1.88,0-4.2,1.85-4.2,1.53,0,2,1.43,2,3a3.17,3.17,0,0,1-1.08,2.78,1.79,1.79,0,0,1-1.76,0A2.3,2.3,0,0,1,175.88,171.88Z" transform="translate(-116.55 -107.55)"/><path class="d" d="M183,171.6c0-1,0-2,0-2.88l-1.81,2.88H183m0.76,0h0.83v0.67h-0.83v1.29H183v-1.29h-2.64v-0.71l2.44-3.73h1v3.77Z" transform="translate(-116.55 -107.55)"/><path class="d" d="M187.37,170.77a1.11,1.11,0,0,0,1.2-1.21,1.19,1.19,0,1,0-2.38,0,1.1,1.1,0,0,0,1.18,1.2m0-3.09a1.8,1.8,0,0,1,2,1.89,2.8,2.8,0,0,1-.55,1.63l-1.5,2.37h-0.93c0.5-.78,1.05-1.56,1.53-2.32a1.56,1.56,0,0,1-.72.15,1.67,1.67,0,0,1-1.79-1.8A1.8,1.8,0,0,1,187.38,167.68Z" transform="translate(-116.55 -107.55)"/><path class="d" d="M192.19,170.62a1.11,1.11,0,0,0-1.2,1.21,1.19,1.19,0,1,0,2.37,0,1.09,1.09,0,0,0-1.17-1.2m0,3.09a1.8,1.8,0,0,1-2-1.89,2.73,2.73,0,0,1,.56-1.63l1.5-2.37h0.93l-1.54,2.31v0a1.45,1.45,0,0,1,.71-0.15,1.7,1.7,0,0,1,1.79,1.8A1.8,1.8,0,0,1,192.18,173.71Z" transform="translate(-116.55 -107.55)"/><path class="d" d="M197,170.88a1.09,1.09,0,1,0,1.12,1.09,1,1,0,0,0-1.12-1.09m0-2.54a0.94,0.94,0,1,0,0,1.87A0.94,0.94,0,1,0,197,168.33Zm1.72,0.9a1.36,1.36,0,0,1-.88,1.31,1.43,1.43,0,0,1,1.09,1.46,1.94,1.94,0,0,1-3.85,0,1.44,1.44,0,0,1,1.09-1.46h0a1.29,1.29,0,0,1-.88-1.28A1.73,1.73,0,0,1,198.72,169.23Z" transform="translate(-116.55 -107.55)"/><path class="d" d="M253.74,169.42c0-1-1.21-.91-2.27-0.91v1.83c1.06,0,2.27.11,2.27-.92m0.81,0a1.53,1.53,0,0,1-1.39,1.51l1.6,2.63h-1L252.33,171h-0.86v2.55h-0.8v-5.73C252.49,167.82,254.55,167.58,254.55,169.42Z" transform="translate(-116.55 -107.55)"/><path class="d" d="M257.24,169.62c1.3,0,1.9.87,1.84,2.25h-3a1.2,1.2,0,0,0,1.25,1.17,1.28,1.28,0,0,0,1.12-.58l0.53,0.43a1.92,1.92,0,0,1-1.65.79,2,2,0,0,1,0-4m1.08,1.68a1.07,1.07,0,0,0-1.54-1,1.12,1.12,0,0,0-.75,1h2.28Z" transform="translate(-116.55 -107.55)"/><path class="d" d="M262.17,173a1.39,1.39,0,0,0,0-2.78,1.39,1.39,0,0,0,0,2.78m0.13,0.64a1.62,1.62,0,0,1-1.39-.71h0v0.61h-0.74v-6.12h0.76v2.86h0a1.6,1.6,0,0,1,1.37-.68A2,2,0,0,1,262.3,173.67Z" transform="translate(-116.55 -107.55)"/><path class="d" d="M267,169.62c1.3,0,1.9.87,1.84,2.25h-3a1.2,1.2,0,0,0,1.25,1.17,1.28,1.28,0,0,0,1.12-.58l0.53,0.43a1.92,1.92,0,0,1-1.65.79,2,2,0,0,1,0-4m1.08,1.68a1.07,1.07,0,0,0-1.54-1,1.12,1.12,0,0,0-.75,1h2.28Z" transform="translate(-116.55 -107.55)"/><path class="d" d="M269.69,171.65a1.88,1.88,0,0,1,2-2,1.82,1.82,0,0,1,1.44.63l-0.55.45a1.05,1.05,0,0,0-.88-0.44,1.39,1.39,0,0,0,0,2.77,1.1,1.1,0,0,0,.92-0.42l0.51,0.46a1.77,1.77,0,0,1-1.43.6,1.9,1.9,0,0,1-2.07-2" transform="translate(-116.55 -107.55)"/><path class="d" d="M273.69,171.65a1.88,1.88,0,0,1,2-2,1.82,1.82,0,0,1,1.44.63l-0.55.45a1.05,1.05,0,0,0-.88-0.44,1.39,1.39,0,0,0,0,2.77,1.1,1.1,0,0,0,.92-0.42l0.51,0.46a1.77,1.77,0,0,1-1.43.6,1.9,1.9,0,0,1-2.07-2" transform="translate(-116.55 -107.55)"/><path class="d" d="M279.22,173.06a1.09,1.09,0,0,0,1.11-1.33c-0.83,0-1.9,0-1.9.73a0.65,0.65,0,0,0,.79.6m-1.56-.58c0-1.24,1.4-1.26,2.67-1.3a0.83,0.83,0,0,0-.95-0.95,1.6,1.6,0,0,0-1.09.45l-0.4-.49a2.26,2.26,0,0,1,1.57-.58,1.42,1.42,0,0,1,1.6,1.51,23.92,23.92,0,0,0,.06,2.44h-0.69a2.56,2.56,0,0,1-.06-0.55h0a1.47,1.47,0,0,1-1.29.65A1.19,1.19,0,0,1,277.66,172.48Z" transform="translate(-116.55 -107.55)"/><path class="d" d="M343.17,169.43c0-1-1.15-.92-2.19-0.92v1.85c1,0,2.19.09,2.19-.94m0.81,0c0,1.51-1.39,1.69-3,1.62v2.52h-0.8v-5.73h1.75C343.12,167.85,344,168.24,344,169.43Z" transform="translate(-116.55 -107.55)"/><path class="d" d="M346.77,170.27a1.12,1.12,0,0,0-1,1.26v2H345v-6.12h0.76c0,0.95,0,1.94,0,2.87a1.35,1.35,0,0,1,1.21-.69,1.37,1.37,0,0,1,1.43,1.56v2.38h-0.76v-2.12c0-.67-0.19-1.17-0.87-1.17" transform="translate(-116.55 -107.55)"/><path class="d" d="M350.07,167.85a0.5,0.5,0,0,1,.51.49,0.51,0.51,0,1,1-.51-0.49m0.38,5.72h-0.76v-3.84h0.76v3.84Z" transform="translate(-116.55 -107.55)"/><polyline class="d" points="236.01 66.02 235.25 66.02 235.25 62.95 235.25 59.89 236.01 59.89 236.01 62.95 236.01 66.02"/><polyline class="d" points="238.12 66.02 237.36 66.02 237.36 62.95 237.36 59.89 238.12 59.89 238.12 62.95 238.12 66.02"/><path class="d" d="M356.38,167.85a0.5,0.5,0,0,1,.51.49,0.51,0.51,0,1,1-.51-0.49m0.38,5.72H356v-3.84h0.76v3.84Z" transform="translate(-116.55 -107.55)"/><path class="d" d="M360.1,173a1.39,1.39,0,0,0,0-2.78,1.39,1.39,0,0,0,0,2.78m0.13,0.64a1.59,1.59,0,0,1-1.35-.68h0v2.52h-0.76v-5.78h0.75v0.6h0a1.54,1.54,0,0,1,1.39-.7A2,2,0,0,1,360.23,173.67Z" transform="translate(-116.55 -107.55)"/><path class="d" d="M363.09,171.25c-0.5-1.26.95-2,2.14-1.47a1.3,1.3,0,0,1,.6.47l-0.53.45a1,1,0,0,0-.89-0.48,0.58,0.58,0,0,0-.71.5c0,0.59.92,0.51,1.39,0.73a1.08,1.08,0,0,1,.78,1c0.06,1.56-2.45,1.51-3.08.55l0.54-.46a1.24,1.24,0,0,0,1,.53,0.62,0.62,0,0,0,.76-0.56c0-.73-1.27-0.51-1.76-0.95a0.84,0.84,0,0,1-.26-0.3" transform="translate(-116.55 -107.55)"/><rect class="e" x="36.67" y="108.45" width="121.5" height="18"/><rect class="e" x="158.17" y="108.45" width="121.5" height="18"/><rect class="b" x="36.67" y="126.45" width="121.5" height="18"/><rect class="b" x="158.17" y="126.45" width="121.5" height="18"/><rect class="b" x="36.67" y="144.45" width="121.5" height="18"/><rect class="b" x="158.17" y="144.45" width="121.5" height="18"/><rect class="b" x="36.67" y="162.45" width="121.5" height="18"/><rect class="b" x="158.17" y="162.45" width="121.5" height="18"/><rect class="c" x="36.67" y="108.45" width="243" height="72"/><rect class="c" x="36.67" y="108.45" width="121.5" height="18"/><rect class="c" x="158.17" y="108.45" width="121.5" height="18"/><rect class="c" x="36.67" y="126.45" width="121.5" height="18"/><rect class="c" x="158.17" y="126.45" width="121.5" height="18"/><rect class="c" x="36.67" y="144.45" width="121.5" height="18"/><rect class="c" x="158.17" y="144.45" width="121.5" height="18"/><rect class="c" x="36.67" y="162.45" width="121.5" height="18"/><rect class="c" x="158.17" y="162.45" width="121.5" height="18"/><path class="d" d="M194.8,224.3c0.77,0,1.57,0,1.58-.7s-0.83-.66-1.58-0.66v1.35m0.72-2.47c1.3,0,2.24.45,2.24,1.77,0,1.56-1.32,1.88-3,1.81v2.16h-1.39v-5.73h2.11Z" transform="translate(-116.55 -107.55)"/><path class="d" d="M199.48,224.11a1.21,1.21,0,0,1,1.38-.66l-0.06,1.17a0.94,0.94,0,0,0-1.29.87v2.07h-1.33v-4h1.28a3.44,3.44,0,0,0,0,.58" transform="translate(-116.55 -107.55)"/><path class="d" d="M203.28,226.58a1,1,0,0,0,0-2.07,0.92,0.92,0,0,0-.95,1,0.93,0.93,0,0,0,1,1m0-3.18a2.15,2.15,0,1,1-2.24,2.13A2,2,0,0,1,203.27,223.4Z" transform="translate(-116.55 -107.55)"/><polyline class="d" points="92.31 120.02 90.87 120.02 89.28 115.98 90.75 115.98 91.6 118.6 91.62 118.6 92.47 115.98 93.89 115.98"/><path class="d" d="M211,227.57v-4h1.33v4H211m0.66-6.05a0.7,0.7,0,0,1,.76.73,0.71,0.71,0,0,1-.76.73,0.73,0.73,0,0,1-.76-0.73A0.71,0.71,0,0,1,211.63,221.51Z" transform="translate(-116.55 -107.55)"/><path class="d" d="M215.38,226.58a1,1,0,0,0,0-2.07,1,1,0,0,0,0,2.07m-0.33-3.16a1.67,1.67,0,0,1,1.25.54v-2.52h1.33v6.12H216.4a2.8,2.8,0,0,0,0-.53,1.54,1.54,0,0,1-1.32.64A2.14,2.14,0,0,1,215.05,223.42Z" transform="translate(-116.55 -107.55)"/><path class="d" d="M220.66,223.4c1.43,0,2.09,1,2,2.51h-2.92a0.91,0.91,0,0,0,1,.76,1,1,0,0,0,.89-0.42l0.92,0.58a2.09,2.09,0,0,1-1.83.86,2.15,2.15,0,1,1,0-4.29m0.8,1.68a0.84,0.84,0,0,0-1.43-.54,0.77,0.77,0,0,0-.28.54h1.71Z" transform="translate(-116.55 -107.55)"/><path class="d" d="M224.8,224.11a1.21,1.21,0,0,1,1.38-.66l-0.06,1.17a0.94,0.94,0,0,0-1.29.87v2.07h-1.33v-4h1.28a3.44,3.44,0,0,0,0,.58" transform="translate(-116.55 -107.55)"/><polyline class="d" points="110.24 120.02 110.24 117.15 110.24 114.28 111.63 114.28 111.63 117.15 111.63 120.02 110.24 120.02"/><path class="d" d="M230.72,226.37c1.5,0.09,2.56-.27,2.56-1.68s-1.07-1.77-2.56-1.67v3.35m0.72-4.54c2,0,3.28.85,3.28,2.85s-1.32,2.88-3.22,2.88h-2.14v-5.73h2.07Z" transform="translate(-116.55 -107.55)"/><path class="d" d="M308.79,224.3c0.77,0,1.57,0,1.58-.7s-0.83-.66-1.58-0.66v1.35m0.72-2.47c1.3,0,2.24.45,2.24,1.77,0,1.56-1.32,1.88-3,1.81v2.16H307.4v-5.73h2.11Z" transform="translate(-116.55 -107.55)"/><path class="d" d="M313.46,224.11a1.21,1.21,0,0,1,1.38-.66l-0.06,1.17a0.94,0.94,0,0,0-1.29.87v2.07h-1.33v-4h1.28a3.43,3.43,0,0,0,0,.58" transform="translate(-116.55 -107.55)"/><path class="d" d="M317.27,226.58a1,1,0,0,0,0-2.07,0.92,0.92,0,0,0-.95,1,0.93,0.93,0,0,0,1,1m0-3.18a2.15,2.15,0,1,1-2.24,2.13A2,2,0,0,1,317.26,223.4Z" transform="translate(-116.55 -107.55)"/><polyline class="d" points="206.29 120.02 204.86 120.02 203.27 115.98 204.74 115.98 205.59 118.6 205.61 118.6 206.46 115.98 207.88 115.98"/><path class="d" d="M325,227.57v-4h1.33v4H325m0.66-6.05a0.7,0.7,0,0,1,.76.73,0.71,0.71,0,0,1-.76.73,0.73,0.73,0,0,1-.76-0.73A0.71,0.71,0,0,1,325.62,221.51Z" transform="translate(-116.55 -107.55)"/><path class="d" d="M329.37,226.58a1,1,0,0,0,0-2.07,1,1,0,0,0,0,2.07M329,223.42a1.67,1.67,0,0,1,1.25.54v-2.52h1.33v6.12h-1.22a2.79,2.79,0,0,0,0-.53,1.54,1.54,0,0,1-1.32.64A2.14,2.14,0,0,1,329,223.42Z" transform="translate(-116.55 -107.55)"/><path class="d" d="M334.64,223.4c1.43,0,2.09,1,2,2.51h-2.92a0.91,0.91,0,0,0,1,.76,1,1,0,0,0,.89-0.42l0.92,0.58a2.09,2.09,0,0,1-1.83.86,2.15,2.15,0,1,1,0-4.29m0.8,1.68a0.84,0.84,0,0,0-1.43-.54,0.77,0.77,0,0,0-.28.54h1.71Z" transform="translate(-116.55 -107.55)"/><path class="d" d="M338.79,224.11a1.21,1.21,0,0,1,1.38-.66l-0.06,1.17a0.94,0.94,0,0,0-1.29.87v2.07h-1.33v-4h1.28a3.43,3.43,0,0,0,0,.58" transform="translate(-116.55 -107.55)"/><path class="d" d="M345.25,223.42a1.42,1.42,0,0,1,1.47,1.65v2.49h-1.34v-2.2c0-.47-0.12-0.85-0.6-0.85a0.73,0.73,0,0,0-.71.87v2.19h-1.34v-4H344a3.15,3.15,0,0,0,0,.56,1.34,1.34,0,0,1,1.21-.67" transform="translate(-116.55 -107.55)"/><path class="d" d="M349.34,224.39a1.54,1.54,0,0,0-1,.41l-0.67-.72a2.59,2.59,0,0,1,1.8-.68c1.38,0,1.85.76,1.85,2.13v2h-1.21v-0.43h0a1.49,1.49,0,0,1-2.61-.74c0-1.21,1.34-1.33,2.59-1.36a0.62,0.62,0,0,0-.73-0.65m-0.06,2.38a0.79,0.79,0,0,0,.83-1c-0.62,0-1.41,0-1.41.55A0.47,0.47,0,0,0,349.28,226.77Z" transform="translate(-116.55 -107.55)"/><path class="d" d="M357.33,223.42a1.43,1.43,0,0,1,1.47,1.65v2.49h-1.33v-2.2c0-.47-0.11-0.85-0.58-0.85a0.73,0.73,0,0,0-.67.87v2.18h-1.33v-2.3a0.61,0.61,0,0,0-.58-0.75,0.75,0.75,0,0,0-.66.87v2.19h-1.34v-4h1.29a3.15,3.15,0,0,0,0,.56,1.31,1.31,0,0,1,1.21-.67,1.25,1.25,0,0,1,1.21.69,1.42,1.42,0,0,1,1.29-.69" transform="translate(-116.55 -107.55)"/><path class="d" d="M361.78,223.4c1.43,0,2.09,1,2,2.51h-2.92a0.91,0.91,0,0,0,1,.76,1,1,0,0,0,.89-0.42l0.92,0.58a2.09,2.09,0,0,1-1.83.86,2.15,2.15,0,1,1,0-4.29m0.8,1.68a0.84,0.84,0,0,0-1.43-.54,0.77,0.77,0,0,0-.28.54h1.71Z" transform="translate(-116.55 -107.55)"/><polyline class="d" points="84.7 138.01 83.91 138.01 83.91 135.63 83.91 133.24 82.83 134.14 82.37 133.6 84 132.28 84.7 132.28 84.7 135.15 84.7 138.01"/><path class="d" d="M205.06,242.56a2.89,2.89,0,0,0-1.27.32l0.08-3H207v0.7H204.6l0,1.51c1.4-.36,2.69.3,2.66,1.7a2,2,0,0,1-3.83.83l0.71-.28a1.18,1.18,0,0,0,1.12.77,1.13,1.13,0,0,0,1.2-1.23,1.19,1.19,0,0,0-1.34-1.26" transform="translate(-116.55 -107.55)"/><path class="d" d="M210.23,242.62a1.11,1.11,0,0,0-1.2,1.21,1.19,1.19,0,1,0,2.37,0,1.09,1.09,0,0,0-1.17-1.2m0,3.09a1.8,1.8,0,0,1-2-1.89,2.73,2.73,0,0,1,.56-1.63l1.5-2.37h0.93l-1.54,2.31v0a1.45,1.45,0,0,1,.71-0.15,1.7,1.7,0,0,1,1.79,1.8A1.8,1.8,0,0,1,210.22,245.71Z" transform="translate(-116.55 -107.55)"/><polyline class="d" points="98.32 136.36 96.44 136.36 96.44 136.04 96.44 135.72 98.32 135.72 98.32 136.04 98.32 136.36"/><path class="d" d="M217.64,242.77a1.11,1.11,0,0,0,1.2-1.21,1.19,1.19,0,1,0-2.38,0,1.1,1.1,0,0,0,1.18,1.2m0-3.09a1.8,1.8,0,0,1,2,1.89,2.8,2.8,0,0,1-.55,1.63l-1.5,2.37h-0.93c0.5-.78,1.05-1.56,1.53-2.32a1.56,1.56,0,0,1-.72.15,1.67,1.67,0,0,1-1.79-1.8A1.8,1.8,0,0,1,217.65,239.68Z" transform="translate(-116.55 -107.55)"/><path class="d" d="M222.46,242.88a1.09,1.09,0,1,0,1.12,1.09,1,1,0,0,0-1.12-1.09m0-2.54a0.94,0.94,0,1,0,0,1.87A0.94,0.94,0,1,0,222.46,240.33Zm1.72,0.9a1.36,1.36,0,0,1-.88,1.31,1.43,1.43,0,0,1,1.09,1.46,1.94,1.94,0,0,1-3.85,0,1.44,1.44,0,0,1,1.09-1.46h0a1.29,1.29,0,0,1-.88-1.28A1.73,1.73,0,0,1,224.18,241.23Z" transform="translate(-116.55 -107.55)"/><path class="d" d="M228.28,244c0-.87-0.77-1.09-1.68-1.06v-0.65c0.85,0,1.53-.15,1.53-1a0.92,0.92,0,0,0-1-.95,1,1,0,0,0-1,.7l-0.71-.25a1.81,1.81,0,0,1,1.75-1.11,1.53,1.53,0,0,1,1.77,1.56,1.34,1.34,0,0,1-1,1.32,1.36,1.36,0,0,1,1.17,1.4,1.7,1.7,0,0,1-1.92,1.75,1.89,1.89,0,0,1-2-1.26l0.73-.24a1.21,1.21,0,0,0,1.21.84,1,1,0,0,0,1.15-1.09" transform="translate(-116.55 -107.55)"/><path class="d" d="M315.84,243.44a2.08,2.08,0,0,1-2.23,2.27,2.06,2.06,0,0,1-2.23-2.27v-3.61h0.8v3.56a1.43,1.43,0,1,0,2.85,0v-3.56h0.8v3.61" transform="translate(-116.55 -107.55)"/><path class="d" d="M317.15,245.57c0-1.28,0-2.61,0-3.84h0.72c0,0.16,0,.45,0,0.63h0a1.34,1.34,0,0,1,1.25-.74,1.36,1.36,0,0,1,1.43,1.56v2.38h-0.76v-2.13c0-.68-0.19-1.17-0.87-1.17a1.11,1.11,0,0,0-1,1.26v2h-0.76" transform="translate(-116.55 -107.55)"/><path class="d" d="M322.25,239.85a0.5,0.5,0,0,1,.51.49,0.51,0.51,0,1,1-.51-0.49m0.38,5.72h-0.76v-3.84h0.76v3.84Z" transform="translate(-116.55 -107.55)"/><path class="d" d="M325.18,245.63a1,1,0,0,1-1.12-1.2v-2.08h-0.74v-0.62h0.74v-1.1h0.75v1.1h1v0.62h-1v2c0,0.44.13,0.64,0.54,0.65a1.09,1.09,0,0,0,.45-0.1l0,0.62a1.94,1.94,0,0,1-.65.11" transform="translate(-116.55 -107.55)"/><path class="d" d="M328.36,241.62c1.3,0,1.9.87,1.84,2.25h-3A1.2,1.2,0,0,0,328.4,245a1.28,1.28,0,0,0,1.12-.58l0.53,0.43a1.92,1.92,0,0,1-1.65.79,2,2,0,0,1,0-4m1.08,1.68a1.07,1.07,0,0,0-1.54-1,1.12,1.12,0,0,0-.75,1h2.28Z" transform="translate(-116.55 -107.55)"/><path class="d" d="M333.07,242.25a1.39,1.39,0,0,0,0,2.78,1.39,1.39,0,0,0,0-2.78m-0.14-.63a1.7,1.7,0,0,1,1.39.68v-2.86h0.76v6.12h-0.74a3.73,3.73,0,0,0,0-.61,1.6,1.6,0,0,1-1.39.71,1.84,1.84,0,0,1-1.94-2A1.86,1.86,0,0,1,332.94,241.62Z" transform="translate(-116.55 -107.55)"/><polyline class="d" points="219.9 132.28 220.7 132.28 220.7 133.48 220.7 134.68 223.6 134.68 223.6 133.48 223.6 132.28 224.41 132.28 224.41 135.15 224.41 138.01 223.6 138.01 223.6 136.7 223.6 135.39 220.7 135.39 220.7 136.7 220.7 138.01 219.9 138.01 219.9 135.15 219.9 132.28"/><path class="d" d="M344,241.62c1.3,0,1.9.87,1.84,2.25h-3a1.2,1.2,0,0,0,1.25,1.17,1.28,1.28,0,0,0,1.12-.58l0.53,0.43a1.92,1.92,0,0,1-1.65.79,2,2,0,0,1,0-4m1.08,1.68a1.07,1.07,0,0,0-1.54-1,1.12,1.12,0,0,0-.75,1h2.28Z" transform="translate(-116.55 -107.55)"/><path class="d" d="M348.19,245.06a1.09,1.09,0,0,0,1.11-1.33c-0.83,0-1.9,0-1.9.73a0.65,0.65,0,0,0,.79.6m-1.56-.58c0-1.24,1.4-1.26,2.67-1.3a0.83,0.83,0,0,0-.95-0.95,1.6,1.6,0,0,0-1.09.45l-0.4-.49a2.26,2.26,0,0,1,1.57-.58,1.42,1.42,0,0,1,1.6,1.51,23.92,23.92,0,0,0,.06,2.44h-0.69a2.56,2.56,0,0,1-.06-0.55h0a1.47,1.47,0,0,1-1.29.65A1.19,1.19,0,0,1,346.62,244.48Z" transform="translate(-116.55 -107.55)"/><polyline class="d" points="235.53 138.01 234.76 138.01 234.76 134.95 234.76 131.89 235.53 131.89 235.53 134.95 235.53 138.01"/><path class="d" d="M354.63,245.63a1,1,0,0,1-1.12-1.2v-2.08h-0.74v-0.62h0.74v-1.1h0.75v1.1h1v0.62h-1v2c0,0.44.13,0.64,0.54,0.65a1.09,1.09,0,0,0,.45-0.1l0,0.62a1.94,1.94,0,0,1-.65.11" transform="translate(-116.55 -107.55)"/><path class="d" d="M357.88,242.27a1.12,1.12,0,0,0-1,1.26v2h-0.76v-6.12h0.76c0,0.95,0,1.94,0,2.87a1.35,1.35,0,0,1,1.21-.69,1.37,1.37,0,0,1,1.43,1.56v2.38h-0.76v-2.12c0-.67-0.19-1.17-0.87-1.17" transform="translate(-116.55 -107.55)"/><polyline class="d" points="84.7 156.01 83.91 156.01 83.91 153.63 83.91 151.24 82.83 152.14 82.37 151.6 84 150.28 84.7 150.28 84.7 153.15 84.7 156.01"/><path class="d" d="M205.89,261.6c0-1,0-2,0-2.88l-1.81,2.88h1.83m0.76,0h0.83v0.67h-0.83v1.29h-0.76v-1.29h-2.64v-0.71l2.44-3.73h1v3.77Z" transform="translate(-116.55 -107.55)"/><path class="d" d="M210.23,260.62a1.11,1.11,0,0,0-1.2,1.21,1.19,1.19,0,1,0,2.37,0,1.09,1.09,0,0,0-1.17-1.2m0,3.09a1.8,1.8,0,0,1-2-1.89,2.73,2.73,0,0,1,.56-1.63l1.5-2.37h0.93l-1.54,2.31v0a1.45,1.45,0,0,1,.71-0.15,1.7,1.7,0,0,1,1.79,1.8A1.8,1.8,0,0,1,210.22,263.71Z" transform="translate(-116.55 -107.55)"/><polyline class="d" points="98.32 154.36 96.44 154.36 96.44 154.04 96.44 153.72 98.32 153.72 98.32 154.04 98.32 154.36"/><path class="d" d="M217.64,260.88a1.09,1.09,0,1,0,1.12,1.09,1,1,0,0,0-1.12-1.09m0-2.54a0.94,0.94,0,1,0,0,1.87A0.94,0.94,0,1,0,217.64,258.33Zm1.72,0.9a1.36,1.36,0,0,1-.88,1.31,1.43,1.43,0,0,1,1.09,1.46,1.94,1.94,0,0,1-3.85,0,1.44,1.44,0,0,1,1.09-1.46h0a1.29,1.29,0,0,1-.88-1.28A1.73,1.73,0,0,1,219.36,259.23Z" transform="translate(-116.55 -107.55)"/><path class="d" d="M222.44,257.68a1.63,1.63,0,0,1,1.74,2.14,2.64,2.64,0,0,1-.85,1.22l-1.86,1.81h2.81v0.7h-3.74v-0.75l2.28-2.27a1.75,1.75,0,0,0,.63-1.22,0.94,0.94,0,0,0-1-1,1.08,1.08,0,0,0-1.08,1l-0.77-.13a1.76,1.76,0,0,1,1.85-1.52" transform="translate(-116.55 -107.55)"/><path class="d" d="M228.28,262c0-.87-0.77-1.09-1.68-1.06v-0.65c0.85,0,1.53-.15,1.53-1a0.92,0.92,0,0,0-1-.95,1,1,0,0,0-1,.7l-0.71-.25a1.81,1.81,0,0,1,1.75-1.11,1.53,1.53,0,0,1,1.77,1.56,1.34,1.34,0,0,1-1,1.32,1.36,1.36,0,0,1,1.17,1.4,1.7,1.7,0,0,1-1.92,1.75,1.89,1.89,0,0,1-2-1.26l0.73-.24a1.21,1.21,0,0,0,1.21.84,1,1,0,0,0,1.15-1.09" transform="translate(-116.55 -107.55)"/><path class="d" d="M318.39,261.9c0-1.13-1.3-1-2.43-1v2c1.13,0,2.4.12,2.43-1m-0.26-2.54c0-1-1.17-.86-2.17-0.86v1.75C317,260.26,318.13,260.37,318.13,259.36Zm1.07,2.58c0,1.84-2.15,1.64-4,1.63v-5.73h2c1,0,1.77.4,1.8,1.45a1.3,1.3,0,0,1-1,1.26A1.32,1.32,0,0,1,319.2,261.94Z" transform="translate(-116.55 -107.55)"/><polyline class="d" points="204.54 156.01 203.78 156.01 203.78 152.95 203.78 149.89 204.54 149.89 204.54 152.95 204.54 156.01"/><path class="d" d="M325.82,259.73c0,1.28,0,2.61,0,3.84h-0.72c0-.16,0-0.49,0-0.63a1.41,1.41,0,0,1-1.26.74,1.36,1.36,0,0,1-1.43-1.56v-2.38h0.76v2.12c0,0.68.19,1.18,0.87,1.18a1.11,1.11,0,0,0,1-1.26v-2h0.76" transform="translate(-116.55 -107.55)"/><path class="d" d="M328.87,259.62c1.3,0,1.9.87,1.84,2.25h-3a1.2,1.2,0,0,0,1.25,1.17,1.28,1.28,0,0,0,1.12-.58l0.53,0.43a1.92,1.92,0,0,1-1.65.79,2,2,0,0,1,0-4m1.08,1.68a1.07,1.07,0,0,0-1.54-1,1.12,1.12,0,0,0-.75,1h2.28Z" transform="translate(-116.55 -107.55)"/><path class="d" d="M333.64,259.32c0-1.43,1.6-1.93,2.91-1.46a1.65,1.65,0,0,1,.7.48l-0.57.55a1.38,1.38,0,0,0-1.12-.53,1,1,0,0,0-1,1.32c0.45,0.66,1.61.61,2.21,1.12a1.44,1.44,0,0,1,.55,1.17c0,1.54-1.67,2.07-3,1.53a2,2,0,0,1-.83-0.62l0.62-.53a1.6,1.6,0,0,0,1.28.67,1,1,0,0,0,1-1.42c-0.4-.71-1.68-0.61-2.27-1.17a1.44,1.44,0,0,1-.47-1.12" transform="translate(-116.55 -107.55)"/><path class="d" d="M340.21,260.27a1.12,1.12,0,0,0-1,1.26v2h-0.76v-6.12h0.76c0,0.95,0,1.94,0,2.87a1.35,1.35,0,0,1,1.21-.69,1.37,1.37,0,0,1,1.43,1.56v2.38h-0.76v-2.12c0-.67-0.19-1.17-0.87-1.17" transform="translate(-116.55 -107.55)"/><path class="d" d="M343.52,257.85a0.5,0.5,0,0,1,.51.49,0.51,0.51,0,1,1-.51-0.49m0.38,5.72h-0.76v-3.84h0.76v3.84Z" transform="translate(-116.55 -107.55)"/><path class="d" d="M347,259.62c1.3,0,1.9.87,1.84,2.25h-3A1.2,1.2,0,0,0,347,263a1.28,1.28,0,0,0,1.12-.58l0.53,0.43a1.92,1.92,0,0,1-1.65.79,2,2,0,0,1,0-4m1.08,1.68a1.07,1.07,0,0,0-1.54-1,1.12,1.12,0,0,0-.75,1H348Z" transform="translate(-116.55 -107.55)"/><polyline class="d" points="234.1 156.01 233.34 156.01 233.34 152.95 233.34 149.89 234.1 149.89 234.1 152.95 234.1 156.01"/><path class="d" d="M353.78,260.25a1.39,1.39,0,0,0,0,2.78,1.39,1.39,0,0,0,0-2.78m-0.14-.63a1.7,1.7,0,0,1,1.39.68v-2.86h0.76v6.12h-0.74a3.73,3.73,0,0,0,0-.61,1.6,1.6,0,0,1-1.39.71,1.84,1.84,0,0,1-1.94-2A1.86,1.86,0,0,1,353.64,259.62Z" transform="translate(-116.55 -107.55)"/><path class="d" d="M201.07,279.6c0-1,0-2,0-2.88l-1.81,2.88h1.83m0.76,0h0.83v0.67h-0.83v1.29h-0.76v-1.29h-2.64v-0.71l2.44-3.73h1v3.77Z" transform="translate(-116.55 -107.55)"/><path class="d" d="M205.89,279.6c0-1,0-2,0-2.88l-1.81,2.88h1.83m0.76,0h0.83v0.67h-0.83v1.29h-0.76v-1.29h-2.64v-0.71l2.44-3.73h1v3.77Z" transform="translate(-116.55 -107.55)"/><polyline class="d" points="95.44 168.99 93.14 174.01 92.24 174.01 94.63 168.98 91.79 168.98 91.79 168.63 91.79 168.28 95.44 168.28 95.44 168.64 95.44 168.99"/><polyline class="d" points="98.32 172.36 96.44 172.36 96.44 172.04 96.44 171.72 98.32 171.72 98.32 172.04 98.32 172.36"/><polyline class="d" points="102.85 168.99 100.55 174.01 99.65 174.01 102.04 168.98 99.2 168.98 99.2 168.63 99.2 168.28 102.85 168.28 102.85 168.64 102.85 168.99"/><path class="d" d="M222.46,278.88a1.09,1.09,0,1,0,1.12,1.09,1,1,0,0,0-1.12-1.09m0-2.54a0.94,0.94,0,1,0,0,1.87A0.94,0.94,0,1,0,222.46,276.33Zm1.72,0.9a1.36,1.36,0,0,1-.88,1.31,1.43,1.43,0,0,1,1.09,1.46,1.94,1.94,0,0,1-3.85,0,1.44,1.44,0,0,1,1.09-1.46h0a1.29,1.29,0,0,1-.88-1.28A1.73,1.73,0,0,1,224.18,277.23Z" transform="translate(-116.55 -107.55)"/><path class="d" d="M227.76,279.6c0-1,0-2,0-2.88l-1.81,2.88h1.83m0.76,0h0.83v0.67h-0.83v1.29h-0.76v-1.29h-2.64v-0.71l2.44-3.73h1v3.77Z" transform="translate(-116.55 -107.55)"/><path class="d" d="M315.78,281a1.78,1.78,0,0,0,1.54-.76l0.64,0.44a2.57,2.57,0,0,1-2.19,1,2.87,2.87,0,0,1-2.79-1.8,3.44,3.44,0,0,1,0-2.45,3,3,0,0,1,3.42-1.73,2.23,2.23,0,0,1,1.47.83l-0.63.49a1.73,1.73,0,0,0-1.43-.67,2.1,2.1,0,0,0-2.18,2.3,2.06,2.06,0,0,0,2.15,2.31" transform="translate(-116.55 -107.55)"/><path class="d" d="M319.87,281.06a1.09,1.09,0,0,0,1.11-1.33c-0.83,0-1.9,0-1.9.73a0.65,0.65,0,0,0,.79.6m-1.56-.58c0-1.24,1.4-1.26,2.67-1.3a0.83,0.83,0,0,0-.95-0.95,1.6,1.6,0,0,0-1.09.45l-0.4-.49a2.26,2.26,0,0,1,1.57-.58,1.42,1.42,0,0,1,1.6,1.51,23.92,23.92,0,0,0,.06,2.44h-0.69A2.56,2.56,0,0,1,321,281h0a1.47,1.47,0,0,1-1.29.65A1.19,1.19,0,0,1,318.31,280.48Z" transform="translate(-116.55 -107.55)"/><path class="d" d="M323,281.56c0-1.28,0-2.61,0-3.84h0.72c0,0.16,0,.48,0,0.65h0a1.3,1.3,0,0,1,1.47-.72l0,0.7a1.1,1.1,0,0,0-1.43,1.19v2H323" transform="translate(-116.55 -107.55)"/><path class="d" d="M327.5,277.62c1.3,0,1.9.87,1.84,2.25h-3a1.2,1.2,0,0,0,1.25,1.17,1.28,1.28,0,0,0,1.12-.58l0.53,0.43a1.92,1.92,0,0,1-1.65.79,2,2,0,0,1,0-4m1.08,1.68a1.07,1.07,0,0,0-1.54-1,1.12,1.12,0,0,0-.75,1h2.28Z" transform="translate(-116.55 -107.55)"/><path class="d" d="M332,276c-0.83,0-.66.93-0.68,1.73h0.89v0.62h-0.89v3.22h-0.76v-3.22H329.8v-0.62h0.76v-0.8a1.42,1.42,0,0,1,1.91-1.52l-0.09.66A1.34,1.34,0,0,0,332,276" transform="translate(-116.55 -107.55)"/><path class="d" d="M333.31,275.85a0.5,0.5,0,0,1,.51.49,0.51,0.51,0,1,1-.51-0.49m0.38,5.72h-0.76v-3.84h0.76v3.84Z" transform="translate(-116.55 -107.55)"/><path class="d" d="M335,281.56c0-1.28,0-2.61,0-3.84h0.72c0,0.16,0,.48,0,0.65h0a1.3,1.3,0,0,1,1.47-.72l0,0.7a1.1,1.1,0,0,0-1.43,1.19v2H335" transform="translate(-116.55 -107.55)"/><path class="d" d="M337.81,279.25c-0.5-1.26.95-2,2.14-1.47a1.3,1.3,0,0,1,.6.47l-0.53.45a1,1,0,0,0-.89-0.48,0.58,0.58,0,0,0-.71.5c0,0.59.92,0.51,1.39,0.73a1.08,1.08,0,0,1,.78,1c0.06,1.56-2.45,1.51-3.08.55l0.54-.46a1.24,1.24,0,0,0,1,.53,0.62,0.62,0,0,0,.76-0.56c0-.73-1.27-0.51-1.76-0.95a0.84,0.84,0,0,1-.26-0.3" transform="translate(-116.55 -107.55)"/><path class="d" d="M342.77,281.63a1,1,0,0,1-1.12-1.2v-2.08h-0.74v-0.62h0.74v-1.1h0.75v1.1h1v0.62h-1v2c0,0.44.13,0.64,0.54,0.65a1.09,1.09,0,0,0,.45-0.1l0,0.62a1.94,1.94,0,0,1-.65.11" transform="translate(-116.55 -107.55)"/><polyline class="d" points="230.5 174.01 229.7 174.01 229.7 171.15 229.7 168.28 230.5 168.28 230.5 171.15 230.5 174.01"/><path class="d" d="M348.41,281.56c0-1.28,0-2.61,0-3.84h0.72c0,0.16,0,.45,0,0.63h0a1.34,1.34,0,0,1,1.25-.74,1.36,1.36,0,0,1,1.43,1.56v2.38h-0.76v-2.13c0-.68-0.19-1.17-0.87-1.17a1.11,1.11,0,0,0-1,1.26v2h-0.76" transform="translate(-116.55 -107.55)"/><path class="d" d="M352.87,279.65a1.88,1.88,0,0,1,2-2,1.82,1.82,0,0,1,1.44.63l-0.55.45a1.05,1.05,0,0,0-.88-0.44,1.39,1.39,0,0,0,0,2.77,1.1,1.1,0,0,0,.92-0.42l0.51,0.46a1.77,1.77,0,0,1-1.43.6,1.9,1.9,0,0,1-2.07-2" transform="translate(-116.55 -107.55)"/><path class="d" d="M357.52,280.55a0.53,0.53,0,0,1,.54.53,0.54,0.54,0,0,1-1.09,0,0.54,0.54,0,0,1,.54-0.53" transform="translate(-116.55 -107.55)"/><rect class="a" x="18.67" y="243.45" width="65.25" height="18"/><rect class="e" x="83.92" y="243.45" width="65.25" height="18"/><rect class="f" x="149.17" y="243.45" width="65.25" height="18"/><rect class="f" x="214.42" y="243.45" width="65.25" height="18"/><rect class="b" x="18.67" y="261.45" width="65.25" height="18"/><rect class="b" x="83.92" y="261.45" width="65.25" height="18"/><rect class="b" x="149.17" y="261.45" width="65.25" height="18"/><rect class="b" x="214.42" y="261.45" width="65.25" height="18"/><rect class="b" x="18.67" y="279.45" width="65.25" height="18"/><rect class="b" x="83.92" y="279.45" width="65.25" height="18"/><rect class="b" x="149.17" y="279.45" width="65.25" height="18"/><rect class="b" x="214.42" y="279.45" width="65.25" height="18"/><rect class="b" x="18.67" y="297.45" width="65.25" height="18"/><rect class="b" x="83.92" y="297.45" width="65.25" height="18"/><rect class="b" x="149.17" y="297.45" width="65.25" height="18"/><rect class="b" x="214.42" y="297.45" width="65.25" height="18"/><rect class="c" x="18.67" y="243.45" width="261" height="72"/><rect class="c" x="18.67" y="243.45" width="65.25" height="18"/><rect class="c" x="83.92" y="243.45" width="65.25" height="18"/><rect class="c" x="149.17" y="243.45" width="65.25" height="18"/><rect class="c" x="214.42" y="243.45" width="65.25" height="18"/><rect class="c" x="18.67" y="261.45" width="65.25" height="18"/><rect class="c" x="83.92" y="261.45" width="65.25" height="18"/><rect class="c" x="149.17" y="261.45" width="65.25" height="18"/><rect class="c" x="214.42" y="261.45" width="65.25" height="18"/><rect class="c" x="18.67" y="279.45" width="65.25" height="18"/><rect class="c" x="83.92" y="279.45" width="65.25" height="18"/><rect class="c" x="149.17" y="279.45" width="65.25" height="18"/><rect class="c" x="214.42" y="279.45" width="65.25" height="18"/><rect class="c" x="18.67" y="297.45" width="65.25" height="18"/><rect class="c" x="83.92" y="297.45" width="65.25" height="18"/><rect class="c" x="149.17" y="297.45" width="65.25" height="18"/><rect class="c" x="214.42" y="297.45" width="65.25" height="18"/><path class="d" d="M147.37,358.48c0-1.57,1.73-2.1,3.21-1.62a2.41,2.41,0,0,1,.89.53l-0.88.93a1.55,1.55,0,0,0-1-.49c-0.64-.07-1.13.66-0.56,1,0.94,0.53,2.42.53,2.42,2s-0.91,1.91-2.2,1.91a3,3,0,0,1-2.15-.83L148,361a2,2,0,0,0,1.24.61c0.72,0.07,1.1-.79.49-1.11-0.94-.49-2.35-0.52-2.35-2" transform="translate(-116.55 -107.55)"/><path class="d" d="M153.81,362.66a1.26,1.26,0,0,1-1.43-1.43v-1.7h-0.65v-1h0.64v-1.06h1.3v1.06h0.95v1h-0.95v1.54c0,0.38.11,0.57,0.5,0.57a1.12,1.12,0,0,0,.39-0.06l0,1a2.69,2.69,0,0,1-.77.12" transform="translate(-116.55 -107.55)"/><path class="d" d="M157.14,361.58a0.77,0.77,0,0,0,.71-0.87v-2.18h1.33v4H157.9a3.15,3.15,0,0,0,0-.56,1.33,1.33,0,0,1-1.22.67A1.42,1.42,0,0,1,155.2,361v-2.49h1.34v2.19c0,0.48.12,0.85,0.6,0.86" transform="translate(-116.55 -107.55)"/><path class="d" d="M162.25,361.58a1,1,0,0,0,0-2.07,1,1,0,0,0,0,2.07m-0.33-3.16a1.67,1.67,0,0,1,1.25.54v-2.52h1.33v6.12h-1.22a2.8,2.8,0,0,0,0-.53,1.54,1.54,0,0,1-1.32.64A2.14,2.14,0,0,1,161.91,358.42Z" transform="translate(-116.55 -107.55)"/><path class="d" d="M167.52,358.4c1.43,0,2.09,1,2,2.51h-2.92a0.91,0.91,0,0,0,1,.76,1,1,0,0,0,.89-0.42l0.92,0.58a2.09,2.09,0,0,1-1.83.86,2.15,2.15,0,1,1,0-4.29m0.8,1.68a0.84,0.84,0,0,0-1.43-.54,0.77,0.77,0,0,0-.28.54h1.71Z" transform="translate(-116.55 -107.55)"/><path class="d" d="M172.88,358.42a1.42,1.42,0,0,1,1.47,1.65v2.49H173v-2.2c0-.47-0.12-0.85-0.6-0.85a0.73,0.73,0,0,0-.71.87v2.19h-1.34v-4h1.29a3.15,3.15,0,0,0,0,.56,1.34,1.34,0,0,1,1.21-.67" transform="translate(-116.55 -107.55)"/><path class="d" d="M176.94,362.66a1.26,1.26,0,0,1-1.43-1.43v-1.7h-0.65v-1h0.64v-1.06h1.3v1.06h0.95v1H176.8v1.54c0,0.38.11,0.57,0.5,0.57a1.12,1.12,0,0,0,.39-0.06l0,1a2.69,2.69,0,0,1-.77.12" transform="translate(-116.55 -107.55)"/><polyline class="d" points="63.91 255.01 63.91 252.15 63.91 249.28 65.3 249.28 65.3 252.15 65.3 255.01 63.91 255.01"/><path class="d" d="M184.38,361.37c1.5,0.09,2.56-.27,2.56-1.68s-1.07-1.77-2.56-1.67v3.35m0.72-4.54c2,0,3.28.85,3.28,2.85s-1.32,2.88-3.22,2.88H183v-5.73h2.07Z" transform="translate(-116.55 -107.55)"/><path class="d" d="M213.93,359.3c0.77,0,1.57,0,1.58-.7s-0.83-.66-1.58-0.66v1.35m0.72-2.47c1.3,0,2.24.45,2.24,1.77,0,1.56-1.32,1.88-3,1.81v2.16h-1.39v-5.73h2.11Z" transform="translate(-116.55 -107.55)"/><path class="d" d="M218.6,359.11a1.21,1.21,0,0,1,1.38-.66l-0.06,1.17a0.94,0.94,0,0,0-1.29.87v2.07H217.3v-4h1.28a3.44,3.44,0,0,0,0,.58" transform="translate(-116.55 -107.55)"/><path class="d" d="M222.41,361.58a1,1,0,0,0,0-2.07,0.92,0.92,0,0,0-.95,1,0.93,0.93,0,0,0,1,1m0-3.18a2.15,2.15,0,1,1-2.24,2.13A2,2,0,0,1,222.4,358.4Z" transform="translate(-116.55 -107.55)"/><polyline class="d" points="111.43 255.01 110 255.01 108.41 250.98 109.88 250.98 110.72 253.6 110.75 253.6 111.6 250.98 113.02 250.98"/><path class="d" d="M230.09,362.57v-4h1.33v4h-1.33m0.66-6.05a0.7,0.7,0,0,1,.76.73,0.71,0.71,0,0,1-.76.73,0.73,0.73,0,0,1-.76-0.73A0.71,0.71,0,0,1,230.76,356.51Z" transform="translate(-116.55 -107.55)"/><path class="d" d="M234.51,361.58a1,1,0,0,0,0-2.07,1,1,0,0,0,0,2.07m-0.33-3.16a1.67,1.67,0,0,1,1.25.54v-2.52h1.33v6.12h-1.22a2.8,2.8,0,0,0,0-.53,1.54,1.54,0,0,1-1.32.64A2.14,2.14,0,0,1,234.18,358.42Z" transform="translate(-116.55 -107.55)"/><path class="d" d="M239.78,358.4c1.43,0,2.09,1,2,2.51h-2.92a0.91,0.91,0,0,0,1,.76,1,1,0,0,0,.89-0.42l0.92,0.58a2.09,2.09,0,0,1-1.83.86,2.15,2.15,0,1,1,0-4.29m0.8,1.68a0.84,0.84,0,0,0-1.43-.54,0.77,0.77,0,0,0-.28.54h1.71Z" transform="translate(-116.55 -107.55)"/><path class="d" d="M243.93,359.11a1.21,1.21,0,0,1,1.38-.66l-0.06,1.17a0.94,0.94,0,0,0-1.29.87v2.07h-1.33v-4h1.28a3.44,3.44,0,0,0,0,.58" transform="translate(-116.55 -107.55)"/><polyline class="d" points="129.36 255.01 129.36 252.15 129.36 249.28 130.76 249.28 130.76 252.15 130.76 255.01 129.36 255.01"/><path class="d" d="M249.84,361.37c1.5,0.09,2.56-.27,2.56-1.68s-1.07-1.77-2.56-1.67v3.35m0.72-4.54c2,0,3.28.85,3.28,2.85s-1.32,2.88-3.22,2.88h-2.14v-5.73h2.07Z" transform="translate(-116.55 -107.55)"/><polyline class="d" points="160.68 250.46 160.68 252.74 160.68 255.01 159.29 255.01 159.29 252.74 159.29 250.46 157.68 250.46 157.68 249.87 157.68 249.28 162.3 249.28 162.3 249.87 162.3 250.46 160.68 250.46"/><path class="d" d="M278.55,363.3a1,1,0,0,0,.87-0.07,2.56,2.56,0,0,0,.36-0.73l-1.68-4h1.47l0.9,2.59h0l0.8-2.59h1.41l-1.81,4.64a1.87,1.87,0,0,1-2.5,1.25" transform="translate(-116.55 -107.55)"/><path class="d" d="M285.48,361.58a1,1,0,0,0,0-2.07,1,1,0,0,0,0,2.07m0.32-3.16a1.9,1.9,0,0,1,1.91,2.11,1.92,1.92,0,0,1-1.92,2.15,1.53,1.53,0,0,1-1.24-.56v2.39h-1.33v-6h1.26V359h0A1.58,1.58,0,0,1,285.8,358.42Z" transform="translate(-116.55 -107.55)"/><path class="d" d="M290.52,358.4c1.43,0,2.09,1,2,2.51h-2.92a0.91,0.91,0,0,0,1,.76,1,1,0,0,0,.89-0.42l0.92,0.58a2.09,2.09,0,0,1-1.83.86,2.15,2.15,0,1,1,0-4.29m0.8,1.68a0.84,0.84,0,0,0-1.43-.54,0.77,0.77,0,0,0-.28.54h1.71Z" transform="translate(-116.55 -107.55)"/><path class="d" d="M297.44,361.58a1,1,0,0,0,0-2.07,0.92,0.92,0,0,0-.95,1,0.93,0.93,0,0,0,1,1m0-3.18a2.15,2.15,0,1,1-2.24,2.13A2,2,0,0,1,297.44,358.4Z" transform="translate(-116.55 -107.55)"/><path class="d" d="M302.47,356.29a2.23,2.23,0,0,1,.64.08L303,357.42a0.65,0.65,0,0,0-1,.7v0.4H303v1h-0.9v3h-1.33v-3H300v-1h0.74c-0.08-1.39.4-2.25,1.73-2.24" transform="translate(-116.55 -107.55)"/><path class="d" d="M307.92,361.58a1,1,0,0,0,0-2.07,1,1,0,0,0,0,2.07m0.32-3.16a1.9,1.9,0,0,1,1.91,2.11,1.92,1.92,0,0,1-1.92,2.15,1.53,1.53,0,0,1-1.24-.56v2.39h-1.33v-6h1.26V359h0A1.58,1.58,0,0,1,308.24,358.42Z" transform="translate(-116.55 -107.55)"/><polyline class="d" points="194.45 255.01 194.45 251.95 194.45 248.89 195.8 248.89 195.8 251.95 195.8 255.01 194.45 255.01"/><path class="d" d="M315,359.39a1.54,1.54,0,0,0-1,.41l-0.67-.72a2.59,2.59,0,0,1,1.8-.68c1.38,0,1.85.76,1.85,2.13v2h-1.21v-0.43h0a1.49,1.49,0,0,1-2.61-.74c0-1.21,1.34-1.33,2.59-1.36a0.62,0.62,0,0,0-.73-0.65m-0.06,2.38a0.79,0.79,0,0,0,.83-1c-0.62,0-1.41,0-1.41.55A0.47,0.47,0,0,0,314.95,361.77Z" transform="translate(-116.55 -107.55)"/><path class="d" d="M320.49,358.42a1.42,1.42,0,0,1,1.47,1.65v2.49h-1.34v-2.2c0-.47-0.12-0.85-0.6-0.85a0.73,0.73,0,0,0-.71.87v2.19H318v-4h1.29a3.15,3.15,0,0,0,0,.56,1.34,1.34,0,0,1,1.21-.67" transform="translate(-116.55 -107.55)"/><path class="d" d="M149.31,377.56a2.89,2.89,0,0,0-1.27.32l0.08-3h3.09v0.7h-2.37l0,1.51c1.4-.36,2.69.3,2.66,1.7a2,2,0,0,1-3.83.83l0.71-.28a1.18,1.18,0,0,0,1.12.77,1.13,1.13,0,0,0,1.2-1.23,1.19,1.19,0,0,0-1.34-1.26" transform="translate(-116.55 -107.55)"/><path class="d" d="M154.45,374.68a1.63,1.63,0,0,1,1.74,2.14,2.64,2.64,0,0,1-.85,1.22l-1.86,1.81h2.81v0.7h-3.74v-0.75l2.28-2.27a1.75,1.75,0,0,0,.63-1.22,0.94,0.94,0,0,0-1-1,1.08,1.08,0,0,0-1.08,1l-0.77-.13a1.76,1.76,0,0,1,1.85-1.52" transform="translate(-116.55 -107.55)"/><polyline class="d" points="42.56 271.36 40.69 271.36 40.69 271.04 40.69 270.71 42.56 270.71 42.56 271.04 42.56 271.36"/><polyline class="d" points="47.09 267.99 44.79 273.01 43.89 273.01 46.28 267.98 43.44 267.98 43.44 267.63 43.44 267.28 47.09 267.28 47.09 267.64 47.09 267.99"/><path class="d" d="M167.18,378.6c0-1,0-2,0-2.88l-1.81,2.88h1.83m0.76,0h0.83v0.67h-0.83v1.29h-0.76v-1.29h-2.64v-0.71l2.44-3.73h1v3.77Z" transform="translate(-116.55 -107.55)"/><path class="d" d="M172.52,379c0-.87-0.77-1.09-1.68-1.06v-0.65c0.85,0,1.53-.15,1.53-1a0.92,0.92,0,0,0-1-.95,1,1,0,0,0-1,.7l-0.71-.25a1.81,1.81,0,0,1,1.75-1.11,1.53,1.53,0,0,1,1.77,1.56,1.34,1.34,0,0,1-1,1.32,1.36,1.36,0,0,1,1.17,1.4,1.7,1.7,0,0,1-1.92,1.75,1.89,1.89,0,0,1-2-1.26l0.73-.24a1.21,1.21,0,0,0,1.21.84,1,1,0,0,0,1.15-1.09" transform="translate(-116.55 -107.55)"/><path class="d" d="M176.34,377.77a1.11,1.11,0,0,0,1.2-1.21,1.19,1.19,0,1,0-2.38,0,1.1,1.1,0,0,0,1.18,1.2m0-3.09a1.8,1.8,0,0,1,2,1.89,2.8,2.8,0,0,1-.55,1.63l-1.5,2.37h-0.93c0.5-.78,1.05-1.56,1.53-2.32a1.56,1.56,0,0,1-.72.15,1.67,1.67,0,0,1-1.79-1.8A1.8,1.8,0,0,1,176.35,374.68Z" transform="translate(-116.55 -107.55)"/><path class="d" d="M181.16,377.62a1.11,1.11,0,0,0-1.2,1.21,1.19,1.19,0,1,0,2.37,0,1.09,1.09,0,0,0-1.17-1.2m0,3.09a1.8,1.8,0,0,1-2-1.89,2.73,2.73,0,0,1,.56-1.63l1.5-2.37h0.93l-1.54,2.31v0a1.45,1.45,0,0,1,.71-0.15,1.7,1.7,0,0,1,1.79,1.8A1.8,1.8,0,0,1,181.15,380.71Z" transform="translate(-116.55 -107.55)"/><path class="d" d="M185.63,377.56a2.89,2.89,0,0,0-1.27.32l0.08-3h3.09v0.7h-2.37l0,1.51c1.4-.36,2.69.3,2.66,1.7a2,2,0,0,1-3.83.83l0.71-.28a1.18,1.18,0,0,0,1.12.77,1.13,1.13,0,0,0,1.2-1.23,1.19,1.19,0,0,0-1.34-1.26" transform="translate(-116.55 -107.55)"/><polyline class="d" points="103.83 273.01 103.04 273.01 103.04 270.63 103.04 268.24 101.95 269.14 101.49 268.6 103.12 267.28 103.83 267.28 103.83 270.15 103.83 273.01"/><path class="d" d="M224.19,377.56a2.89,2.89,0,0,0-1.27.32l0.08-3h3.09v0.7h-2.37l0,1.51c1.4-.36,2.69.3,2.66,1.7a2,2,0,0,1-3.83.83l0.71-.28a1.18,1.18,0,0,0,1.12.77,1.13,1.13,0,0,0,1.2-1.23,1.19,1.19,0,0,0-1.34-1.26" transform="translate(-116.55 -107.55)"/><path class="d" d="M229.36,377.62a1.11,1.11,0,0,0-1.2,1.21,1.19,1.19,0,1,0,2.37,0,1.09,1.09,0,0,0-1.17-1.2m0,3.09a1.8,1.8,0,0,1-2-1.89,2.73,2.73,0,0,1,.56-1.63l1.5-2.37h0.93l-1.54,2.31v0a1.45,1.45,0,0,1,.71-0.15,1.7,1.7,0,0,1,1.79,1.8A1.8,1.8,0,0,1,229.35,380.71Z" transform="translate(-116.55 -107.55)"/><polyline class="d" points="117.45 271.36 115.57 271.36 115.57 271.04 115.57 270.71 117.45 270.71 117.45 271.04 117.45 271.36"/><path class="d" d="M236.77,377.77a1.11,1.11,0,0,0,1.2-1.21,1.19,1.19,0,1,0-2.38,0,1.1,1.1,0,0,0,1.18,1.2m0-3.09a1.8,1.8,0,0,1,2,1.89,2.8,2.8,0,0,1-.55,1.63l-1.5,2.37h-0.93c0.5-.78,1.05-1.56,1.53-2.32a1.56,1.56,0,0,1-.72.15,1.67,1.67,0,0,1-1.79-1.8A1.8,1.8,0,0,1,236.78,374.68Z" transform="translate(-116.55 -107.55)"/><path class="d" d="M241.59,377.88a1.09,1.09,0,1,0,1.12,1.09,1,1,0,0,0-1.12-1.09m0-2.54a0.94,0.94,0,1,0,0,1.87A0.94,0.94,0,1,0,241.59,375.33Zm1.72,0.9a1.36,1.36,0,0,1-.88,1.31,1.43,1.43,0,0,1,1.09,1.46,1.94,1.94,0,0,1-3.85,0,1.44,1.44,0,0,1,1.09-1.46h0a1.29,1.29,0,0,1-.88-1.28A1.73,1.73,0,0,1,243.31,376.23Z" transform="translate(-116.55 -107.55)"/><path class="d" d="M247.4,379c0-.87-0.77-1.09-1.68-1.06v-0.65c0.85,0,1.53-.15,1.53-1a0.92,0.92,0,0,0-1-.95,1,1,0,0,0-1,.7l-0.71-.25a1.81,1.81,0,0,1,1.75-1.11,1.53,1.53,0,0,1,1.77,1.56,1.34,1.34,0,0,1-1,1.32,1.36,1.36,0,0,1,1.17,1.4,1.7,1.7,0,0,1-1.92,1.75,1.89,1.89,0,0,1-2-1.26l0.73-.24a1.21,1.21,0,0,0,1.21.84A1,1,0,0,0,247.4,379" transform="translate(-116.55 -107.55)"/><polyline class="d" points="174.35 267.28 175.15 267.28 175.15 268.48 175.15 269.68 178.05 269.68 178.05 268.48 178.05 267.28 178.86 267.28 178.86 270.15 178.86 273.01 178.05 273.01 178.05 271.7 178.05 270.39 175.15 270.39 175.15 271.7 175.15 273.01 174.35 273.01 174.35 270.15 174.35 267.28"/><path class="d" d="M296.61,376.32c0-1.43,1.6-1.93,2.91-1.46a1.65,1.65,0,0,1,.7.48l-0.57.55a1.38,1.38,0,0,0-1.12-.53,1,1,0,0,0-1,1.32c0.45,0.66,1.61.61,2.21,1.12a1.44,1.44,0,0,1,.55,1.17c0,1.54-1.67,2.07-3,1.53a2,2,0,0,1-.83-0.62l0.62-.53a1.6,1.6,0,0,0,1.28.67,1,1,0,0,0,1-1.42c-0.4-.71-1.68-0.61-2.27-1.17a1.44,1.44,0,0,1-.47-1.12" transform="translate(-116.55 -107.55)"/><path class="d" d="M302.51,378.45h2.15l-1.07-2.69m-1.94,4.8h-0.89l2.49-5.73H304l2.46,5.73h-0.91l-0.58-1.41h-2.72Z" transform="translate(-116.55 -107.55)"/><path class="d" d="M150.13,396.6c0-1,0-2,0-2.88l-1.81,2.88h1.83m0.76,0h0.83v0.67h-0.83v1.29h-0.76v-1.29h-2.64v-0.71l2.44-3.73h1v3.77Z" transform="translate(-116.55 -107.55)"/><path class="d" d="M154.47,395.88a1.09,1.09,0,1,0,1.12,1.09,1,1,0,0,0-1.12-1.09m0-2.54a0.94,0.94,0,1,0,0,1.87A0.94,0.94,0,1,0,154.47,393.33Zm1.72,0.9a1.36,1.36,0,0,1-.88,1.31,1.43,1.43,0,0,1,1.09,1.46,1.94,1.94,0,0,1-3.85,0,1.44,1.44,0,0,1,1.09-1.46h0a1.29,1.29,0,0,1-.88-1.28A1.73,1.73,0,0,1,156.19,394.23Z" transform="translate(-116.55 -107.55)"/><polyline class="d" points="42.56 289.36 40.69 289.36 40.69 289.04 40.69 288.71 42.56 288.71 42.56 289.04 42.56 289.36"/><path class="d" d="M161.86,392.68a1.63,1.63,0,0,1,1.74,2.14,2.64,2.64,0,0,1-.85,1.22l-1.86,1.81h2.81v0.7H160v-0.75l2.28-2.27a1.75,1.75,0,0,0,.63-1.22,0.94,0.94,0,0,0-1-1,1.08,1.08,0,0,0-1.08,1l-0.77-.13a1.76,1.76,0,0,1,1.85-1.52" transform="translate(-116.55 -107.55)"/><path class="d" d="M167.27,393.58a0.85,0.85,0,0,0-1.15,0c-0.68.71-.72,2.57-0.36,3.66a1,1,0,0,0,.94.81c1.22,0,1.21-1.83,1.1-3.13a2.3,2.3,0,0,0-.53-1.34m-2.41,3.3c-0.32-1.88,0-4.2,1.85-4.2,1.53,0,2,1.43,2,3a3.17,3.17,0,0,1-1.08,2.78,1.79,1.79,0,0,1-1.76,0A2.3,2.3,0,0,1,164.86,396.88Z" transform="translate(-116.55 -107.55)"/><path class="d" d="M171.52,395.77a1.11,1.11,0,0,0,1.2-1.21,1.19,1.19,0,1,0-2.38,0,1.1,1.1,0,0,0,1.18,1.2m0-3.09a1.8,1.8,0,0,1,2,1.89,2.8,2.8,0,0,1-.55,1.63l-1.5,2.37h-0.93c0.5-.78,1.05-1.56,1.53-2.32a1.56,1.56,0,0,1-.72.15,1.67,1.67,0,0,1-1.79-1.8A1.8,1.8,0,0,1,171.53,392.68Z" transform="translate(-116.55 -107.55)"/><path class="d" d="M176.34,395.62a1.11,1.11,0,0,0-1.2,1.21,1.19,1.19,0,1,0,2.37,0,1.09,1.09,0,0,0-1.17-1.2m0,3.09a1.8,1.8,0,0,1-2-1.89,2.73,2.73,0,0,1,.56-1.63l1.5-2.37h0.93l-1.54,2.31v0a1.45,1.45,0,0,1,.71-0.15,1.7,1.7,0,0,1,1.79,1.8A1.8,1.8,0,0,1,176.34,398.71Z" transform="translate(-116.55 -107.55)"/><path class="d" d="M181.16,395.88a1.09,1.09,0,1,0,1.12,1.09,1,1,0,0,0-1.12-1.09m0-2.54a0.94,0.94,0,1,0,0,1.87A0.94,0.94,0,1,0,181.16,393.33Zm1.72,0.9a1.36,1.36,0,0,1-.88,1.31,1.43,1.43,0,0,1,1.09,1.46,1.94,1.94,0,0,1-3.85,0,1.44,1.44,0,0,1,1.09-1.46h0a1.29,1.29,0,0,1-.88-1.28A1.73,1.73,0,0,1,182.88,394.23Z" transform="translate(-116.55 -107.55)"/><path class="d" d="M186,395.77a1.11,1.11,0,0,0,1.2-1.21,1.19,1.19,0,1,0-2.38,0,1.1,1.1,0,0,0,1.18,1.2m0-3.09a1.8,1.8,0,0,1,2,1.89,2.8,2.8,0,0,1-.55,1.63l-1.5,2.37H185c0.5-.78,1.05-1.56,1.53-2.32a1.56,1.56,0,0,1-.72.15,1.67,1.67,0,0,1-1.79-1.8A1.8,1.8,0,0,1,186,392.68Z" transform="translate(-116.55 -107.55)"/><polyline class="d" points="103.83 291.01 103.04 291.01 103.04 288.63 103.04 286.24 101.95 287.14 101.49 286.6 103.12 285.28 103.83 285.28 103.83 288.15 103.83 291.01"/><path class="d" d="M225,396.6c0-1,0-2,0-2.88l-1.81,2.88H225m0.76,0h0.83v0.67h-0.83v1.29H225v-1.29h-2.64v-0.71l2.44-3.73h1v3.77Z" transform="translate(-116.55 -107.55)"/><path class="d" d="M229.36,395.62a1.11,1.11,0,0,0-1.2,1.21,1.19,1.19,0,1,0,2.37,0,1.09,1.09,0,0,0-1.17-1.2m0,3.09a1.8,1.8,0,0,1-2-1.89,2.73,2.73,0,0,1,.56-1.63l1.5-2.37h0.93l-1.54,2.31v0a1.45,1.45,0,0,1,.71-0.15,1.7,1.7,0,0,1,1.79,1.8A1.8,1.8,0,0,1,229.35,398.71Z" transform="translate(-116.55 -107.55)"/><polyline class="d" points="117.45 289.36 115.57 289.36 115.57 289.04 115.57 288.71 117.45 288.71 117.45 289.04 117.45 289.36"/><path class="d" d="M236.77,395.88a1.09,1.09,0,1,0,1.12,1.09,1,1,0,0,0-1.12-1.09m0-2.54a0.94,0.94,0,1,0,0,1.87A0.94,0.94,0,1,0,236.77,393.33Zm1.72,0.9a1.36,1.36,0,0,1-.88,1.31,1.43,1.43,0,0,1,1.09,1.46,1.94,1.94,0,0,1-3.85,0,1.44,1.44,0,0,1,1.09-1.46h0a1.29,1.29,0,0,1-.88-1.28A1.73,1.73,0,0,1,238.49,394.23Z" transform="translate(-116.55 -107.55)"/><path class="d" d="M241.56,392.68a1.63,1.63,0,0,1,1.74,2.14,2.64,2.64,0,0,1-.85,1.22l-1.86,1.81h2.81v0.7h-3.74v-0.75l2.28-2.27a1.75,1.75,0,0,0,.63-1.22,0.94,0.94,0,0,0-1-1,1.08,1.08,0,0,0-1.08,1l-0.77-.13a1.76,1.76,0,0,1,1.85-1.52" transform="translate(-116.55 -107.55)"/><path class="d" d="M247.4,397c0-.87-0.77-1.09-1.68-1.06v-0.65c0.85,0,1.53-.15,1.53-1a0.92,0.92,0,0,0-1-.95,1,1,0,0,0-1,.7l-0.71-.25a1.81,1.81,0,0,1,1.75-1.11,1.53,1.53,0,0,1,1.77,1.56,1.34,1.34,0,0,1-1,1.32,1.36,1.36,0,0,1,1.17,1.4,1.7,1.7,0,0,1-1.92,1.75,1.89,1.89,0,0,1-2-1.26l0.73-.24a1.21,1.21,0,0,0,1.21.84A1,1,0,0,0,247.4,397" transform="translate(-116.55 -107.55)"/><polyline class="d" points="172.42 285.28 173.22 285.28 173.22 286.48 173.22 287.68 176.12 287.68 176.12 286.48 176.12 285.28 176.93 285.28 176.93 288.15 176.93 291.01 176.12 291.01 176.12 289.7 176.12 288.39 173.22 288.39 173.22 289.7 173.22 291.01 172.42 291.01 172.42 288.15 172.42 285.28"/><path class="d" d="M296.12,392.83c0.58,1.47,1.13,3,1.73,4.41l1.69-4.41h1.25v5.73H300c0-1.6,0-3.23,0-4.8l-1.9,4.8h-0.51c-0.64-1.6-1.25-3.22-1.91-4.8v4.8h-0.78v-5.73h1.25" transform="translate(-116.55 -107.55)"/><path class="d" d="M304.92,398a2.3,2.3,0,1,0-2.16-2.3,2.07,2.07,0,0,0,2.16,2.3m2.82-3.52a3.36,3.36,0,0,1,0,2.45,3.1,3.1,0,0,1-5.62,0,3.44,3.44,0,0,1,0-2.45A3.11,3.11,0,0,1,307.74,394.47Z" transform="translate(-116.55 -107.55)"/><path class="d" d="M344.93,358.48c0-1.57,1.73-2.1,3.21-1.62a2.41,2.41,0,0,1,.89.53l-0.88.93a1.55,1.55,0,0,0-1-.49c-0.64-.07-1.13.66-0.56,1,0.94,0.53,2.42.53,2.42,2s-0.91,1.91-2.2,1.91a3,3,0,0,1-2.15-.83l0.91-.92a2,2,0,0,0,1.24.61c0.72,0.07,1.1-.79.49-1.11-0.94-.49-2.35-0.52-2.35-2" transform="translate(-116.55 -107.55)"/><path class="d" d="M351.36,362.66a1.26,1.26,0,0,1-1.43-1.43v-1.7h-0.65v-1h0.64v-1.06h1.3v1.06h0.95v1h-0.95v1.54c0,0.38.11,0.57,0.5,0.57a1.12,1.12,0,0,0,.39-0.06l0,1a2.69,2.69,0,0,1-.77.12" transform="translate(-116.55 -107.55)"/><path class="d" d="M354.4,359.39a1.54,1.54,0,0,0-1,.41l-0.67-.72a2.59,2.59,0,0,1,1.8-.68c1.38,0,1.85.76,1.85,2.13v2h-1.21v-0.43h0a1.49,1.49,0,0,1-2.61-.74c0-1.21,1.34-1.33,2.59-1.36a0.62,0.62,0,0,0-.73-0.65m-0.06,2.38a0.79,0.79,0,0,0,.83-1c-0.62,0-1.41,0-1.41.55A0.47,0.47,0,0,0,354.34,361.77Z" transform="translate(-116.55 -107.55)"/><path class="d" d="M358.67,359.11a1.21,1.21,0,0,1,1.38-.66L360,359.62a0.94,0.94,0,0,0-1.29.87v2.07h-1.33v-4h1.28a3.43,3.43,0,0,0,0,.58" transform="translate(-116.55 -107.55)"/><path class="d" d="M362.06,362.66a1.26,1.26,0,0,1-1.43-1.43v-1.7H360v-1h0.64v-1.06h1.3v1.06h0.95v1h-0.95v1.54c0,0.38.11,0.57,0.5,0.57a1.12,1.12,0,0,0,.39-0.06l0,1a2.69,2.69,0,0,1-.77.12" transform="translate(-116.55 -107.55)"/><path class="d" d="M367.55,361.58a1,1,0,0,0,0-2.07,1,1,0,0,0,0,2.07m-0.33-3.16a1.67,1.67,0,0,1,1.25.54v-2.52h1.33v6.12h-1.22a2.79,2.79,0,0,0,0-.53,1.54,1.54,0,0,1-1.32.64A2.14,2.14,0,0,1,367.21,358.42Z" transform="translate(-116.55 -107.55)"/><path class="d" d="M372.46,359.39a1.54,1.54,0,0,0-1,.41l-0.67-.72a2.59,2.59,0,0,1,1.8-.68c1.38,0,1.85.76,1.85,2.13v2h-1.21v-0.43h0a1.49,1.49,0,0,1-2.61-.74c0-1.21,1.34-1.33,2.59-1.36a0.62,0.62,0,0,0-.73-0.65m-0.06,2.38a0.79,0.79,0,0,0,.83-1c-0.62,0-1.41,0-1.41.55A0.47,0.47,0,0,0,372.39,361.77Z" transform="translate(-116.55 -107.55)"/><path class="d" d="M376.93,362.66a1.26,1.26,0,0,1-1.43-1.43v-1.7h-0.65v-1h0.64v-1.06h1.3v1.06h0.95v1h-0.95v1.54c0,0.38.11,0.57,0.5,0.57a1.12,1.12,0,0,0,.39-0.06l0,1a2.69,2.69,0,0,1-.77.12" transform="translate(-116.55 -107.55)"/><path class="d" d="M380.34,358.4c1.43,0,2.09,1,2,2.51h-2.92a0.91,0.91,0,0,0,1,.76,1,1,0,0,0,.89-0.42l0.92,0.58a2.09,2.09,0,0,1-1.83.86,2.15,2.15,0,1,1,0-4.29m0.8,1.68a0.84,0.84,0,0,0-1.43-.54,0.77,0.77,0,0,0-.28.54h1.71Z" transform="translate(-116.55 -107.55)"/><path class="d" d="M344.22,375.58a0.85,0.85,0,0,0-1.15,0c-0.68.71-.72,2.57-0.36,3.66a1,1,0,0,0,.94.81c1.21,0,1.21-1.83,1.1-3.13a2.3,2.3,0,0,0-.53-1.34m-2.41,3.3c-0.32-1.88,0-4.2,1.85-4.2,1.53,0,2,1.43,2,3a3.17,3.17,0,0,1-1.08,2.78,1.79,1.79,0,0,1-1.76,0A2.3,2.3,0,0,1,341.8,378.88Z" transform="translate(-116.55 -107.55)"/><path class="d" d="M348.95,378.6c0-1,0-2,0-2.88l-1.81,2.88h1.83m0.76,0h0.83v0.67h-0.83v1.29h-0.76v-1.29h-2.64v-0.71l2.44-3.73h1v3.77Z" transform="translate(-116.55 -107.55)"/><polyline class="d" points="234.88 273.28 234.31 273.09 236.79 267 237.37 267.21"/><path class="d" d="M356.93,375.58a0.85,0.85,0,0,0-1.15,0c-0.68.71-.72,2.57-0.36,3.66a1,1,0,0,0,.94.81c1.21,0,1.21-1.83,1.1-3.13a2.3,2.3,0,0,0-.53-1.34m-2.41,3.3c-0.32-1.88,0-4.2,1.85-4.2,1.53,0,2,1.43,2,3a3.17,3.17,0,0,1-1.08,2.78,1.79,1.79,0,0,1-1.76,0A2.3,2.3,0,0,1,354.52,378.88Z" transform="translate(-116.55 -107.55)"/><polyline class="d" points="245.29 273.01 244.51 273.01 244.51 270.63 244.51 268.24 243.42 269.14 242.96 268.6 244.59 267.28 245.29 267.28 245.29 270.15 245.29 273.01"/><polyline class="d" points="247.6 273.28 247.03 273.09 249.51 267 250.09 267.21"/><path class="d" d="M369.06,374.68a1.63,1.63,0,0,1,1.74,2.14,2.64,2.64,0,0,1-.85,1.22l-1.86,1.81h2.81v0.7h-3.74v-0.75l2.28-2.27a1.75,1.75,0,0,0,.63-1.22,0.94,0.94,0,0,0-1-1,1.08,1.08,0,0,0-1.08,1l-0.77-.13a1.76,1.76,0,0,1,1.85-1.52" transform="translate(-116.55 -107.55)"/><path class="d" d="M374.47,375.58a0.85,0.85,0,0,0-1.15,0c-0.68.71-.72,2.57-0.36,3.66a1,1,0,0,0,.94.81c1.21,0,1.21-1.83,1.1-3.13a2.3,2.3,0,0,0-.53-1.34m-2.41,3.3c-0.32-1.88,0-4.2,1.85-4.2,1.53,0,2,1.43,2,3a3.17,3.17,0,0,1-1.08,2.78,1.79,1.79,0,0,1-1.76,0A2.3,2.3,0,0,1,372.06,378.88Z" transform="translate(-116.55 -107.55)"/><polyline class="d" points="262.83 273.01 262.04 273.01 262.04 270.63 262.04 268.24 260.96 269.14 260.5 268.6 262.12 267.28 262.83 267.28 262.83 270.15 262.83 273.01"/><path class="d" d="M383.54,377.62a1.11,1.11,0,0,0-1.2,1.21,1.19,1.19,0,1,0,2.37,0,1.09,1.09,0,0,0-1.17-1.2m0,3.09a1.8,1.8,0,0,1-2-1.89,2.73,2.73,0,0,1,.56-1.63l1.5-2.37h0.93L383,377.14v0a1.45,1.45,0,0,1,.71-0.15,1.7,1.7,0,0,1,1.79,1.8A1.8,1.8,0,0,1,383.53,380.71Z" transform="translate(-116.55 -107.55)"/><polyline class="d" points="227.75 291.01 226.97 291.01 226.97 288.63 226.97 286.24 225.88 287.14 225.42 286.6 227.05 285.28 227.75 285.28 227.75 288.15 227.75 291.01"/><path class="d" d="M348.44,392.68a1.63,1.63,0,0,1,1.74,2.14,2.64,2.64,0,0,1-.85,1.22l-1.86,1.81h2.81v0.7h-3.74v-0.75l2.28-2.27a1.75,1.75,0,0,0,.63-1.22,0.94,0.94,0,0,0-1-1,1.08,1.08,0,0,0-1.08,1l-0.77-.13a1.76,1.76,0,0,1,1.85-1.52" transform="translate(-116.55 -107.55)"/><polyline class="d" points="234.88 291.28 234.31 291.09 236.79 285 237.37 285.21"/><path class="d" d="M356.93,393.58a0.85,0.85,0,0,0-1.15,0c-0.68.71-.72,2.57-0.36,3.66a1,1,0,0,0,.94.81c1.21,0,1.21-1.83,1.1-3.13a2.3,2.3,0,0,0-.53-1.34m-2.41,3.3c-0.32-1.88,0-4.2,1.85-4.2,1.53,0,2,1.43,2,3a3.17,3.17,0,0,1-1.08,2.78,1.79,1.79,0,0,1-1.76,0A2.3,2.3,0,0,1,354.52,396.88Z" transform="translate(-116.55 -107.55)"/><polyline class="d" points="245.29 291.01 244.51 291.01 244.51 288.63 244.51 286.24 243.42 287.14 242.96 286.6 244.59 285.28 245.29 285.28 245.29 288.15 245.29 291.01"/><polyline class="d" points="247.6 291.28 247.03 291.09 249.51 285 250.09 285.21"/><path class="d" d="M369.06,392.68a1.63,1.63,0,0,1,1.74,2.14,2.64,2.64,0,0,1-.85,1.22l-1.86,1.81h2.81v0.7h-3.74v-0.75l2.28-2.27a1.75,1.75,0,0,0,.63-1.22,0.94,0.94,0,0,0-1-1,1.08,1.08,0,0,0-1.08,1l-0.77-.13a1.76,1.76,0,0,1,1.85-1.52" transform="translate(-116.55 -107.55)"/><path class="d" d="M374.47,393.58a0.85,0.85,0,0,0-1.15,0c-0.68.71-.72,2.57-0.36,3.66a1,1,0,0,0,.94.81c1.21,0,1.21-1.83,1.1-3.13a2.3,2.3,0,0,0-.53-1.34m-2.41,3.3c-0.32-1.88,0-4.2,1.85-4.2,1.53,0,2,1.43,2,3a3.17,3.17,0,0,1-1.08,2.78,1.79,1.79,0,0,1-1.76,0A2.3,2.3,0,0,1,372.06,396.88Z" transform="translate(-116.55 -107.55)"/><polyline class="d" points="262.83 291.01 262.04 291.01 262.04 288.63 262.04 286.24 260.96 287.14 260.5 286.6 262.12 285.28 262.83 285.28 262.83 288.15 262.83 291.01"/><path class="d" d="M383.19,395.56a2.89,2.89,0,0,0-1.27.32l0.08-3h3.09v0.7h-2.37l0,1.51c1.4-.36,2.69.3,2.66,1.7a2,2,0,0,1-3.83.83l0.71-.28a1.18,1.18,0,0,0,1.12.77,1.13,1.13,0,0,0,1.2-1.23,1.19,1.19,0,0,0-1.34-1.26" transform="translate(-116.55 -107.55)"/><polyline class="d" points="33.76 309.01 32.97 309.01 32.97 306.63 32.97 304.24 31.89 305.14 31.43 304.6 33.05 303.28 33.76 303.28 33.76 306.15 33.76 309.01"/><path class="d" d="M155,414.6c0-1,0-2,0-2.88l-1.81,2.88H155m0.76,0h0.83v0.67h-0.83v1.29H155v-1.29h-2.64v-0.71l2.44-3.73h1v3.77Z" transform="translate(-116.55 -107.55)"/><polyline class="d" points="42.56 307.36 40.69 307.36 40.69 307.04 40.69 306.71 42.56 306.71 42.56 307.04 42.56 307.36"/><path class="d" d="M161.86,410.68a1.63,1.63,0,0,1,1.74,2.14,2.64,2.64,0,0,1-.85,1.22l-1.86,1.81h2.81v0.7H160v-0.75l2.28-2.27a1.75,1.75,0,0,0,.63-1.22,0.94,0.94,0,0,0-1-1,1.08,1.08,0,0,0-1.08,1l-0.77-.13a1.76,1.76,0,0,1,1.85-1.52" transform="translate(-116.55 -107.55)"/><path class="d" d="M167.27,411.58a0.85,0.85,0,0,0-1.15,0c-0.68.71-.72,2.57-0.36,3.66a1,1,0,0,0,.94.81c1.22,0,1.21-1.83,1.1-3.13a2.3,2.3,0,0,0-.53-1.34m-2.41,3.3c-0.32-1.88,0-4.2,1.85-4.2,1.53,0,2,1.43,2,3a3.17,3.17,0,0,1-1.08,2.78,1.79,1.79,0,0,1-1.76,0A2.3,2.3,0,0,1,164.86,414.88Z" transform="translate(-116.55 -107.55)"/><path class="d" d="M172,414.6c0-1,0-2,0-2.88l-1.81,2.88H172m0.76,0h0.83v0.67h-0.83v1.29H172v-1.29h-2.64v-0.71l2.44-3.73h1v3.77Z" transform="translate(-116.55 -107.55)"/><path class="d" d="M176.34,413.77a1.11,1.11,0,0,0,1.2-1.21,1.19,1.19,0,1,0-2.38,0,1.1,1.1,0,0,0,1.18,1.2m0-3.09a1.8,1.8,0,0,1,2,1.89,2.8,2.8,0,0,1-.55,1.63l-1.5,2.37h-0.93c0.5-.78,1.05-1.56,1.53-2.32a1.56,1.56,0,0,1-.72.15,1.67,1.67,0,0,1-1.79-1.8A1.8,1.8,0,0,1,176.35,410.68Z" transform="translate(-116.55 -107.55)"/><path class="d" d="M181.16,413.62a1.11,1.11,0,0,0-1.2,1.21,1.19,1.19,0,1,0,2.37,0,1.09,1.09,0,0,0-1.17-1.2m0,3.09a1.8,1.8,0,0,1-2-1.89,2.73,2.73,0,0,1,.56-1.63l1.5-2.37h0.93l-1.54,2.31v0a1.45,1.45,0,0,1,.71-0.15,1.7,1.7,0,0,1,1.79,1.8A1.8,1.8,0,0,1,181.15,416.71Z" transform="translate(-116.55 -107.55)"/><path class="d" d="M186,413.88A1.09,1.09,0,1,0,187.1,415a1,1,0,0,0-1.12-1.09m0-2.54a0.94,0.94,0,1,0,0,1.87A0.94,0.94,0,1,0,186,411.33Zm1.72,0.9a1.36,1.36,0,0,1-.88,1.31A1.43,1.43,0,0,1,187.9,415a1.94,1.94,0,0,1-3.85,0,1.44,1.44,0,0,1,1.09-1.46h0a1.29,1.29,0,0,1-.88-1.28A1.73,1.73,0,0,1,187.7,412.23Z" transform="translate(-116.55 -107.55)"/><path class="d" d="M220.2,414.6c0-1,0-2,0-2.88l-1.81,2.88h1.83m0.76,0h0.83v0.67H221v1.29H220.2v-1.29h-2.64v-0.71l2.44-3.73h1v3.77Z" transform="translate(-116.55 -107.55)"/><path class="d" d="M225,414.6c0-1,0-2,0-2.88l-1.81,2.88H225m0.76,0h0.83v0.67h-0.83v1.29H225v-1.29h-2.64v-0.71l2.44-3.73h1v3.77Z" transform="translate(-116.55 -107.55)"/><polyline class="d" points="114.56 303.99 112.27 309.01 111.37 309.01 113.75 303.98 110.91 303.98 110.91 303.63 110.91 303.28 114.56 303.28 114.56 303.64 114.56 303.99"/><polyline class="d" points="117.45 307.36 115.57 307.36 115.57 307.04 115.57 306.71 117.45 306.71 117.45 307.04 117.45 307.36"/><polyline class="d" points="121.98 303.99 119.68 309.01 118.78 309.01 121.17 303.98 118.32 303.98 118.32 303.63 118.32 303.28 121.98 303.28 121.98 303.64 121.98 303.99"/><path class="d" d="M241.59,413.88a1.09,1.09,0,1,0,1.12,1.09,1,1,0,0,0-1.12-1.09m0-2.54a0.94,0.94,0,1,0,0,1.87A0.94,0.94,0,1,0,241.59,411.33Zm1.72,0.9a1.36,1.36,0,0,1-.88,1.31,1.43,1.43,0,0,1,1.09,1.46,1.94,1.94,0,0,1-3.85,0,1.44,1.44,0,0,1,1.09-1.46h0a1.29,1.29,0,0,1-.88-1.28A1.73,1.73,0,0,1,243.31,412.23Z" transform="translate(-116.55 -107.55)"/><path class="d" d="M246.89,414.6c0-1,0-2,0-2.88l-1.81,2.88h1.83m0.76,0h0.83v0.67h-0.83v1.29h-0.76v-1.29h-2.64v-0.71l2.44-3.73h1v3.77Z" transform="translate(-116.55 -107.55)"/><polyline class="d" points="174.35 303.28 175.15 303.28 175.15 304.48 175.15 305.68 178.05 305.68 178.05 304.48 178.05 303.28 178.86 303.28 178.86 306.15 178.86 309.01 178.05 309.01 178.05 307.7 178.05 306.39 175.15 306.39 175.15 307.7 175.15 309.01 174.35 309.01 174.35 306.15 174.35 303.28"/><path class="d" d="M296.61,412.32c0-1.43,1.6-1.93,2.91-1.46a1.65,1.65,0,0,1,.7.48l-0.57.55a1.38,1.38,0,0,0-1.12-.53,1,1,0,0,0-1,1.32c0.45,0.66,1.61.61,2.21,1.12a1.44,1.44,0,0,1,.55,1.17c0,1.54-1.67,2.07-3,1.53a2,2,0,0,1-.83-0.62l0.62-.53a1.6,1.6,0,0,0,1.28.67,1,1,0,0,0,1-1.42c-0.4-.71-1.68-0.61-2.27-1.17a1.44,1.44,0,0,1-.47-1.12" transform="translate(-116.55 -107.55)"/><path class="d" d="M302.51,414.45h2.15l-1.07-2.69m-1.94,4.8h-0.89l2.49-5.73H304l2.46,5.73h-0.91l-0.58-1.41h-2.72Z" transform="translate(-116.55 -107.55)"/><path class="d" d="M344.22,411.58a0.85,0.85,0,0,0-1.15,0c-0.68.71-.72,2.57-0.36,3.66a1,1,0,0,0,.94.81c1.21,0,1.21-1.83,1.1-3.13a2.3,2.3,0,0,0-.53-1.34m-2.41,3.3c-0.32-1.88,0-4.2,1.85-4.2,1.53,0,2,1.43,2,3a3.17,3.17,0,0,1-1.08,2.78,1.79,1.79,0,0,1-1.76,0A2.3,2.3,0,0,1,341.8,414.88Z" transform="translate(-116.55 -107.55)"/><path class="d" d="M349.46,415c0-.87-0.77-1.09-1.68-1.06v-0.65c0.85,0,1.53-.15,1.53-1a0.92,0.92,0,0,0-1-.95,1,1,0,0,0-1,.7l-0.71-.25a1.81,1.81,0,0,1,1.75-1.11,1.53,1.53,0,0,1,1.77,1.56,1.34,1.34,0,0,1-1,1.32,1.36,1.36,0,0,1,1.17,1.4,1.7,1.7,0,0,1-1.92,1.75,1.89,1.89,0,0,1-2-1.26l0.73-.24a1.21,1.21,0,0,0,1.21.84,1,1,0,0,0,1.15-1.09" transform="translate(-116.55 -107.55)"/><polyline class="d" points="234.88 309.28 234.31 309.09 236.79 303 237.37 303.21"/><polyline class="d" points="240.47 309.01 239.69 309.01 239.69 306.63 239.69 304.24 238.6 305.14 238.14 304.6 239.77 303.28 240.47 303.28 240.47 306.15 240.47 309.01"/><path class="d" d="M361.66,414.6c0-1,0-2,0-2.88l-1.81,2.88h1.83m0.76,0h0.83v0.67h-0.83v1.29h-0.76v-1.29H359v-0.71l2.44-3.73h1v3.77Z" transform="translate(-116.55 -107.55)"/><polyline class="d" points="247.6 309.28 247.03 309.09 249.51 303 250.09 303.21"/><path class="d" d="M369.06,410.68a1.63,1.63,0,0,1,1.74,2.14,2.64,2.64,0,0,1-.85,1.22l-1.86,1.81h2.81v0.7h-3.74v-0.75l2.28-2.27a1.75,1.75,0,0,0,.63-1.22,0.94,0.94,0,0,0-1-1,1.08,1.08,0,0,0-1.08,1l-0.77-.13a1.76,1.76,0,0,1,1.85-1.52" transform="translate(-116.55 -107.55)"/><path class="d" d="M374.47,411.58a0.85,0.85,0,0,0-1.15,0c-0.68.71-.72,2.57-0.36,3.66a1,1,0,0,0,.94.81c1.21,0,1.21-1.83,1.1-3.13a2.3,2.3,0,0,0-.53-1.34m-2.41,3.3c-0.32-1.88,0-4.2,1.85-4.2,1.53,0,2,1.43,2,3a3.17,3.17,0,0,1-1.08,2.78,1.79,1.79,0,0,1-1.76,0A2.3,2.3,0,0,1,372.06,414.88Z" transform="translate(-116.55 -107.55)"/><polyline class="d" points="262.83 309.01 262.04 309.01 262.04 306.63 262.04 304.24 260.96 305.14 260.5 304.6 262.12 303.28 262.83 303.28 262.83 306.15 262.83 309.01"/><path class="d" d="M383.54,413.62a1.11,1.11,0,0,0-1.2,1.21,1.19,1.19,0,1,0,2.37,0,1.09,1.09,0,0,0-1.17-1.2m0,3.09a1.8,1.8,0,0,1-2-1.89,2.73,2.73,0,0,1,.56-1.63l1.5-2.37h0.93L383,413.14v0a1.45,1.45,0,0,1,.71-0.15,1.7,1.7,0,0,1,1.79,1.8A1.8,1.8,0,0,1,383.53,416.71Z" transform="translate(-116.55 -107.55)"/><path class="c" d="M153,226.71h-14.4a3.58,3.58,0,0,0-3.6,3.6V302.4a3.61,3.61,0,0,0,3.6,3.6h90.72a3.61,3.61,0,0,1,3.6,3.6V351" transform="translate(-116.55 -107.55)"/><rect class="d" x="36.4" y="118.71" width="0.27" height="0.9"/><polygon class="d" points="116.33 243.45 114.25 237.01 118.39 237.01 116.33 243.45"/><path class="d" d="M231.39,345l1.49,4.54,1.49-4.54h-3Zm2,6h-0.94l-2.25-6.88h5.4Z" transform="translate(-116.55 -107.55)"/><path class="c" d="M135,115.11H120.6a3.58,3.58,0,0,0-3.6,3.6V320.4a3.61,3.61,0,0,0,3.6,3.6h42.79a3.61,3.61,0,0,1,3.6,3.6V351" transform="translate(-116.55 -107.55)"/><rect class="d" x="18.45" y="7.11" width="0.23" height="0.9"/><polygon class="d" points="50.45 243.45 48.38 237.01 52.52 237.01 50.45 243.45"/><path class="d" d="M165.51,345l1.49,4.54,1.48-4.54h-3Zm2,6h-0.94l-2.25-6.88h5.4Z" transform="translate(-116.55 -107.55)"/></svg>