<?xml version="1.0" encoding="utf-8"?>
<!-- Generator: Adobe Illustrator 22.0.1, SVG Export Plug-In . SVG Version: 6.00 Build 0)  -->
<svg version="1.1" id="Layer_1" xmlns="http://www.w3.org/2000/svg" xmlns:xlink="http://www.w3.org/1999/xlink" x="0px" y="0px"
	 viewBox="0 0 1211 1293" style="enable-background:new 0 0 1211 1293;" xml:space="preserve">
<style type="text/css">
	.st0{fill:none;stroke:#898989;stroke-linecap:round;stroke-dasharray:10,10;}
	.st1{fill:#E6F3FF;stroke:#FFFFFF;stroke-width:25;}
	.st2{fill:#045996;}
	.st3{fill:#F5FAFF;}
	.st4{fill:none;stroke:#E6F3FF;stroke-width:3;stroke-opacity:0.6;}
	.st5{fill:#E6F3FF;}
	.st6{fill:#50A7E6;}
	.st7{fill:#4F4F4F;}
	.st8{fill:none;stroke:#045996;stroke-width:2.8;}
	.st9{fill:#E6F3FF;stroke:#50A7E6;stroke-width:3;}
	.st10{fill:#E6F3FF;stroke:#045996;stroke-width:3;}
	.st11{fill:none;stroke:#50A7E6;stroke-width:3;}
	.st12{fill:none;stroke:#045996;stroke-width:2.8;stroke-linecap:round;}
	.st13{fill:#E6F3FF;stroke:#50A7E6;stroke-width:2;}
	.st14{fill:#FFFFFF;}
	.st15{fill:#E6F3FF;stroke:#50A7E6;stroke-width:2.8;}
	.st16{fill:#FFFFFF;stroke:#50A7E6;stroke-width:2.8;}
	.st17{fill:#FFFFFF;filter:url(#Adobe_OpacityMaskFilter);}
	.st18{mask:url(#path-48-inside-1_1_);fill:#E6F3FF;stroke:#50A7E6;stroke-width:5.6;}
	.st19{fill:#FFFFFF;filter:url(#Adobe_OpacityMaskFilter_1_);}
	.st20{mask:url(#path-49-inside-2_1_);fill:#E6F3FF;stroke:#50A7E6;stroke-width:5.6;}
	.st21{fill:#FFFFFF;filter:url(#Adobe_OpacityMaskFilter_2_);}
	.st22{mask:url(#path-50-inside-3_1_);fill:#E6F3FF;stroke:#50A7E6;stroke-width:5.6;}
	.st23{fill:#FFFFFF;filter:url(#Adobe_OpacityMaskFilter_3_);}
	.st24{mask:url(#path-51-inside-4_1_);fill:#E6F3FF;stroke:#50A7E6;stroke-width:5.6;}
	.st25{fill:#045996;stroke:#045996;stroke-width:0.2;}
	.st26{fill:none;stroke:#FFFFFF;}
</style>
<path class="st0" d="M608.5,362v294.7 M833.4,473.1L608.5,656.7 M889,722.8l-280.5-66 M733.3,923L608.5,656.7 M483.7,923
	l124.8-266.3 M328,722.8l280.5-66 M383.6,473.1l224.9,183.6"/>
<path class="st1" d="M613.4,520.7l-5.4-2.6l-5.4,2.6L508,566.5l-5.4,2.6l-1.3,5.9l-23.4,102.8l-1.3,5.8l3.7,4.7l65.5,82.4l3.8,4.7h6
	h105h6l3.8-4.7l65.5-82.4l3.7-4.7l-1.3-5.8L714.8,575l-1.3-5.9l-5.4-2.6L613.4,520.7z"/>
<path class="st2" d="M554.9,678c-0.5,0-0.9-0.1-1.2-0.4c-0.3-0.3-0.4-0.7-0.4-1.2v-47c0-0.5,0.1-0.9,0.4-1.2
	c0.3-0.3,0.7-0.5,1.2-0.5h3.6c0.5,0,0.9,0.2,1.2,0.5c0.3,0.3,0.5,0.7,0.5,1.2v17.9l19.2-18.4c0.8-0.8,1.7-1.2,2.8-1.2h3.9
	c0.4,0,0.7,0.1,1,0.4c0.3,0.3,0.4,0.6,0.4,1c0,0.4-0.1,0.7-0.3,0.9l-22.2,21.7l23.7,23.8c0.2,0.3,0.4,0.6,0.4,1s-0.1,0.7-0.4,1
	c-0.3,0.3-0.6,0.4-1,0.4h-4c-1.1,0-2-0.4-2.8-1.2l-20.6-20.2v19.8c0,0.5-0.2,0.9-0.5,1.2c-0.3,0.3-0.7,0.4-1.2,0.4H554.9z"/>
<path class="st2" d="M605.5,678.7c-2.4,0-4.5-0.5-6.6-1.4c-2-1-3.6-2.3-4.8-3.9c-1.2-1.7-1.7-3.5-1.7-5.5c0-3.2,1.3-5.8,3.9-7.8
	c2.6-2.1,6.2-3.4,10.7-4l10.7-1.5v-2.1c0-4.9-2.8-7.3-8.4-7.3c-2.1,0-3.8,0.5-5.2,1.4c-1.3,0.9-2.4,1.9-3,3.1
	c-0.1,0.4-0.3,0.7-0.6,0.9c-0.2,0.2-0.5,0.3-0.9,0.3h-3.1c-0.4,0-0.8-0.1-1.2-0.4c-0.3-0.3-0.4-0.7-0.4-1.2c0-1.2,0.6-2.4,1.6-3.9
	c1.1-1.5,2.7-2.8,4.8-3.8c2.2-1.1,4.8-1.7,8-1.7c5.4,0,9.2,1.3,11.6,3.8c2.4,2.5,3.5,5.6,3.5,9.4v23.3c0,0.5-0.2,0.9-0.5,1.2
	c-0.3,0.3-0.7,0.4-1.2,0.4h-3.3c-0.5,0-0.9-0.1-1.2-0.4c-0.3-0.3-0.4-0.7-0.4-1.2v-3.1c-1.1,1.5-2.6,2.8-4.6,3.9
	C611.2,678.2,608.6,678.7,605.5,678.7z M607,673.3c3.1,0,5.7-1,7.6-3c2-2.1,3-5,3-8.9v-2l-8.4,1.2c-3.4,0.5-6,1.3-7.7,2.4
	c-1.7,1.1-2.6,2.5-2.6,4.2c0,1.9,0.8,3.4,2.4,4.5C603,672.8,604.9,673.3,607,673.3z"/>
<path class="st2" d="M645.2,678.7c-2.4,0-4.5-0.5-6.6-1.4c-2-1-3.6-2.3-4.8-3.9c-1.2-1.7-1.7-3.5-1.7-5.5c0-3.2,1.3-5.8,3.9-7.8
	c2.6-2.1,6.2-3.4,10.7-4l10.7-1.5v-2.1c0-4.9-2.8-7.3-8.4-7.3c-2.1,0-3.8,0.5-5.2,1.4c-1.3,0.9-2.4,1.9-3,3.1
	c-0.1,0.4-0.3,0.7-0.6,0.9c-0.2,0.2-0.5,0.3-0.9,0.3h-3.1c-0.4,0-0.8-0.1-1.2-0.4c-0.3-0.3-0.4-0.7-0.4-1.2c0-1.2,0.6-2.4,1.6-3.9
	c1.1-1.5,2.7-2.8,4.8-3.8c2.2-1.1,4.8-1.7,8-1.7c5.4,0,9.2,1.3,11.6,3.8c2.4,2.5,3.5,5.6,3.5,9.4v23.3c0,0.5-0.2,0.9-0.5,1.2
	c-0.3,0.3-0.7,0.4-1.2,0.4h-3.3c-0.5,0-0.9-0.1-1.2-0.4c-0.3-0.3-0.4-0.7-0.4-1.2v-3.1c-1.1,1.5-2.6,2.8-4.6,3.9
	C650.9,678.2,648.4,678.7,645.2,678.7z M646.8,673.3c3.1,0,5.7-1,7.6-3c2-2.1,3-5,3-8.9v-2l-8.4,1.2c-3.4,0.5-6,1.3-7.7,2.4
	c-1.7,1.1-2.6,2.5-2.6,4.2c0,1.9,0.8,3.4,2.4,4.5C642.7,672.8,644.6,673.3,646.8,673.3z"/>
<path class="st3" d="M1014,207l85.2,41l21.1,92.2l-59,74h-94.6l-59-74l21-92.2L1014,207z"/>
<path class="st4" d="M1015.2,186.6l-0.7-0.3l-0.7,0.3l-98.1,47.3l-0.7,0.3l-0.2,0.7l-24.2,106.2l-0.2,0.7l0.5,0.6l67.9,85.1l0.5,0.6
	h0.7h108.9h0.7l0.5-0.6l67.9-85.1l0.4-0.6l-0.2-0.7l-24.2-106.2l-0.2-0.7l-0.7-0.3L1015.2,186.6z"/>
<path class="st2" d="M1024.5,294.7L1024.5,294.7l-2.7,0.9c-0.2,0.1-0.4,0.1-0.5,0.1c-0.9,0-1.6-0.7-1.6-1.6v-19.3
	c0-0.9,0.7-1.6,1.6-1.6h51.5c0.9,0,1.7,0.7,1.7,1.6v103.1c0,0.9-0.7,1.6-1.7,1.6H969.7c-0.9,0-1.6-0.7-1.6-1.6v-51.6
	c0-0.9,0.7-1.6,1.6-1.6h19.3c0.2,0,0.4,0,0.5,0.1l0,0c0.9,0.3,1.3,1.2,1,2.1l0,0l-0.9,2.7l0,0c-0.4,1.2-0.4,2.6,0,3.8
	c1,3.2,4.5,4.9,7.7,3.9c3.2-1,4.9-4.5,3.9-7.7v0l-0.9-2.7c-0.1-0.2-0.1-0.3-0.1-0.5c0-0.9,0.7-1.6,1.6-1.6h17.2h0.5v-0.5V307
	c0-0.2,0-0.4,0.1-0.5l0,0c0.3-0.9,1.2-1.3,2.1-1l0,0l2.7,0.9v0c1.2,0.4,2.6,0.4,3.8,0c3.2-1,4.9-4.5,3.9-7.7
	C1031.2,295.4,1027.7,293.7,1024.5,294.7z M1019.7,358L1019.7,358c0.3-0.9,1.2-1.3,2.1-1l2.7,0.9v0c1.2,0.4,2.6,0.4,3.8,0
	c3.2-1,4.9-4.5,3.9-7.7c-1-3.2-4.5-4.9-7.7-3.9l0,0l-2.7,0.9c-0.2,0.1-0.4,0.1-0.5,0.1c-0.9,0-1.6-0.7-1.6-1.6v-17.2v-0.5h-0.5
	h-14.2h-0.7l0.2,0.7c0.6,1.8,0.6,3.8,0,5.6l0.5,0.1l-0.5-0.1c-1.6,4.9-6.8,7.7-11.8,6.1l-0.2,0.5l0.2-0.5c-4.9-1.6-7.7-6.8-6.1-11.8
	l0.2-0.7h-0.7h-14.2h-0.5v0.5v47.3v0.5h0.5h47.3h0.5v-0.5v-17.2C1019.7,358.3,1019.7,358.2,1019.7,358z M1022.9,375.7v0.5h0.5h46.8
	h0.5l0,0v-0.5h0.5v-47.3v-0.5h-0.5h-17.2c-0.2,0-0.3,0-0.5-0.1l0,0c-0.9-0.3-1.3-1.2-1-2.1l0.9-2.7v0c0.4-1.2,0.4-2.6,0-3.8
	c-1-3.2-4.5-4.9-7.7-3.9c-3.2,1-4.9,4.5-3.9,7.7v0l0.9,2.7c0.1,0.2,0.1,0.3,0.1,0.5c0,0.9-0.7,1.6-1.7,1.6h-17.2h-0.5v0.5v14.2v0.7
	l0.7-0.2c1.8-0.6,3.8-0.6,5.6,0l0.2-0.5l-0.2,0.5c4.9,1.6,7.7,6.8,6.1,11.8l0.5,0.1l-0.5-0.1c-1.5,4.9-6.8,7.7-11.8,6.1l-0.7-0.2
	v0.7V375.7z M1070.7,324.6h0.5v-0.5v-47.3v-0.5h-0.5h-47.3h-0.5v0.5v14.2v0.7l0.7-0.2c3.9-1.3,8.2,0.1,10.5,3.5
	c3,4.2,2,10.1-2.2,13.1l0,0c-2.4,1.8-5.5,2.2-8.3,1.3l-0.7-0.2v0.7v14.2v0.5h0.5h14.2h0.7l-0.2-0.7c-0.6-1.8-0.6-3.8,0-5.6l-0.5-0.2
	l0.5,0.2c1.6-4.9,6.8-7.7,11.8-6.1l0.2-0.5l-0.2,0.5c4.9,1.6,7.7,6.8,6.1,11.8l-0.2,0.7h0.7H1070.7z"/>
<path class="st5" d="M1006.2,270.8c-1.8-0.6-3.8,0.3-5.7,0.9v-17.6c0-1.2-0.9-2.1-2.1-2.1h-49.4c-1.1,0-2.1,0.9-2.1,2.1v50
	c0,1.2,0.9,1.2,2.1,1.2h17.4c-1.6,5.1-0.6,11.3,4.4,12.9c5,1.6,10.3-1.2,11.9-6.3c0.6-1.9-0.3-4.8-0.9-6.7h16.5c1.1,0,2.1,0,2.1-1.2
	v-18.5c5,1.6,10.3,1.5,11.9-3.6C1013.9,276.9,1011.1,272.4,1006.2,270.8z M1005,284.2c-1.1,0.4-2.2,0.4-3.3,0l-2.6-0.9
	c-1.1-0.4-2.2,0.2-2.6,1.3c-0.1,0.2-0.1,0.4-0.1,0.7V302h-16.5c-1.1,0-2.1,0.9-2.1,2.1c0,0.2,0,0.4,0.1,0.7l0.9,2.6
	c0.9,2.8-0.6,5.9-3.4,6.8c-2.8,0.9-5.8-0.6-6.7-3.5c-0.4-1.1-0.4-2.3,0-3.4l0.9-2.6c0.4-1.1-0.2-2.3-1.3-2.6
	c-0.2-0.1-0.4-0.1-0.6-0.1h-16.5v-45.9h45.2v16.7c0,1.2,0.9,2.1,2.1,2.1c0.2,0,0.4,0,0.6-0.1l2.6-0.9c2.8-0.9,5.8,0.6,6.7,3.5
	C1009.3,280.3,1007.8,283.3,1005,284.2z"/>
<path class="st5" d="M1005,284.2c-1.1,0.4-2.2,0.4-3.3,0l-2.6-0.9c-1.1-0.4-2.2,0.2-2.6,1.3c-0.1,0.2-0.1,0.4-0.1,0.7V302h-16.5
	c-1.1,0-2.1,0.9-2.1,2.1c0,0.2,0,0.4,0.1,0.7l0.9,2.6c0.9,2.8-0.6,5.9-3.4,6.8c-2.8,0.9-5.8-0.6-6.7-3.5c-0.4-1.1-0.4-2.3,0-3.4
	l0.9-2.6c0.4-1.1-0.2-2.3-1.3-2.6c-0.2-0.1-0.4-0.1-0.6-0.1h-16.5v-45.9h45.2v16.7c0,1.2,0.9,2.1,2.1,2.1c0.2,0,0.4,0,0.6-0.1
	l2.6-0.9c2.8-0.9,5.8,0.6,6.7,3.5C1009.3,280.3,1007.8,283.3,1005,284.2z"/>
<path class="st6" d="M1001.1,270.8v-17.6c0-0.7-0.6-1.3-1.3-1.3h-51.6c-0.7,0-1.3,0.6-1.3,1.3v51.6c0,0.7,0.6,1.3,1.3,1.3h17.6
	l-0.4,1.2c-1.5,4.7,1.1,9.8,5.9,11.3c4.7,1.5,9.8-1.1,11.3-5.9c0.6-1.8,0.6-3.7,0-5.4l-0.4-1.2h17.6c0.7,0,1.3-0.6,1.3-1.3v-17.6
	l1.2,0.4c4.7,1.5,9.8-1.1,11.3-5.9c1.5-4.7-1.1-9.8-5.9-11.3c-1.8-0.6-3.7-0.6-5.4,0L1001.1,270.8z M998.6,303.6h-18.1
	c-0.2,0-0.3,0-0.5,0.1c-0.5,0.2-0.8,0.6-0.8,1.2c0,0.1,0,0.3,0.1,0.4l0.9,2.7c1.1,3.4-0.7,7.1-4.1,8.2c-3.4,1.1-7.1-0.7-8.2-4.1
	c-0.4-1.3-0.4-2.7,0-4l0,0l0.9-2.7c0.2-0.7-0.1-1.4-0.8-1.6c-0.1,0-0.3-0.1-0.4-0.1h-18.1v-49h49v18.1c0,0.7,0.6,1.3,1.3,1.3
	c0.1,0,0.3,0,0.4-0.1l2.7-0.9c3.4-1.1,7,0.7,8.2,4.1c1.1,3.4-0.7,7.1-4.1,8.2c-1.3,0.4-2.7,0.4-4,0l0,0l-2.7-0.9
	c-0.7-0.2-1.4,0.1-1.6,0.8c0,0.1-0.1,0.3-0.1,0.4V303.6z"/>
<path class="st7" d="M946.1,483c-0.2,0-0.4-0.1-0.6-0.2c-0.1-0.2-0.2-0.4-0.2-0.6v-23.5c0-0.3,0.1-0.5,0.2-0.6
	c0.2-0.2,0.4-0.3,0.6-0.3h1.8c0.4,0,0.7,0.2,0.9,0.6l7.6,14.5l7.7-14.5c0-0.1,0.1-0.3,0.3-0.4c0.2-0.1,0.4-0.2,0.6-0.2h1.8
	c0.3,0,0.5,0.1,0.6,0.3c0.2,0.1,0.3,0.3,0.3,0.6v23.5c0,0.2-0.1,0.4-0.3,0.6c-0.2,0.1-0.4,0.2-0.6,0.2H965c-0.2,0-0.4-0.1-0.6-0.2
	c-0.1-0.2-0.2-0.4-0.2-0.6v-17.7l-6,11.7c-0.2,0.5-0.6,0.8-1.2,0.8h-1.1c-0.5,0-0.9-0.3-1.2-0.8l-6-11.7v17.7c0,0.2-0.1,0.4-0.3,0.6
	c-0.1,0.1-0.3,0.2-0.6,0.2H946.1z"/>
<path class="st7" d="M981.1,483.4c-2.6,0-4.7-0.7-6.2-2.2c-1.4-1.5-2.2-3.5-2.3-5.9l0-1.5l0-1.5c0.1-2.4,0.9-4.4,2.3-5.9
	c1.5-1.5,3.5-2.3,6.1-2.3c2.6,0,4.7,0.8,6.1,2.3c1.5,1.5,2.2,3.5,2.3,5.9c0,0.3,0,0.8,0,1.5c0,0.8,0,1.3,0,1.5
	c-0.1,2.5-0.9,4.5-2.3,5.9C985.8,482.6,983.7,483.4,981.1,483.4z M981.1,480.6c1.5,0,2.7-0.5,3.6-1.4c0.9-1,1.4-2.3,1.4-4.1
	c0-0.2,0-0.7,0-1.4c0-0.7,0-1.1,0-1.4c-0.1-1.8-0.6-3.2-1.4-4.1c-0.9-1-2.1-1.4-3.6-1.4c-1.5,0-2.7,0.5-3.6,1.4
	c-0.9,1-1.4,2.3-1.4,4.1l0,1.4l0,1.4c0,1.8,0.5,3.2,1.4,4.1C978.4,480.1,979.6,480.6,981.1,480.6z"/>
<path class="st7" d="M1000.9,483.4c-2.5,0-4.4-0.8-5.7-2.4c-1.3-1.6-1.9-3.7-2-6.2l0-1.1l0-1.1c0.1-2.5,0.7-4.5,2-6.2
	c1.3-1.7,3.2-2.5,5.7-2.5c2.5,0,4.4,0.9,5.8,2.6v-8.3c0-0.2,0.1-0.4,0.2-0.6c0.2-0.2,0.4-0.3,0.6-0.3h1.7c0.2,0,0.4,0.1,0.6,0.3
	c0.2,0.1,0.2,0.3,0.2,0.6v23.9c0,0.2-0.1,0.4-0.2,0.6c-0.1,0.1-0.3,0.2-0.6,0.2h-1.6c-0.2,0-0.4-0.1-0.6-0.2
	c-0.1-0.2-0.2-0.4-0.2-0.6v-1.5C1005.5,482.5,1003.5,483.4,1000.9,483.4z M1001.7,480.4c1.7,0,2.9-0.5,3.7-1.6
	c0.8-1.1,1.3-2.4,1.4-3.9c0-0.3,0-0.7,0-1.4c0-0.7,0-1.1,0-1.4c-0.1-1.4-0.5-2.7-1.4-3.7c-0.9-1.1-2.1-1.6-3.7-1.6
	c-1.7,0-3,0.5-3.7,1.6c-0.8,1.1-1.2,2.4-1.3,4.2l0,1C996.7,478.2,998.3,480.4,1001.7,480.4z"/>
<path class="st7" d="M1022.5,483.4c-2.3,0-4-0.7-5.3-2.2c-1.2-1.5-1.9-3.5-1.9-5.9v-10.2c0-0.2,0.1-0.4,0.2-0.6
	c0.2-0.2,0.4-0.3,0.6-0.3h1.8c0.2,0,0.4,0.1,0.6,0.3c0.2,0.1,0.2,0.3,0.2,0.6v10c0,3.6,1.6,5.4,4.7,5.4c1.5,0,2.7-0.5,3.6-1.4
	c0.9-1,1.3-2.3,1.3-4v-10c0-0.2,0.1-0.4,0.2-0.6c0.2-0.2,0.4-0.3,0.6-0.3h1.8c0.2,0,0.4,0.1,0.6,0.3c0.1,0.1,0.2,0.3,0.2,0.6v17.1
	c0,0.2-0.1,0.4-0.2,0.6c-0.2,0.1-0.3,0.2-0.6,0.2h-1.7c-0.2,0-0.4-0.1-0.6-0.2c-0.2-0.2-0.2-0.4-0.2-0.6v-1.6
	c-0.7,0.9-1.5,1.6-2.4,2.1C1025.1,483.1,1023.9,483.4,1022.5,483.4z"/>
<path class="st7" d="M1038,483c-0.2,0-0.5-0.1-0.6-0.2c-0.1-0.2-0.2-0.4-0.2-0.6v-23.9c0-0.2,0.1-0.4,0.2-0.6
	c0.2-0.2,0.4-0.3,0.6-0.3h1.7c0.2,0,0.4,0.1,0.6,0.3c0.2,0.1,0.3,0.3,0.3,0.6v23.9c0,0.2-0.1,0.4-0.3,0.6c-0.1,0.1-0.3,0.2-0.6,0.2
	H1038z"/>
<path class="st7" d="M1051.1,483.4c-1.2,0-2.3-0.2-3.3-0.7c-1-0.5-1.8-1.1-2.4-1.9c-0.6-0.8-0.9-1.8-0.9-2.8c0-1.6,0.7-2.9,2-3.9
	c1.3-1,3.1-1.7,5.3-2l5.4-0.8v-1c0-2.4-1.4-3.7-4.2-3.7c-1.1,0-1.9,0.2-2.6,0.7c-0.7,0.4-1.2,0.9-1.5,1.5c-0.1,0.2-0.2,0.4-0.3,0.5
	c-0.1,0.1-0.2,0.1-0.4,0.1h-1.5c-0.2,0-0.4-0.1-0.6-0.2c-0.1-0.2-0.2-0.4-0.2-0.6c0-0.6,0.3-1.2,0.8-1.9c0.5-0.7,1.3-1.4,2.4-1.9
	c1.1-0.6,2.4-0.8,4-0.8c2.7,0,4.6,0.6,5.8,1.9c1.2,1.2,1.8,2.8,1.8,4.7v11.7c0,0.2-0.1,0.4-0.2,0.6c-0.1,0.1-0.3,0.2-0.6,0.2h-1.7
	c-0.2,0-0.4-0.1-0.6-0.2c-0.2-0.2-0.2-0.4-0.2-0.6v-1.5c-0.5,0.8-1.3,1.4-2.3,1.9C1054,483.1,1052.7,483.4,1051.1,483.4z
	 M1051.9,480.7c1.6,0,2.8-0.5,3.8-1.5c1-1,1.5-2.5,1.5-4.4v-1l-4.2,0.6c-1.7,0.2-3,0.6-3.9,1.2c-0.9,0.6-1.3,1.3-1.3,2.1
	c0,1,0.4,1.7,1.2,2.2C1049.9,480.4,1050.8,480.7,1051.9,480.7z"/>
<path class="st7" d="M1066.6,483c-0.2,0-0.4-0.1-0.6-0.2c-0.2-0.2-0.2-0.4-0.2-0.6v-17c0-0.2,0.1-0.4,0.2-0.6
	c0.2-0.2,0.4-0.3,0.6-0.3h1.7c0.2,0,0.4,0.1,0.6,0.3c0.2,0.2,0.2,0.4,0.2,0.6v1.6c1-1.6,2.7-2.4,5-2.4h1.4c0.2,0,0.4,0.1,0.6,0.3
	c0.2,0.1,0.2,0.3,0.2,0.6v1.5c0,0.2-0.1,0.4-0.2,0.6c-0.2,0.1-0.3,0.2-0.6,0.2h-2.2c-1.3,0-2.3,0.4-3.1,1.2
	c-0.7,0.7-1.1,1.8-1.1,3.1v10.6c0,0.2-0.1,0.4-0.3,0.6c-0.2,0.1-0.4,0.2-0.6,0.2H1066.6z"/>
<path class="st7" d="M1077.3,485.7c-0.2,0-0.3-0.1-0.5-0.2c-0.1-0.1-0.1-0.3-0.1-0.5l0.8-5.1c0.1-0.7,0.4-1,1-1h2.4
	c0.2,0,0.3,0.1,0.4,0.2c0.1,0.1,0.2,0.3,0.2,0.4c0,0.1,0,0.3-0.1,0.6l-1.9,4.9c-0.1,0.3-0.2,0.5-0.4,0.6c-0.2,0.1-0.4,0.2-0.7,0.2
	H1077.3z"/>
<path class="st7" d="M911.3,527.4c-2.6,0-4.6-0.7-6-2.2c-1.4-1.5-2.2-3.5-2.3-6.1l0-1.4l0-1.4c0.1-2.6,0.9-4.6,2.3-6.1
	c1.5-1.5,3.5-2.2,6-2.2c1.7,0,3.2,0.3,4.4,0.9c1.2,0.6,2.1,1.4,2.7,2.3c0.6,0.9,0.9,1.8,1,2.7c0,0.2,0,0.4-0.2,0.6
	c-0.2,0.1-0.4,0.2-0.6,0.2h-1.7c-0.2,0-0.4,0-0.5-0.1s-0.2-0.3-0.4-0.6c-0.4-1.2-1-2-1.7-2.4c-0.7-0.5-1.7-0.8-2.8-0.8
	c-1.5,0-2.7,0.5-3.6,1.4c-0.9,0.9-1.3,2.3-1.4,4.2l0,1.3l0,1.2c0.1,1.9,0.5,3.3,1.4,4.2c0.9,0.9,2.1,1.4,3.6,1.4
	c1.1,0,2.1-0.2,2.8-0.7c0.7-0.5,1.3-1.3,1.7-2.5c0.1-0.3,0.2-0.5,0.4-0.6c0.1-0.1,0.3-0.2,0.5-0.2h1.7c0.2,0,0.4,0.1,0.6,0.3
	c0.2,0.1,0.2,0.3,0.2,0.6c0,0.9-0.4,1.8-1,2.7c-0.6,0.9-1.5,1.7-2.7,2.3C914.6,527,913.1,527.4,911.3,527.4z"/>
<path class="st7" d="M930.6,527.4c-2.3,0-4-0.7-5.3-2.2c-1.2-1.5-1.9-3.5-1.9-5.9v-10.2c0-0.2,0.1-0.4,0.2-0.6
	c0.2-0.2,0.4-0.3,0.6-0.3h1.8c0.2,0,0.4,0.1,0.6,0.3c0.2,0.1,0.3,0.3,0.3,0.6v10c0,3.6,1.6,5.4,4.7,5.4c1.5,0,2.7-0.5,3.6-1.4
	c0.9-1,1.3-2.3,1.3-4v-10c0-0.2,0.1-0.4,0.2-0.6c0.2-0.2,0.4-0.3,0.6-0.3h1.8c0.2,0,0.4,0.1,0.6,0.3c0.1,0.1,0.2,0.3,0.2,0.6v17.1
	c0,0.2-0.1,0.4-0.2,0.6c-0.1,0.1-0.3,0.2-0.6,0.2h-1.7c-0.2,0-0.4-0.1-0.6-0.2c-0.1-0.2-0.2-0.4-0.2-0.6v-1.6
	c-0.7,0.9-1.5,1.6-2.4,2.1C933.2,527.1,932,527.4,930.6,527.4z"/>
<path class="st7" d="M951.8,527.4c-1.7,0-3.1-0.3-4.2-0.8c-1.1-0.6-2-1.2-2.6-1.9c-0.6-0.7-0.8-1.3-0.8-1.7c0-0.2,0.1-0.4,0.3-0.5
	c0.2-0.1,0.4-0.2,0.6-0.2h1.6c0.2,0,0.5,0.1,0.6,0.4c0.6,0.7,1.2,1.2,1.9,1.6c0.7,0.4,1.6,0.6,2.7,0.6c1.2,0,2.3-0.2,3-0.7
	c0.8-0.5,1.2-1.2,1.2-2.1c0-0.6-0.2-1-0.5-1.4c-0.3-0.4-0.9-0.7-1.7-1c-0.8-0.3-1.9-0.6-3.5-0.9c-2.1-0.5-3.6-1.1-4.5-2
	c-0.9-0.9-1.3-2-1.3-3.3c0-0.9,0.3-1.8,0.8-2.6c0.6-0.8,1.3-1.5,2.4-2c1.1-0.5,2.3-0.8,3.8-0.8c1.5,0,2.8,0.3,3.9,0.8
	s1.9,1.1,2.4,1.8c0.6,0.7,0.8,1.2,0.8,1.7c0,0.2-0.1,0.4-0.3,0.5c-0.1,0.1-0.3,0.2-0.5,0.2h-1.5c-0.3,0-0.5-0.1-0.7-0.4
	c-0.4-0.5-0.7-0.8-1-1c-0.3-0.3-0.7-0.5-1.2-0.7c-0.5-0.2-1.2-0.3-1.9-0.3c-1.2,0-2,0.3-2.7,0.8c-0.6,0.5-0.9,1.1-0.9,1.9
	c0,0.5,0.1,0.9,0.4,1.3c0.3,0.3,0.8,0.6,1.5,0.9c0.8,0.3,1.9,0.6,3.3,0.9c2.3,0.5,3.9,1.2,4.8,2.1c1,0.9,1.4,2,1.4,3.4
	c0,1-0.3,2-0.9,2.8c-0.6,0.8-1.5,1.5-2.7,2C954.8,527.1,953.4,527.4,951.8,527.4z"/>
<path class="st7" d="M970.9,527c-3.8,0-5.7-2.1-5.7-6.3v-9.5h-2.8c-0.2,0-0.4-0.1-0.6-0.2c-0.1-0.2-0.2-0.4-0.2-0.6v-1.2
	c0-0.2,0.1-0.4,0.2-0.6c0.2-0.2,0.4-0.3,0.6-0.3h2.8v-6c0-0.2,0.1-0.4,0.2-0.6c0.2-0.2,0.4-0.3,0.6-0.3h1.7c0.2,0,0.4,0.1,0.6,0.3
	c0.2,0.1,0.3,0.3,0.3,0.6v6h4.5c0.2,0,0.4,0.1,0.6,0.3c0.2,0.1,0.3,0.3,0.3,0.6v1.2c0,0.2-0.1,0.4-0.3,0.6c-0.1,0.1-0.3,0.2-0.6,0.2
	h-4.5v9.3c0,1.2,0.2,2.1,0.6,2.7c0.4,0.6,1.1,0.9,2,0.9h2.2c0.2,0,0.4,0.1,0.6,0.3c0.2,0.1,0.3,0.3,0.3,0.6v1.3
	c0,0.2-0.1,0.4-0.3,0.6c-0.1,0.1-0.3,0.2-0.6,0.2H970.9z"/>
<path class="st7" d="M985.3,527.4c-2.6,0-4.7-0.7-6.2-2.2c-1.4-1.5-2.2-3.5-2.3-5.9l0-1.5l0-1.5c0.1-2.4,0.9-4.4,2.3-5.9
	c1.5-1.5,3.5-2.3,6.1-2.3c2.6,0,4.7,0.8,6.1,2.3c1.5,1.5,2.2,3.5,2.3,5.9c0,0.3,0,0.8,0,1.5s0,1.3,0,1.5c-0.1,2.5-0.9,4.5-2.3,5.9
	C990,526.6,988,527.4,985.3,527.4z M985.3,524.6c1.5,0,2.7-0.5,3.6-1.4c0.9-1,1.4-2.3,1.4-4.1c0-0.2,0-0.7,0-1.4s0-1.1,0-1.4
	c-0.1-1.8-0.6-3.2-1.4-4.1c-0.9-1-2.1-1.4-3.6-1.4c-1.5,0-2.7,0.5-3.6,1.4c-0.9,1-1.4,2.3-1.4,4.1l0,1.4l0,1.4
	c0,1.8,0.5,3.2,1.4,4.1C982.6,524.1,983.8,524.6,985.3,524.6z"/>
<path class="st7" d="M999.2,527c-0.2,0-0.4-0.1-0.6-0.2c-0.1-0.2-0.2-0.4-0.2-0.6v-17.1c0-0.2,0.1-0.4,0.2-0.6
	c0.2-0.2,0.4-0.3,0.6-0.3h1.6c0.2,0,0.4,0.1,0.6,0.3c0.2,0.1,0.3,0.3,0.3,0.6v1.3c1.2-1.6,3-2.4,5.2-2.4c2.7,0,4.5,1.1,5.7,3.3
	c0.6-1,1.4-1.8,2.5-2.4c1-0.6,2.2-0.9,3.6-0.9c2,0,3.6,0.7,4.8,2c1.2,1.3,1.9,3.3,1.9,5.8v10.4c0,0.2-0.1,0.4-0.3,0.6
	c-0.1,0.1-0.3,0.2-0.6,0.2h-1.7c-0.2,0-0.5-0.1-0.6-0.2c-0.1-0.2-0.2-0.4-0.2-0.6v-10.1c0-1.9-0.4-3.2-1.2-4
	c-0.8-0.8-1.8-1.2-3.1-1.2c-1.1,0-2.1,0.4-2.9,1.3c-0.8,0.8-1.2,2.1-1.2,4v10.1c0,0.2-0.1,0.4-0.2,0.6c-0.1,0.1-0.3,0.2-0.6,0.2
	h-1.7c-0.2,0-0.4-0.1-0.6-0.2c-0.2-0.2-0.2-0.4-0.2-0.6v-10.1c0-1.9-0.4-3.2-1.2-4c-0.8-0.8-1.8-1.2-3-1.2c-1.1,0-2.1,0.4-2.9,1.3
	c-0.8,0.8-1.2,2.1-1.2,4v10.1c0,0.2-0.1,0.4-0.2,0.6c-0.1,0.1-0.3,0.2-0.6,0.2H999.2z"/>
<path class="st7" d="M1030.9,504.8c-0.2,0-0.4-0.1-0.6-0.2c-0.1-0.2-0.2-0.4-0.2-0.6V502c0-0.2,0.1-0.4,0.2-0.6
	c0.2-0.2,0.4-0.3,0.6-0.3h2.3c0.2,0,0.4,0.1,0.6,0.3s0.2,0.4,0.2,0.6v1.9c0,0.2-0.1,0.4-0.2,0.6c-0.2,0.1-0.4,0.2-0.6,0.2H1030.9z
	 M1031.2,527c-0.2,0-0.4-0.1-0.6-0.2c-0.2-0.2-0.2-0.4-0.2-0.6v-17.1c0-0.2,0.1-0.4,0.2-0.6c0.2-0.2,0.4-0.3,0.6-0.3h1.7
	c0.2,0,0.4,0.1,0.6,0.3c0.2,0.1,0.3,0.3,0.3,0.6v17.1c0,0.2-0.1,0.4-0.3,0.6c-0.1,0.1-0.3,0.2-0.6,0.2H1031.2z"/>
<path class="st7" d="M1038.7,527c-0.2,0-0.4-0.1-0.6-0.2c-0.2-0.2-0.2-0.4-0.2-0.6v-1.3c0-0.2,0.1-0.4,0.2-0.6
	c0.1-0.2,0.2-0.4,0.4-0.6l9.9-12.6h-9.3c-0.2,0-0.4-0.1-0.6-0.2c-0.1-0.2-0.2-0.4-0.2-0.6v-1.2c0-0.2,0.1-0.4,0.2-0.6
	c0.2-0.2,0.4-0.3,0.6-0.3h12.8c0.2,0,0.4,0.1,0.6,0.3c0.2,0.1,0.2,0.3,0.2,0.6v1.3c0,0.2-0.1,0.4-0.2,0.6c-0.1,0.2-0.2,0.4-0.3,0.5
	l-9.8,12.6h10.2c0.3,0,0.5,0.1,0.6,0.2c0.1,0.1,0.2,0.3,0.2,0.6v1.2c0,0.2-0.1,0.4-0.2,0.6c-0.2,0.1-0.3,0.2-0.6,0.2H1038.7z"/>
<path class="st7" d="M1062.6,527.4c-1.2,0-2.3-0.2-3.3-0.7c-1-0.5-1.8-1.1-2.4-1.9c-0.6-0.8-0.9-1.8-0.9-2.8c0-1.6,0.6-2.9,1.9-3.9
	c1.3-1,3.1-1.7,5.3-2l5.4-0.8v-1c0-2.4-1.4-3.7-4.2-3.7c-1.1,0-1.9,0.2-2.6,0.7c-0.7,0.4-1.2,0.9-1.5,1.5c-0.1,0.2-0.2,0.4-0.3,0.5
	c-0.1,0.1-0.2,0.1-0.4,0.1h-1.5c-0.2,0-0.4-0.1-0.6-0.2c-0.1-0.2-0.2-0.4-0.2-0.6c0-0.6,0.3-1.2,0.8-1.9c0.5-0.7,1.3-1.4,2.4-1.9
	c1.1-0.6,2.4-0.8,4-0.8c2.7,0,4.6,0.6,5.8,1.9c1.2,1.2,1.8,2.8,1.8,4.7v11.7c0,0.2-0.1,0.4-0.2,0.6c-0.1,0.1-0.3,0.2-0.6,0.2h-1.7
	c-0.2,0-0.4-0.1-0.6-0.2c-0.2-0.2-0.2-0.4-0.2-0.6v-1.5c-0.5,0.8-1.3,1.4-2.3,1.9S1064.2,527.4,1062.6,527.4z M1063.3,524.7
	c1.6,0,2.8-0.5,3.8-1.5c1-1,1.5-2.5,1.5-4.4v-1l-4.2,0.6c-1.7,0.2-3,0.6-3.8,1.2c-0.9,0.6-1.3,1.3-1.3,2.1c0,1,0.4,1.7,1.2,2.2
	C1061.3,524.4,1062.3,524.7,1063.3,524.7z"/>
<path class="st7" d="M1086.5,527.4c-2.6,0-4.6-0.9-5.9-2.7v1.5c0,0.2-0.1,0.4-0.2,0.6c-0.2,0.1-0.3,0.2-0.6,0.2h-1.7
	c-0.2,0-0.4-0.1-0.6-0.2c-0.1-0.2-0.2-0.4-0.2-0.6v-23.9c0-0.2,0.1-0.4,0.2-0.6c0.2-0.2,0.4-0.3,0.6-0.3h1.8c0.2,0,0.4,0.1,0.6,0.3
	c0.2,0.1,0.2,0.3,0.2,0.6v8.3c1.4-1.8,3.4-2.6,5.8-2.6c2.5,0,4.4,0.8,5.7,2.5c1.3,1.6,2,3.7,2.1,6.2c0,0.3,0,0.6,0,1.1s0,0.8,0,1.1
	c-0.1,2.5-0.8,4.6-2.1,6.2C1090.9,526.5,1089,527.4,1086.5,527.4z M1085.7,524.4c1.7,0,2.9-0.5,3.7-1.6c0.8-1.1,1.2-2.4,1.3-4.2
	c0-0.2,0-0.6,0-1c0-4.5-1.7-6.8-5-6.8c-1.6,0-2.8,0.5-3.7,1.6c-0.9,1.1-1.3,2.3-1.4,3.7l0,1.4l0,1.4c0.1,1.5,0.5,2.8,1.3,3.9
	C1082.8,523.9,1084.1,524.4,1085.7,524.4z"/>
<path class="st7" d="M1099.5,527c-0.2,0-0.4-0.1-0.6-0.2c-0.1-0.2-0.2-0.4-0.2-0.6v-23.9c0-0.2,0.1-0.4,0.2-0.6
	c0.2-0.2,0.4-0.3,0.6-0.3h1.7c0.2,0,0.4,0.1,0.6,0.3c0.2,0.1,0.2,0.3,0.2,0.6v23.9c0,0.2-0.1,0.4-0.2,0.6c-0.1,0.1-0.3,0.2-0.6,0.2
	H1099.5z"/>
<path class="st7" d="M1114.9,527.4c-2.5,0-4.5-0.8-5.9-2.3c-1.5-1.5-2.3-3.6-2.4-6.3l0-1.2l0-1.2c0.2-2.6,1-4.7,2.4-6.2
	c1.5-1.5,3.4-2.3,5.9-2.3c2.7,0,4.7,0.9,6.2,2.6c1.5,1.7,2.2,4,2.2,6.8v0.6c0,0.2-0.1,0.4-0.2,0.6c-0.1,0.1-0.3,0.2-0.6,0.2H1110
	v0.3c0.1,1.6,0.5,2.9,1.4,4c0.9,1.1,2.1,1.6,3.5,1.6c1.1,0,2-0.2,2.7-0.6c0.7-0.5,1.2-0.9,1.6-1.4c0.2-0.3,0.4-0.5,0.5-0.5
	c0.1-0.1,0.3-0.1,0.6-0.1h1.8c0.2,0,0.4,0.1,0.5,0.2c0.2,0.1,0.2,0.3,0.2,0.5c0,0.5-0.3,1.2-1,1.9c-0.7,0.7-1.6,1.4-2.8,1.9
	C1117.8,527.1,1116.4,527.4,1114.9,527.4z M1119.8,516.3v-0.1c0-1.7-0.4-3-1.4-4c-0.9-1.1-2.1-1.6-3.6-1.6c-1.5,0-2.7,0.5-3.6,1.6
	c-0.9,1-1.3,2.4-1.3,4v0.1H1119.8z"/>
<path class="st3" d="M134,613l85.2,41l21,92.2l-59,74H86.7l-59-74l21-92.2L134,613z"/>
<path class="st4" d="M135.2,592.6l-0.7-0.3l-0.7,0.3l-98.1,47.3l-0.7,0.3l-0.2,0.7L10.7,747.1l-0.2,0.7l0.5,0.6l67.9,85.1l0.5,0.6
	H80H189h0.7l0.4-0.6l67.9-85.1l0.5-0.6l-0.2-0.7l-24.2-106.2l-0.2-0.7l-0.7-0.3L135.2,592.6z"/>
<path class="st8" d="M79.4,664.9c0-0.3,0.2-0.5,0.5-0.5h52.6c0.3,0,0.6,0.3,0.6,0.6v16.7c0,0.3-0.3,0.6-0.6,0.6H99.7
	c-1.3,0-2.3,1-2.3,2.3v69.7c0,1.3,1,2.3,2.3,2.3h69.7c1.3,0,2.3-1,2.3-2.3v-32.8c0-0.3,0.3-0.6,0.6-0.6H189c0.3,0,0.6,0.3,0.6,0.6
	v52.6c0,0.3-0.2,0.5-0.5,0.5H79.9c-0.3,0-0.5-0.2-0.5-0.5V664.9z"/>
<path class="st9" d="M134.8,696l0,22.7c0,1.3,1.1,2.4,2.4,2.4l22.7,0c2.2,0,3.3-2.6,1.7-4.2l-5.6-5.6l-0.4-0.4l0.2-0.2l25.6-25.6
	l0.2,0.2l5.8,5.8c1.5,1.5,4.2,0.4,4.2-1.7l0-22.7c0-1.3-1.1-2.4-2.4-2.4l-22.7,0c-2.2,0-3.3,2.6-1.7,4.2l5.8,5.8l1.1-1.1l-1.1,1.1
	l0.2,0.2l-0.5,0.5l-24.8,24.8l-0.6,0.6l-0.5-0.5l-5.4-5.4C137.4,692.7,134.8,693.8,134.8,696z"/>
<path class="st7" d="M10,889.4c-2,0-3.7-0.3-5.2-0.9c-1.4-0.6-2.5-1.4-3.3-2.4c-0.8-1-1.2-2.1-1.2-3.3c0-0.2,0.1-0.4,0.2-0.5
	c0.2-0.2,0.4-0.3,0.6-0.3h1.8c0.5,0,0.8,0.2,0.9,0.7c0.2,1,0.8,1.9,1.8,2.6c1,0.7,2.5,1.1,4.3,1.1c2,0,3.5-0.3,4.5-1
	c1-0.7,1.5-1.7,1.5-3c0-0.8-0.3-1.5-0.8-2c-0.5-0.5-1.2-0.9-2.2-1.3c-1-0.4-2.4-0.9-4.3-1.4c-1.9-0.5-3.4-1.1-4.5-1.7
	c-1.1-0.6-1.9-1.3-2.5-2.2s-0.8-2-0.8-3.3c0-1.3,0.3-2.5,1-3.5c0.7-1,1.7-1.8,3.1-2.4c1.3-0.6,2.9-0.9,4.7-0.9c1.9,0,3.5,0.3,4.8,1
	c1.3,0.6,2.4,1.5,3.1,2.5c0.7,1,1.1,2,1.1,3c0,0.2-0.1,0.4-0.2,0.5c-0.1,0.1-0.3,0.2-0.5,0.2h-1.9c-0.5,0-0.8-0.2-0.9-0.7
	c-0.1-1-0.7-1.8-1.7-2.5c-1-0.7-2.2-1-3.7-1c-1.6,0-2.9,0.3-3.9,0.9c-0.9,0.6-1.4,1.5-1.4,2.8c0,0.8,0.2,1.5,0.6,2
	c0.5,0.5,1.1,1,2.1,1.4c0.9,0.4,2.2,0.8,4,1.3c2,0.6,3.6,1.1,4.8,1.7c1.2,0.6,2.1,1.3,2.6,2.2c0.6,0.9,0.9,2,0.9,3.3
	c0,2.2-0.9,4-2.6,5.3C15.2,888.7,12.9,889.4,10,889.4z"/>
<path class="st7" d="M31.3,889.4c-2.6,0-4.6-0.7-6-2.2c-1.4-1.5-2.2-3.5-2.3-6.1l0-1.4l0-1.4c0.1-2.6,0.9-4.6,2.3-6.1
	c1.5-1.5,3.5-2.2,6-2.2c1.7,0,3.2,0.3,4.4,0.9c1.2,0.6,2.1,1.4,2.7,2.3c0.6,0.9,0.9,1.8,1,2.7c0,0.2,0,0.4-0.2,0.6
	c-0.2,0.1-0.4,0.2-0.6,0.2h-1.7c-0.2,0-0.4,0-0.5-0.1c-0.1-0.1-0.2-0.3-0.4-0.6c-0.4-1.2-1-2-1.7-2.4c-0.7-0.5-1.7-0.8-2.8-0.8
	c-1.5,0-2.7,0.5-3.6,1.4c-0.9,0.9-1.3,2.3-1.4,4.2l0,1.3l0,1.2c0.1,1.9,0.5,3.3,1.4,4.2c0.9,0.9,2.1,1.4,3.6,1.4
	c1.1,0,2.1-0.2,2.8-0.7c0.7-0.5,1.3-1.3,1.7-2.5c0.1-0.3,0.2-0.5,0.4-0.6c0.1-0.1,0.3-0.2,0.5-0.2h1.7c0.2,0,0.4,0.1,0.6,0.3
	c0.2,0.1,0.2,0.3,0.2,0.6c0,0.9-0.4,1.8-1,2.7c-0.6,0.9-1.5,1.7-2.7,2.3C34.6,889,33.1,889.4,31.3,889.4z"/>
<path class="st7" d="M48.9,889.4c-1.2,0-2.3-0.2-3.3-0.7c-1-0.5-1.8-1.1-2.4-1.9c-0.6-0.8-0.9-1.8-0.9-2.8c0-1.6,0.6-2.9,1.9-3.9
	c1.3-1,3.1-1.7,5.3-2l5.4-0.8v-1c0-2.4-1.4-3.7-4.2-3.7c-1.1,0-1.9,0.2-2.6,0.7c-0.7,0.4-1.2,0.9-1.5,1.5c-0.1,0.2-0.2,0.4-0.3,0.5
	c-0.1,0.1-0.2,0.1-0.4,0.1h-1.5c-0.2,0-0.4-0.1-0.6-0.2c-0.1-0.2-0.2-0.4-0.2-0.6c0-0.6,0.3-1.2,0.8-1.9c0.5-0.7,1.3-1.4,2.4-1.9
	c1.1-0.6,2.4-0.8,4-0.8c2.7,0,4.6,0.6,5.8,1.9c1.2,1.2,1.8,2.8,1.8,4.7v11.7c0,0.2-0.1,0.4-0.3,0.6c-0.1,0.1-0.3,0.2-0.6,0.2h-1.7
	c-0.2,0-0.4-0.1-0.6-0.2c-0.1-0.2-0.2-0.4-0.2-0.6v-1.5c-0.5,0.8-1.3,1.4-2.3,1.9S50.4,889.4,48.9,889.4z M49.6,886.7
	c1.6,0,2.8-0.5,3.8-1.5c1-1,1.5-2.5,1.5-4.4v-1l-4.2,0.6c-1.7,0.2-3,0.6-3.9,1.2c-0.9,0.6-1.3,1.3-1.3,2.1c0,1,0.4,1.7,1.2,2.2
	C47.6,886.4,48.5,886.7,49.6,886.7z"/>
<path class="st7" d="M64.4,889c-0.2,0-0.4-0.1-0.6-0.2c-0.1-0.2-0.2-0.4-0.2-0.6v-23.9c0-0.2,0.1-0.4,0.2-0.6
	c0.2-0.2,0.4-0.3,0.6-0.3h1.7c0.2,0,0.4,0.1,0.6,0.3c0.2,0.1,0.3,0.3,0.3,0.6v23.9c0,0.2-0.1,0.4-0.3,0.6c-0.1,0.1-0.3,0.2-0.6,0.2
	H64.4z"/>
<path class="st7" d="M77.5,889.4c-1.2,0-2.3-0.2-3.3-0.7c-1-0.5-1.8-1.1-2.4-1.9c-0.6-0.8-0.9-1.8-0.9-2.8c0-1.6,0.6-2.9,1.9-3.9
	c1.3-1,3.1-1.7,5.3-2l5.4-0.8v-1c0-2.4-1.4-3.7-4.2-3.7c-1.1,0-1.9,0.2-2.6,0.7c-0.7,0.4-1.2,0.9-1.5,1.5c-0.1,0.2-0.2,0.4-0.3,0.5
	c-0.1,0.1-0.2,0.1-0.4,0.1H73c-0.2,0-0.4-0.1-0.6-0.2c-0.1-0.2-0.2-0.4-0.2-0.6c0-0.6,0.3-1.2,0.8-1.9c0.5-0.7,1.3-1.4,2.4-1.9
	c1.1-0.6,2.4-0.8,4-0.8c2.7,0,4.6,0.6,5.8,1.9c1.2,1.2,1.8,2.8,1.8,4.7v11.7c0,0.2-0.1,0.4-0.3,0.6c-0.1,0.1-0.3,0.2-0.6,0.2h-1.7
	c-0.2,0-0.4-0.1-0.6-0.2c-0.1-0.2-0.2-0.4-0.2-0.6v-1.5c-0.5,0.8-1.3,1.4-2.3,1.9C80.3,889.1,79,889.4,77.5,889.4z M78.2,886.7
	c1.6,0,2.8-0.5,3.8-1.5c1-1,1.5-2.5,1.5-4.4v-1l-4.2,0.6c-1.7,0.2-3,0.6-3.9,1.2c-0.9,0.6-1.3,1.3-1.3,2.1c0,1,0.4,1.7,1.2,2.2
	C76.2,886.4,77.2,886.7,78.2,886.7z"/>
<path class="st7" d="M101.4,889.4c-2.6,0-4.6-0.9-5.9-2.7v1.5c0,0.2-0.1,0.4-0.3,0.6c-0.1,0.1-0.3,0.2-0.6,0.2H93
	c-0.2,0-0.4-0.1-0.6-0.2c-0.1-0.2-0.2-0.4-0.2-0.6v-23.9c0-0.2,0.1-0.4,0.2-0.6c0.2-0.2,0.4-0.3,0.6-0.3h1.8c0.2,0,0.4,0.1,0.6,0.3
	c0.1,0.1,0.2,0.3,0.2,0.6v8.3c1.4-1.8,3.4-2.6,5.8-2.6c2.5,0,4.4,0.8,5.7,2.5c1.3,1.6,2,3.7,2.1,6.2c0,0.3,0,0.6,0,1.1s0,0.8,0,1.1
	c-0.1,2.5-0.8,4.6-2.1,6.2C105.8,888.5,103.9,889.4,101.4,889.4z M100.6,886.4c1.7,0,2.9-0.5,3.7-1.6c0.8-1.1,1.2-2.4,1.3-4.2
	c0-0.2,0-0.6,0-1c0-4.5-1.7-6.8-5-6.8c-1.6,0-2.8,0.5-3.7,1.6c-0.9,1.1-1.3,2.3-1.4,3.7l0,1.4l0,1.4c0.1,1.5,0.5,2.8,1.3,3.9
	C97.7,885.9,99,886.4,100.6,886.4z"/>
<path class="st7" d="M114.4,889c-0.2,0-0.4-0.1-0.6-0.2c-0.1-0.2-0.2-0.4-0.2-0.6v-23.9c0-0.2,0.1-0.4,0.2-0.6
	c0.2-0.2,0.4-0.3,0.6-0.3h1.7c0.2,0,0.4,0.1,0.6,0.3c0.2,0.1,0.3,0.3,0.3,0.6v23.9c0,0.2-0.1,0.4-0.3,0.6c-0.1,0.1-0.3,0.2-0.6,0.2
	H114.4z"/>
<path class="st7" d="M129.8,889.4c-2.5,0-4.5-0.8-5.9-2.3c-1.5-1.5-2.3-3.6-2.4-6.3l0-1.2l0-1.2c0.2-2.6,1-4.7,2.4-6.2
	c1.5-1.5,3.4-2.3,5.9-2.3c2.7,0,4.7,0.9,6.2,2.6c1.5,1.7,2.2,4,2.2,6.8v0.6c0,0.2-0.1,0.4-0.3,0.6c-0.1,0.1-0.3,0.2-0.6,0.2h-12.5
	v0.3c0.1,1.6,0.5,2.9,1.4,4c0.9,1.1,2.1,1.6,3.5,1.6c1.1,0,2-0.2,2.7-0.6c0.7-0.5,1.2-0.9,1.6-1.4c0.2-0.3,0.4-0.5,0.5-0.5
	c0.1-0.1,0.3-0.1,0.6-0.1h1.8c0.2,0,0.4,0.1,0.5,0.2s0.2,0.3,0.2,0.5c0,0.5-0.3,1.2-1,1.9c-0.6,0.7-1.6,1.4-2.8,1.9
	C132.7,889.1,131.3,889.4,129.8,889.4z M134.7,878.3v-0.1c0-1.7-0.5-3-1.4-4c-0.9-1.1-2.1-1.6-3.6-1.6c-1.5,0-2.7,0.5-3.6,1.6
	c-0.9,1-1.3,2.4-1.3,4v0.1H134.7z"/>
<path class="st7" d="M142.2,891.7c-0.2,0-0.3-0.1-0.5-0.2c-0.1-0.1-0.1-0.3-0.1-0.5l0.8-5.1c0.1-0.7,0.4-1,1-1h2.4
	c0.2,0,0.3,0.1,0.4,0.2c0.1,0.1,0.2,0.3,0.2,0.4c0,0.1,0,0.3-0.1,0.6l-1.9,4.9c-0.1,0.3-0.3,0.5-0.4,0.6c-0.1,0.1-0.4,0.2-0.6,0.2
	H142.2z"/>
<path class="st7" d="M167.7,889.4c-2.5,0-4.5-0.8-5.9-2.3c-1.5-1.5-2.3-3.6-2.4-6.3l0-1.2l0-1.2c0.2-2.6,1-4.7,2.4-6.2
	c1.5-1.5,3.4-2.3,5.9-2.3c2.7,0,4.7,0.9,6.2,2.6c1.5,1.7,2.2,4,2.2,6.8v0.6c0,0.2-0.1,0.4-0.3,0.6c-0.1,0.1-0.3,0.2-0.6,0.2h-12.5
	v0.3c0.1,1.6,0.5,2.9,1.4,4c0.9,1.1,2.1,1.6,3.5,1.6c1.1,0,2-0.2,2.7-0.6c0.7-0.5,1.2-0.9,1.6-1.4c0.2-0.3,0.4-0.5,0.5-0.5
	c0.1-0.1,0.3-0.1,0.6-0.1h1.8c0.2,0,0.4,0.1,0.5,0.2s0.2,0.3,0.2,0.5c0,0.5-0.3,1.2-1,1.9c-0.6,0.7-1.6,1.4-2.8,1.9
	C170.6,889.1,169.2,889.4,167.7,889.4z M172.6,878.3v-0.1c0-1.7-0.5-3-1.4-4c-0.9-1.1-2.1-1.6-3.6-1.6c-1.5,0-2.7,0.5-3.6,1.6
	c-0.9,1-1.3,2.4-1.3,4v0.1H172.6z"/>
<path class="st7" d="M181.2,889c-0.2,0-0.4-0.1-0.6-0.2c-0.1-0.2-0.2-0.4-0.2-0.6v-23.9c0-0.2,0.1-0.4,0.2-0.6
	c0.2-0.2,0.4-0.3,0.6-0.3h1.7c0.2,0,0.4,0.1,0.6,0.3c0.2,0.1,0.3,0.3,0.3,0.6v23.9c0,0.2-0.1,0.4-0.3,0.6c-0.1,0.1-0.3,0.2-0.6,0.2
	H181.2z"/>
<path class="st7" d="M194.3,889.4c-1.2,0-2.3-0.2-3.3-0.7c-1-0.5-1.8-1.1-2.4-1.9c-0.6-0.8-0.9-1.8-0.9-2.8c0-1.6,0.6-2.9,1.9-3.9
	c1.3-1,3.1-1.7,5.3-2l5.4-0.8v-1c0-2.4-1.4-3.7-4.2-3.7c-1.1,0-1.9,0.2-2.6,0.7c-0.7,0.4-1.2,0.9-1.5,1.5c-0.1,0.2-0.2,0.4-0.3,0.5
	c-0.1,0.1-0.2,0.1-0.4,0.1h-1.5c-0.2,0-0.4-0.1-0.6-0.2c-0.1-0.2-0.2-0.4-0.2-0.6c0-0.6,0.3-1.2,0.8-1.9c0.5-0.7,1.3-1.4,2.4-1.9
	c1.1-0.6,2.4-0.8,4-0.8c2.7,0,4.6,0.6,5.8,1.9c1.2,1.2,1.8,2.8,1.8,4.7v11.7c0,0.2-0.1,0.4-0.3,0.6c-0.1,0.1-0.3,0.2-0.6,0.2h-1.7
	c-0.2,0-0.4-0.1-0.6-0.2c-0.1-0.2-0.2-0.4-0.2-0.6v-1.5c-0.5,0.8-1.3,1.4-2.3,1.9C197.2,889.1,195.9,889.4,194.3,889.4z
	 M195.1,886.7c1.6,0,2.8-0.5,3.8-1.5c1-1,1.5-2.5,1.5-4.4v-1l-4.2,0.6c-1.7,0.2-3,0.6-3.9,1.2c-0.9,0.6-1.3,1.3-1.3,2.1
	c0,1,0.4,1.7,1.2,2.2C193.1,886.4,194,886.7,195.1,886.7z"/>
<path class="st7" d="M215.5,889.4c-1.7,0-3.1-0.3-4.2-0.8c-1.1-0.6-2-1.2-2.6-1.9c-0.6-0.7-0.8-1.3-0.8-1.7c0-0.2,0.1-0.4,0.3-0.5
	c0.2-0.1,0.4-0.2,0.6-0.2h1.6c0.2,0,0.5,0.1,0.6,0.4c0.6,0.7,1.2,1.2,1.9,1.6c0.7,0.4,1.6,0.6,2.7,0.6c1.2,0,2.3-0.2,3-0.7
	c0.8-0.5,1.2-1.2,1.2-2.1c0-0.6-0.2-1-0.5-1.4c-0.3-0.4-0.9-0.7-1.7-1c-0.8-0.3-1.9-0.6-3.5-0.9c-2.1-0.5-3.6-1.1-4.5-2
	c-0.9-0.9-1.3-2-1.3-3.3c0-0.9,0.3-1.8,0.8-2.6c0.6-0.8,1.3-1.5,2.4-2c1.1-0.5,2.3-0.8,3.8-0.8c1.5,0,2.8,0.3,3.9,0.8
	c1.1,0.5,1.9,1.1,2.4,1.8c0.6,0.7,0.8,1.2,0.8,1.7c0,0.2-0.1,0.4-0.3,0.5c-0.1,0.1-0.3,0.2-0.5,0.2h-1.5c-0.3,0-0.5-0.1-0.7-0.4
	c-0.4-0.5-0.7-0.8-1-1c-0.3-0.3-0.7-0.5-1.2-0.7c-0.5-0.2-1.2-0.3-1.9-0.3c-1.2,0-2,0.3-2.7,0.8c-0.6,0.5-0.9,1.1-0.9,1.9
	c0,0.5,0.1,0.9,0.4,1.3c0.3,0.3,0.8,0.6,1.5,0.9c0.8,0.3,1.9,0.6,3.3,0.9c2.3,0.5,3.9,1.2,4.8,2.1c1,0.9,1.4,2,1.4,3.4
	c0,1-0.3,2-0.9,2.8c-0.6,0.8-1.5,1.5-2.7,2C218.4,889.1,217.1,889.4,215.5,889.4z"/>
<path class="st7" d="M234.6,889c-3.8,0-5.7-2.1-5.7-6.3v-9.5h-2.8c-0.2,0-0.4-0.1-0.6-0.2c-0.1-0.2-0.2-0.4-0.2-0.6v-1.2
	c0-0.2,0.1-0.4,0.2-0.6c0.2-0.2,0.4-0.3,0.6-0.3h2.8v-6c0-0.2,0.1-0.4,0.2-0.6c0.2-0.2,0.4-0.3,0.6-0.3h1.7c0.2,0,0.4,0.1,0.6,0.3
	c0.2,0.1,0.3,0.3,0.3,0.6v6h4.5c0.2,0,0.4,0.1,0.6,0.3c0.2,0.1,0.3,0.3,0.3,0.6v1.2c0,0.2-0.1,0.4-0.3,0.6c-0.1,0.1-0.3,0.2-0.6,0.2
	h-4.5v9.3c0,1.2,0.2,2.1,0.6,2.7c0.4,0.6,1.1,0.9,2,0.9h2.2c0.2,0,0.4,0.1,0.6,0.3c0.2,0.1,0.3,0.3,0.3,0.6v1.3
	c0,0.2-0.1,0.4-0.3,0.6c-0.1,0.1-0.3,0.2-0.6,0.2H234.6z"/>
<path class="st7" d="M241.9,866.8c-0.2,0-0.4-0.1-0.6-0.2c-0.1-0.2-0.2-0.4-0.2-0.6V864c0-0.2,0.1-0.4,0.2-0.6
	c0.2-0.2,0.4-0.3,0.6-0.3h2.3c0.2,0,0.4,0.1,0.6,0.3c0.2,0.2,0.3,0.4,0.3,0.6v1.9c0,0.2-0.1,0.4-0.3,0.6c-0.2,0.1-0.4,0.2-0.6,0.2
	H241.9z M242.2,889c-0.2,0-0.4-0.1-0.6-0.2c-0.1-0.2-0.2-0.4-0.2-0.6v-17.1c0-0.2,0.1-0.4,0.2-0.6c0.2-0.2,0.4-0.3,0.6-0.3h1.7
	c0.2,0,0.4,0.1,0.6,0.3c0.2,0.1,0.3,0.3,0.3,0.6v17.1c0,0.2-0.1,0.4-0.3,0.6c-0.1,0.1-0.3,0.2-0.6,0.2H242.2z"/>
<path class="st7" d="M257.6,889.4c-2.6,0-4.6-0.7-6-2.2c-1.4-1.5-2.2-3.5-2.3-6.1l0-1.4l0-1.4c0.1-2.6,0.9-4.6,2.3-6.1
	c1.5-1.5,3.5-2.2,6-2.2c1.7,0,3.2,0.3,4.4,0.9c1.2,0.6,2.1,1.4,2.7,2.3c0.6,0.9,0.9,1.8,1,2.7c0,0.2,0,0.4-0.2,0.6
	c-0.2,0.1-0.4,0.2-0.6,0.2h-1.7c-0.2,0-0.4,0-0.5-0.1s-0.2-0.3-0.4-0.6c-0.4-1.2-1-2-1.7-2.4c-0.7-0.5-1.7-0.8-2.8-0.8
	c-1.5,0-2.7,0.5-3.6,1.4c-0.9,0.9-1.3,2.3-1.4,4.2l0,1.3l0,1.2c0.1,1.9,0.5,3.3,1.4,4.2s2.1,1.4,3.6,1.4c1.1,0,2.1-0.2,2.8-0.7
	c0.7-0.5,1.3-1.3,1.7-2.5c0.1-0.3,0.2-0.5,0.4-0.6c0.1-0.1,0.3-0.2,0.5-0.2h1.7c0.2,0,0.4,0.1,0.6,0.3c0.2,0.1,0.2,0.3,0.2,0.6
	c0,0.9-0.4,1.8-1,2.7c-0.6,0.9-1.5,1.7-2.7,2.3C260.9,889,259.4,889.4,257.6,889.4z"/>
<path class="st7" d="M42.1,933.4c-1.7,0-3.1-0.3-4.2-0.8c-1.1-0.6-2-1.2-2.6-1.9c-0.6-0.7-0.8-1.3-0.8-1.7c0-0.2,0.1-0.4,0.3-0.5
	c0.2-0.1,0.4-0.2,0.6-0.2h1.6c0.2,0,0.5,0.1,0.6,0.4c0.6,0.7,1.2,1.2,1.9,1.6c0.7,0.4,1.6,0.6,2.7,0.6c1.2,0,2.3-0.2,3-0.7
	c0.8-0.5,1.2-1.2,1.2-2.1c0-0.6-0.2-1-0.5-1.4c-0.3-0.4-0.9-0.7-1.7-1c-0.8-0.3-1.9-0.6-3.5-0.9c-2.1-0.5-3.6-1.1-4.5-2
	c-0.9-0.9-1.3-2-1.3-3.3c0-0.9,0.3-1.8,0.8-2.6c0.6-0.8,1.3-1.5,2.4-2c1.1-0.5,2.3-0.8,3.8-0.8c1.5,0,2.8,0.3,3.9,0.8
	c1.1,0.5,1.9,1.1,2.4,1.8c0.6,0.7,0.8,1.2,0.8,1.7c0,0.2-0.1,0.4-0.3,0.5c-0.1,0.1-0.3,0.2-0.5,0.2h-1.5c-0.3,0-0.5-0.1-0.7-0.4
	c-0.4-0.5-0.7-0.8-1-1c-0.3-0.3-0.7-0.5-1.2-0.7c-0.5-0.2-1.2-0.3-1.9-0.3c-1.2,0-2,0.3-2.7,0.8c-0.6,0.5-0.9,1.1-0.9,1.9
	c0,0.5,0.1,0.9,0.4,1.3c0.3,0.3,0.8,0.6,1.5,0.9c0.8,0.3,1.9,0.6,3.3,0.9c2.3,0.5,3.9,1.2,4.8,2.1c1,0.9,1.4,2,1.4,3.4
	c0,1-0.3,2-0.9,2.8c-0.6,0.8-1.5,1.5-2.7,2C45,933.1,43.7,933.4,42.1,933.4z"/>
<path class="st7" d="M61.4,933.4c-2.5,0-4.5-0.8-5.9-2.3c-1.5-1.5-2.3-3.6-2.4-6.3l0-1.2l0-1.2c0.2-2.6,1-4.7,2.4-6.2
	c1.5-1.5,3.4-2.3,5.9-2.3c2.7,0,4.7,0.9,6.2,2.6c1.5,1.7,2.2,4,2.2,6.8v0.6c0,0.2-0.1,0.4-0.3,0.6c-0.1,0.1-0.3,0.2-0.6,0.2H56.5
	v0.3c0.1,1.6,0.5,2.9,1.4,4c0.9,1.1,2.1,1.6,3.5,1.6c1.1,0,2-0.2,2.7-0.6c0.7-0.5,1.2-0.9,1.6-1.4c0.2-0.3,0.4-0.5,0.5-0.5
	c0.1-0.1,0.3-0.1,0.6-0.1h1.8c0.2,0,0.4,0.1,0.5,0.2s0.2,0.3,0.2,0.5c0,0.5-0.3,1.2-1,1.9c-0.6,0.7-1.6,1.4-2.8,1.9
	C64.3,933.1,62.9,933.4,61.4,933.4z M66.3,922.3v-0.1c0-1.7-0.5-3-1.4-4c-0.9-1.1-2.1-1.6-3.6-1.6s-2.7,0.5-3.6,1.6
	c-0.9,1-1.3,2.4-1.3,4v0.1H66.3z"/>
<path class="st7" d="M74.9,933c-0.2,0-0.4-0.1-0.6-0.2c-0.1-0.2-0.2-0.4-0.2-0.6v-23.9c0-0.2,0.1-0.4,0.2-0.6
	c0.2-0.2,0.4-0.3,0.6-0.3h1.7c0.2,0,0.4,0.1,0.6,0.3c0.2,0.1,0.3,0.3,0.3,0.6v23.9c0,0.2-0.1,0.4-0.3,0.6c-0.1,0.1-0.3,0.2-0.6,0.2
	H74.9z"/>
<path class="st7" d="M85.5,933c-0.2,0-0.4-0.1-0.6-0.2c-0.1-0.2-0.2-0.4-0.2-0.6v-15h-3.1c-0.2,0-0.4-0.1-0.6-0.2
	c-0.1-0.2-0.2-0.4-0.2-0.6v-1.2c0-0.2,0.1-0.4,0.2-0.6c0.2-0.2,0.4-0.3,0.6-0.3h3.1v-1.8c0-4.1,2.1-6.1,6.2-6.1H93
	c0.2,0,0.4,0.1,0.6,0.3c0.2,0.1,0.3,0.3,0.3,0.6v1.2c0,0.2-0.1,0.4-0.3,0.6c-0.1,0.1-0.3,0.2-0.6,0.2H91c-1.1,0-1.8,0.3-2.3,0.9
	c-0.4,0.6-0.6,1.4-0.6,2.6v1.6h4.6c0.2,0,0.4,0.1,0.6,0.3c0.2,0.1,0.3,0.3,0.3,0.6v1.2c0,0.2-0.1,0.4-0.3,0.6
	c-0.1,0.1-0.3,0.2-0.6,0.2H88v15c0,0.2-0.1,0.4-0.3,0.6c-0.1,0.1-0.3,0.2-0.6,0.2H85.5z"/>
<path class="st7" d="M96.2,923.7c-0.2,0-0.4-0.1-0.6-0.2c-0.1-0.2-0.2-0.4-0.2-0.6v-1.4c0-0.2,0.1-0.4,0.2-0.6
	c0.2-0.2,0.4-0.3,0.6-0.3H107c0.2,0,0.4,0.1,0.6,0.3c0.2,0.1,0.3,0.3,0.3,0.6v1.4c0,0.2-0.1,0.4-0.3,0.6c-0.1,0.1-0.3,0.2-0.6,0.2
	H96.2z"/>
<path class="st7" d="M113.9,933c-0.2,0-0.4-0.1-0.6-0.2c-0.1-0.2-0.2-0.4-0.2-0.6v-23.9c0-0.2,0.1-0.4,0.2-0.6
	c0.2-0.2,0.4-0.3,0.6-0.3h1.8c0.2,0,0.4,0.1,0.6,0.3c0.2,0.1,0.3,0.3,0.3,0.6v8.4c0.7-0.9,1.5-1.6,2.4-2c0.9-0.5,2.1-0.7,3.5-0.7
	c2.3,0,4.1,0.7,5.4,2.2c1.3,1.5,1.9,3.4,1.9,5.9v10.2c0,0.2-0.1,0.4-0.3,0.6c-0.1,0.1-0.3,0.2-0.6,0.2h-1.8c-0.2,0-0.4-0.1-0.6-0.2
	c-0.1-0.2-0.2-0.4-0.2-0.6v-10c0-1.7-0.4-3-1.3-4c-0.8-0.9-2-1.4-3.6-1.4c-1.5,0-2.7,0.5-3.6,1.4c-0.9,0.9-1.3,2.2-1.3,3.9v10
	c0,0.2-0.1,0.4-0.3,0.6c-0.1,0.1-0.3,0.2-0.6,0.2H113.9z"/>
<path class="st7" d="M142.4,933.4c-2.5,0-4.5-0.8-5.9-2.3c-1.5-1.5-2.3-3.6-2.4-6.3l0-1.2l0-1.2c0.2-2.6,1-4.7,2.4-6.2
	c1.5-1.5,3.4-2.3,5.9-2.3c2.7,0,4.7,0.9,6.2,2.6c1.5,1.7,2.2,4,2.2,6.8v0.6c0,0.2-0.1,0.4-0.3,0.6c-0.1,0.1-0.3,0.2-0.6,0.2h-12.5
	v0.3c0.1,1.6,0.5,2.9,1.4,4c0.9,1.1,2.1,1.6,3.5,1.6c1.1,0,2-0.2,2.7-0.6c0.7-0.5,1.2-0.9,1.6-1.4c0.2-0.3,0.4-0.5,0.5-0.5
	c0.1-0.1,0.3-0.1,0.6-0.1h1.8c0.2,0,0.4,0.1,0.5,0.2c0.1,0.1,0.2,0.3,0.2,0.5c0,0.5-0.3,1.2-1,1.9c-0.6,0.7-1.6,1.4-2.8,1.9
	C145.3,933.1,144,933.4,142.4,933.4z M147.4,922.3v-0.1c0-1.7-0.5-3-1.4-4c-0.9-1.1-2.1-1.6-3.6-1.6c-1.5,0-2.7,0.5-3.6,1.6
	c-0.9,1-1.3,2.4-1.3,4v0.1H147.4z"/>
<path class="st7" d="M160.3,933.4c-1.2,0-2.3-0.2-3.3-0.7c-1-0.5-1.8-1.1-2.4-1.9c-0.6-0.8-0.9-1.8-0.9-2.8c0-1.6,0.6-2.9,1.9-3.9
	c1.3-1,3.1-1.7,5.3-2l5.4-0.8v-1c0-2.4-1.4-3.7-4.2-3.7c-1.1,0-1.9,0.2-2.6,0.7c-0.7,0.4-1.2,0.9-1.5,1.5c-0.1,0.2-0.2,0.4-0.3,0.5
	c-0.1,0.1-0.2,0.1-0.4,0.1h-1.5c-0.2,0-0.4-0.1-0.6-0.2c-0.1-0.2-0.2-0.4-0.2-0.6c0-0.6,0.3-1.2,0.8-1.9c0.5-0.7,1.3-1.4,2.4-1.9
	c1.1-0.6,2.4-0.8,4-0.8c2.7,0,4.6,0.6,5.8,1.9c1.2,1.2,1.8,2.8,1.8,4.7v11.7c0,0.2-0.1,0.4-0.3,0.6c-0.1,0.1-0.3,0.2-0.6,0.2h-1.7
	c-0.2,0-0.4-0.1-0.6-0.2c-0.1-0.2-0.2-0.4-0.2-0.6v-1.5c-0.5,0.8-1.3,1.4-2.3,1.9S161.9,933.4,160.3,933.4z M161.1,930.7
	c1.6,0,2.8-0.5,3.8-1.5c1-1,1.5-2.5,1.5-4.4v-1l-4.2,0.6c-1.7,0.2-3,0.6-3.9,1.2c-0.9,0.6-1.3,1.3-1.3,2.1c0,1,0.4,1.7,1.2,2.2
	C159.1,930.4,160,930.7,161.1,930.7z"/>
<path class="st7" d="M175.8,933c-0.2,0-0.4-0.1-0.6-0.2c-0.1-0.2-0.2-0.4-0.2-0.6v-23.9c0-0.2,0.1-0.4,0.2-0.6
	c0.2-0.2,0.4-0.3,0.6-0.3h1.7c0.2,0,0.4,0.1,0.6,0.3c0.2,0.1,0.3,0.3,0.3,0.6v23.9c0,0.2-0.1,0.4-0.3,0.6c-0.1,0.1-0.3,0.2-0.6,0.2
	H175.8z"/>
<path class="st7" d="M184.3,910.8c-0.2,0-0.4-0.1-0.6-0.2c-0.1-0.2-0.2-0.4-0.2-0.6V908c0-0.2,0.1-0.4,0.2-0.6
	c0.2-0.2,0.4-0.3,0.6-0.3h2.3c0.2,0,0.4,0.1,0.6,0.3c0.2,0.2,0.3,0.4,0.3,0.6v1.9c0,0.2-0.1,0.4-0.3,0.6c-0.2,0.1-0.4,0.2-0.6,0.2
	H184.3z M184.6,933c-0.2,0-0.4-0.1-0.6-0.2c-0.1-0.2-0.2-0.4-0.2-0.6v-17.1c0-0.2,0.1-0.4,0.2-0.6c0.2-0.2,0.4-0.3,0.6-0.3h1.7
	c0.2,0,0.4,0.1,0.6,0.3c0.2,0.1,0.3,0.3,0.3,0.6v17.1c0,0.2-0.1,0.4-0.3,0.6c-0.1,0.1-0.3,0.2-0.6,0.2H184.6z"/>
<path class="st7" d="M193.3,933c-0.2,0-0.4-0.1-0.6-0.2c-0.1-0.2-0.2-0.4-0.2-0.6v-17.1c0-0.2,0.1-0.4,0.2-0.6
	c0.2-0.2,0.4-0.3,0.6-0.3h1.7c0.2,0,0.4,0.1,0.6,0.3c0.2,0.1,0.3,0.3,0.3,0.6v1.6c0.7-0.9,1.5-1.6,2.4-2.1c1-0.5,2.1-0.7,3.6-0.7
	c2.3,0,4.1,0.7,5.4,2.2c1.3,1.5,1.9,3.4,1.9,5.9v10.2c0,0.2-0.1,0.4-0.3,0.6c-0.1,0.1-0.3,0.2-0.6,0.2h-1.8c-0.2,0-0.4-0.1-0.6-0.2
	c-0.1-0.2-0.2-0.4-0.2-0.6v-10c0-1.7-0.4-3-1.3-4c-0.8-0.9-2-1.4-3.6-1.4c-1.5,0-2.7,0.5-3.6,1.4c-0.9,0.9-1.3,2.2-1.3,3.9v10
	c0,0.2-0.1,0.4-0.3,0.6c-0.1,0.1-0.3,0.2-0.6,0.2H193.3z"/>
<path class="st7" d="M221.9,940.9c-2,0-3.6-0.3-4.8-1c-1.2-0.6-2.1-1.4-2.6-2.2c-0.5-0.8-0.8-1.6-0.8-2.3c0-0.2,0-0.4,0.2-0.6
	c0.2-0.2,0.4-0.3,0.6-0.3h1.7c0.2,0,0.4,0,0.5,0.1c0.1,0.1,0.3,0.3,0.4,0.6c0.3,0.8,0.8,1.4,1.4,2c0.7,0.6,1.7,0.9,3.1,0.9
	c1.8,0,3.1-0.4,3.9-1.2c0.8-0.7,1.3-2.1,1.3-4v-2.4c-0.6,0.8-1.4,1.4-2.4,1.9c-1,0.5-2.1,0.7-3.4,0.7c-2.5,0-4.5-0.8-5.7-2.4
	c-1.2-1.6-1.9-3.7-2-6.2l0-1l0-1c0.1-2.5,0.7-4.5,2-6.2c1.3-1.7,3.2-2.5,5.7-2.5s4.5,0.9,5.9,2.8v-1.5c0-0.2,0.1-0.4,0.2-0.6
	c0.2-0.2,0.4-0.3,0.6-0.3h1.7c0.2,0,0.4,0.1,0.6,0.3c0.2,0.2,0.3,0.4,0.3,0.6v17.5C230.4,938.1,227.6,940.9,221.9,940.9z
	 M221.9,930.3c1.6,0,2.9-0.5,3.7-1.6c0.8-1.1,1.3-2.4,1.4-3.9c0-0.2,0-0.6,0-1.3c0-0.6,0-1,0-1.2c-0.1-1.5-0.5-2.8-1.4-3.9
	c-0.8-1.1-2.1-1.6-3.7-1.6c-1.7,0-2.9,0.5-3.7,1.6c-0.8,1.1-1.2,2.4-1.3,4.2l0,0.9l0,1c0.1,1.7,0.5,3.1,1.3,4.2
	C218.9,929.7,220.2,930.3,221.9,930.3z"/>
<path class="st3" d="M609,23l85.2,41l21,92.2l-59,74h-94.6l-59-74l21-92.2L609,23z"/>
<path class="st4" d="M610.2,2.6l-0.7-0.3l-0.7,0.3l-98.1,47.3l-0.7,0.3l-0.2,0.7l-24.2,106.2l-0.2,0.7l0.5,0.6l67.9,85.1l0.5,0.6
	h0.7H664h0.7l0.5-0.6l67.9-85.1l0.5-0.6l-0.2-0.7L709.1,50.9l-0.2-0.7l-0.7-0.3L610.2,2.6z"/>
<path class="st10" d="M584.5,113.4v-1.1c1.2-12.6,11.3-22,24-22c12.7,0,23.1,9.8,24.4,22.1l0.1,1H584.5z M597.3,76.2
	c0-6.4,5-11.4,11.5-11.4c6.4,0,11.3,5,11.3,11.4c0,6.4-5.2,11.6-11.6,11.6C602.1,87.7,597.3,82.6,597.3,76.2z"/>
<path class="st5" d="M619.3,178.4v-1.1c1.2-12.6,11.3-22,24-22c12.7,0,23.1,9.8,24.4,22.1l0.1,1H619.3z M632.1,141.1
	c0-6.4,5-11.4,11.5-11.4c6.4,0,11.3,5,11.3,11.4c0,6.4-5.2,11.6-11.6,11.6C636.9,152.7,632.1,147.6,632.1,141.1z"/>
<path class="st5" d="M574,129.7c-6.4,0-11.5,5-11.5,11.4c0,6.4,4.7,11.6,11.2,11.6c6.4,0,11.6-5.1,11.6-11.6
	C585.3,134.7,580.5,129.7,574,129.7z"/>
<path class="st5" d="M549.7,177.3v1.1h48.5l-0.1-1c-1.2-12.3-11.7-22.1-24.4-22.1C561.1,155.3,551,164.8,549.7,177.3z"/>
<path class="st5" d="M619.3,177.3v1.1h48.5l-0.1-1c-1.2-12.3-11.7-22.1-24.4-22.1C630.7,155.3,620.5,164.8,619.3,177.3z"/>
<path class="st5" d="M643.6,129.7c-6.4,0-11.5,5-11.5,11.4c0,6.4,4.7,11.6,11.2,11.6c6.4,0,11.6-5.1,11.6-11.6
	C654.9,134.7,650,129.7,643.6,129.7z"/>
<path class="st9" d="M549.7,178.4v-1.1c1.2-12.6,11.3-22,24-22c12.7,0,23.1,9.8,24.4,22.1l0.1,1H549.7z M562.6,141.1
	c0-6.4,5-11.4,11.5-11.4c6.4,0,11.3,5,11.3,11.4c0,6.4-5.2,11.6-11.6,11.6C567.3,152.7,562.6,147.6,562.6,141.1z"/>
<path class="st11" d="M619.3,178.4v-1.1c1.2-12.6,11.3-22,24-22c12.7,0,23.1,9.8,24.4,22.1l0.1,1H619.3z M632.1,141.1
	c0-6.4,5-11.4,11.5-11.4c6.4,0,11.3,5,11.3,11.4c0,6.4-5.2,11.6-11.6,11.6C636.9,152.7,632.1,147.6,632.1,141.1z"/>
<path class="st12" d="M608.8,123.3v12.4 M621.6,142.3l-12.8-6.6 M596,142.3l12.8-6.6"/>
<path class="st7" d="M502.6,299c-0.2,0-0.4-0.1-0.6-0.2c-0.1-0.2-0.2-0.4-0.2-0.6v-23.5c0-0.3,0.1-0.5,0.2-0.6
	c0.2-0.2,0.4-0.3,0.6-0.3h1.8c0.4,0,0.7,0.2,0.9,0.6l7.6,14.5l7.7-14.5c0-0.1,0.1-0.3,0.3-0.4c0.2-0.1,0.4-0.2,0.6-0.2h1.8
	c0.3,0,0.5,0.1,0.6,0.3c0.2,0.1,0.3,0.3,0.3,0.6v23.5c0,0.2-0.1,0.4-0.3,0.6c-0.2,0.1-0.4,0.2-0.6,0.2h-1.8c-0.2,0-0.4-0.1-0.6-0.2
	c-0.1-0.2-0.2-0.4-0.2-0.6v-17.7l-6,11.7c-0.2,0.5-0.6,0.8-1.2,0.8h-1.1c-0.5,0-0.9-0.3-1.2-0.8l-6-11.7v17.7c0,0.2-0.1,0.4-0.3,0.6
	c-0.1,0.1-0.3,0.2-0.6,0.2H502.6z"/>
<path class="st7" d="M536.9,299.4c-2.3,0-4-0.7-5.3-2.2c-1.2-1.5-1.9-3.5-1.9-5.9v-10.2c0-0.2,0.1-0.4,0.2-0.6
	c0.2-0.2,0.4-0.3,0.6-0.3h1.8c0.2,0,0.4,0.1,0.6,0.3c0.2,0.1,0.3,0.3,0.3,0.6v10c0,3.6,1.6,5.4,4.7,5.4c1.5,0,2.7-0.5,3.6-1.4
	c0.9-1,1.3-2.3,1.3-4v-10c0-0.2,0.1-0.4,0.2-0.6c0.2-0.2,0.4-0.3,0.6-0.3h1.8c0.2,0,0.4,0.1,0.6,0.3c0.1,0.1,0.2,0.3,0.2,0.6v17.1
	c0,0.2-0.1,0.4-0.2,0.6c-0.1,0.1-0.3,0.2-0.6,0.2h-1.7c-0.2,0-0.4-0.1-0.6-0.2c-0.1-0.2-0.2-0.4-0.2-0.6v-1.6
	c-0.7,0.9-1.5,1.6-2.4,2.1C539.5,299.1,538.3,299.4,536.9,299.4z"/>
<path class="st7" d="M552.4,299c-0.2,0-0.4-0.1-0.6-0.2c-0.1-0.2-0.2-0.4-0.2-0.6v-23.9c0-0.2,0.1-0.4,0.2-0.6
	c0.2-0.2,0.4-0.3,0.6-0.3h1.7c0.2,0,0.4,0.1,0.6,0.3c0.2,0.1,0.3,0.3,0.3,0.6v23.9c0,0.2-0.1,0.4-0.3,0.6c-0.1,0.1-0.3,0.2-0.6,0.2
	H552.4z"/>
<path class="st7" d="M567.6,299c-3.8,0-5.7-2.1-5.7-6.3v-9.5h-2.8c-0.2,0-0.4-0.1-0.6-0.2c-0.1-0.2-0.2-0.4-0.2-0.6v-1.2
	c0-0.2,0.1-0.4,0.2-0.6c0.2-0.2,0.4-0.3,0.6-0.3h2.8v-6c0-0.2,0.1-0.4,0.2-0.6c0.2-0.2,0.4-0.3,0.6-0.3h1.7c0.2,0,0.4,0.1,0.6,0.3
	c0.2,0.1,0.3,0.3,0.3,0.6v6h4.5c0.2,0,0.4,0.1,0.6,0.3c0.2,0.1,0.3,0.3,0.3,0.6v1.2c0,0.2-0.1,0.4-0.3,0.6c-0.1,0.1-0.3,0.2-0.6,0.2
	h-4.5v9.3c0,1.2,0.2,2.1,0.6,2.7c0.4,0.6,1.1,0.9,2,0.9h2.2c0.2,0,0.4,0.1,0.6,0.3c0.2,0.1,0.3,0.3,0.3,0.6v1.3
	c0,0.2-0.1,0.4-0.3,0.6c-0.1,0.1-0.3,0.2-0.6,0.2H567.6z"/>
<path class="st7" d="M574.9,276.8c-0.2,0-0.4-0.1-0.6-0.2c-0.1-0.2-0.2-0.4-0.2-0.6V274c0-0.2,0.1-0.4,0.2-0.6
	c0.2-0.2,0.4-0.3,0.6-0.3h2.3c0.2,0,0.4,0.1,0.6,0.3c0.2,0.2,0.3,0.4,0.3,0.6v1.9c0,0.2-0.1,0.4-0.3,0.6c-0.2,0.1-0.4,0.2-0.6,0.2
	H574.9z M575.2,299c-0.2,0-0.4-0.1-0.6-0.2c-0.1-0.2-0.2-0.4-0.2-0.6v-17.1c0-0.2,0.1-0.4,0.2-0.6c0.2-0.2,0.4-0.3,0.6-0.3h1.7
	c0.2,0,0.4,0.1,0.6,0.3c0.2,0.1,0.3,0.3,0.3,0.6v17.1c0,0.2-0.1,0.4-0.3,0.6c-0.1,0.1-0.3,0.2-0.6,0.2H575.2z"/>
<path class="st7" d="M590.4,299c-3.8,0-5.7-2.1-5.7-6.3v-9.5h-2.8c-0.2,0-0.4-0.1-0.6-0.2c-0.1-0.2-0.2-0.4-0.2-0.6v-1.2
	c0-0.2,0.1-0.4,0.2-0.6c0.2-0.2,0.4-0.3,0.6-0.3h2.8v-6c0-0.2,0.1-0.4,0.2-0.6c0.2-0.2,0.4-0.3,0.6-0.3h1.7c0.2,0,0.4,0.1,0.6,0.3
	c0.2,0.1,0.3,0.3,0.3,0.6v6h4.5c0.2,0,0.4,0.1,0.6,0.3c0.2,0.1,0.3,0.3,0.3,0.6v1.2c0,0.2-0.1,0.4-0.3,0.6c-0.1,0.1-0.3,0.2-0.6,0.2
	h-4.5v9.3c0,1.2,0.2,2.1,0.6,2.7c0.4,0.6,1.1,0.9,2,0.9h2.2c0.2,0,0.4,0.1,0.6,0.3c0.2,0.1,0.3,0.3,0.3,0.6v1.3
	c0,0.2-0.1,0.4-0.3,0.6c-0.1,0.1-0.3,0.2-0.6,0.2H590.4z"/>
<path class="st7" d="M604.6,299.4c-2.5,0-4.5-0.8-5.9-2.3c-1.5-1.5-2.3-3.6-2.4-6.3l0-1.2l0-1.2c0.2-2.6,1-4.7,2.4-6.2
	c1.5-1.5,3.4-2.3,5.9-2.3c2.7,0,4.7,0.9,6.2,2.6c1.5,1.7,2.2,4,2.2,6.8v0.6c0,0.2-0.1,0.4-0.3,0.6c-0.1,0.1-0.3,0.2-0.6,0.2h-12.5
	v0.3c0.1,1.6,0.5,2.9,1.4,4c0.9,1.1,2.1,1.6,3.5,1.6c1.1,0,2-0.2,2.7-0.6c0.7-0.5,1.2-0.9,1.6-1.4c0.2-0.3,0.4-0.5,0.5-0.5
	c0.1-0.1,0.3-0.1,0.6-0.1h1.8c0.2,0,0.4,0.1,0.5,0.2s0.2,0.3,0.2,0.5c0,0.5-0.3,1.2-1,1.9c-0.6,0.7-1.6,1.4-2.8,1.9
	C607.5,299.1,606.2,299.4,604.6,299.4z M609.6,288.3v-0.1c0-1.7-0.5-3-1.4-4c-0.9-1.1-2.1-1.6-3.6-1.6c-1.5,0-2.7,0.5-3.6,1.6
	c-0.9,1-1.3,2.4-1.3,4v0.1H609.6z"/>
<path class="st7" d="M618.1,299c-0.2,0-0.4-0.1-0.6-0.2c-0.1-0.2-0.2-0.4-0.2-0.6v-17.1c0-0.2,0.1-0.4,0.2-0.6
	c0.2-0.2,0.4-0.3,0.6-0.3h1.7c0.2,0,0.4,0.1,0.6,0.3c0.2,0.1,0.3,0.3,0.3,0.6v1.6c0.7-0.9,1.5-1.6,2.4-2.1c1-0.5,2.1-0.7,3.6-0.7
	c2.3,0,4.1,0.7,5.4,2.2c1.3,1.5,1.9,3.4,1.9,5.9v10.2c0,0.2-0.1,0.4-0.3,0.6c-0.1,0.1-0.3,0.2-0.6,0.2h-1.8c-0.2,0-0.4-0.1-0.6-0.2
	c-0.1-0.2-0.2-0.4-0.2-0.6v-10c0-1.7-0.4-3-1.3-4c-0.8-0.9-2-1.4-3.6-1.4c-1.5,0-2.7,0.5-3.6,1.4c-0.9,0.9-1.3,2.2-1.3,3.9v10
	c0,0.2-0.1,0.4-0.3,0.6c-0.1,0.1-0.3,0.2-0.6,0.2H618.1z"/>
<path class="st7" d="M644.3,299.4c-1.2,0-2.3-0.2-3.3-0.7c-1-0.5-1.8-1.1-2.4-1.9c-0.6-0.8-0.9-1.8-0.9-2.8c0-1.6,0.6-2.9,1.9-3.9
	c1.3-1,3.1-1.7,5.3-2l5.4-0.8v-1c0-2.4-1.4-3.7-4.2-3.7c-1.1,0-1.9,0.2-2.6,0.7c-0.7,0.4-1.2,0.9-1.5,1.5c-0.1,0.2-0.2,0.4-0.3,0.5
	c-0.1,0.1-0.2,0.1-0.4,0.1h-1.5c-0.2,0-0.4-0.1-0.6-0.2c-0.1-0.2-0.2-0.4-0.2-0.6c0-0.6,0.3-1.2,0.8-1.9c0.5-0.7,1.3-1.4,2.4-1.9
	c1.1-0.6,2.4-0.8,4-0.8c2.7,0,4.6,0.6,5.8,1.9c1.2,1.2,1.8,2.8,1.8,4.7v11.7c0,0.2-0.1,0.4-0.3,0.6c-0.1,0.1-0.3,0.2-0.6,0.2h-1.7
	c-0.2,0-0.4-0.1-0.6-0.2c-0.1-0.2-0.2-0.4-0.2-0.6v-1.5c-0.5,0.8-1.3,1.4-2.3,1.9C647.2,299.1,645.9,299.4,644.3,299.4z
	 M645.1,296.7c1.6,0,2.8-0.5,3.8-1.5c1-1,1.5-2.5,1.5-4.4v-1l-4.2,0.6c-1.7,0.2-3,0.6-3.9,1.2c-0.9,0.6-1.3,1.3-1.3,2.1
	c0,1,0.4,1.7,1.2,2.2C643.1,296.4,644,296.7,645.1,296.7z"/>
<path class="st7" d="M659.8,299c-0.2,0-0.4-0.1-0.6-0.2c-0.1-0.2-0.2-0.4-0.2-0.6v-17.1c0-0.2,0.1-0.4,0.2-0.6
	c0.2-0.2,0.4-0.3,0.6-0.3h1.7c0.2,0,0.4,0.1,0.6,0.3c0.2,0.1,0.3,0.3,0.3,0.6v1.6c0.7-0.9,1.5-1.6,2.4-2.1c1-0.5,2.1-0.7,3.6-0.7
	c2.3,0,4.1,0.7,5.4,2.2c1.3,1.5,1.9,3.4,1.9,5.9v10.2c0,0.2-0.1,0.4-0.3,0.6c-0.1,0.1-0.3,0.2-0.6,0.2H673c-0.2,0-0.4-0.1-0.6-0.2
	c-0.1-0.2-0.2-0.4-0.2-0.6v-10c0-1.7-0.4-3-1.3-4c-0.8-0.9-2-1.4-3.6-1.4c-1.5,0-2.7,0.5-3.6,1.4c-0.9,0.9-1.3,2.2-1.3,3.9v10
	c0,0.2-0.1,0.4-0.3,0.6c-0.1,0.1-0.3,0.2-0.6,0.2H659.8z"/>
<path class="st7" d="M688.4,299.4c-2.6,0-4.6-0.7-6-2.2c-1.4-1.5-2.2-3.5-2.3-6.1l0-1.4l0-1.4c0.1-2.6,0.9-4.6,2.3-6.1
	c1.5-1.5,3.5-2.2,6-2.2c1.7,0,3.2,0.3,4.4,0.9c1.2,0.6,2.1,1.4,2.7,2.3c0.6,0.9,0.9,1.8,1,2.7c0,0.2,0,0.4-0.2,0.6
	c-0.2,0.1-0.4,0.2-0.6,0.2h-1.7c-0.2,0-0.4,0-0.5-0.1s-0.2-0.3-0.4-0.6c-0.4-1.2-1-2-1.7-2.4c-0.7-0.5-1.7-0.8-2.8-0.8
	c-1.5,0-2.7,0.5-3.6,1.4c-0.9,0.9-1.3,2.3-1.4,4.2l0,1.3l0,1.2c0.1,1.9,0.5,3.3,1.4,4.2c0.9,0.9,2.1,1.4,3.6,1.4
	c1.1,0,2.1-0.2,2.8-0.7c0.7-0.5,1.3-1.3,1.7-2.5c0.1-0.3,0.2-0.5,0.4-0.6c0.1-0.1,0.3-0.2,0.5-0.2h1.7c0.2,0,0.4,0.1,0.6,0.3
	c0.2,0.1,0.2,0.3,0.2,0.6c0,0.9-0.4,1.8-1,2.7c-0.6,0.9-1.5,1.7-2.7,2.3C691.6,299,690.1,299.4,688.4,299.4z"/>
<path class="st7" d="M703.4,305.8c-0.2,0-0.4-0.1-0.5-0.2c-0.1-0.1-0.2-0.3-0.2-0.5c0-0.2,0.1-0.4,0.2-0.6l2.8-6.6l-6.9-16.2
	c-0.1-0.3-0.2-0.5-0.2-0.6c0-0.2,0.1-0.4,0.2-0.5c0.1-0.1,0.3-0.2,0.5-0.2h1.8c0.4,0,0.7,0.2,0.9,0.6l5.5,13.1l5.6-13.1
	c0.2-0.4,0.5-0.6,0.9-0.6h1.7c0.2,0,0.4,0.1,0.5,0.2c0.1,0.1,0.2,0.3,0.2,0.5c0,0.1-0.1,0.3-0.2,0.6L706,305.2
	c-0.2,0.4-0.5,0.6-0.9,0.6H703.4z"/>
<path class="st3" d="M819,967l85.2,41l21,92.2l-59,74h-94.6l-59-74l21-92.2L819,967z"/>
<path class="st4" d="M820.2,946.6l-0.7-0.3l-0.7,0.3l-98.1,47.3l-0.7,0.3l-0.2,0.7l-24.2,106.2l-0.2,0.7l0.5,0.6l67.9,85.2l0.5,0.6
	h0.7H874h0.7l0.5-0.6l67.9-85.2l0.5-0.6l-0.2-0.7l-24.2-106.2l-0.2-0.7l-0.7-0.3L820.2,946.6z"/>
<path class="st2" d="M783.3,1104.6v-79.8h0.6h88c5,0,9.2,4,9.3,9l0,0c0.1,2.5-0.9,4.8-2.6,6.6c-1.9,2-4.5,3.1-7.3,3.1h0h-12.7
	c-2.1,0-3.8,1.7-3.9,3.8v79.2v0.6h-0.5h-87.4h-0.1c-5.3,0.1-9.6-4.1-9.9-9.3l0,0v0v-0.3v0v0c0.2-5,4.3-9,9.4-9c0,0,0,0,0,0
	 M783.3,1104.6 M783.3,1104.6c0,2.1-1.7,3.8-3.9,3.8 M783.3,1104.6c0,0,0.2,1.3-1.1,2.7c-1.1,1.3-2.8,1.2-2.8,1.2 M766.2,1108.4
	h13.2 M779.4,1108.4 M871.8,1021.5L871.8,1021.5c6.8,0,12.4,5.4,12.6,12.2c0,0.1,0,0.1,0,0.2c0,0.1,0,0.1,0,0.2v0v0c0,0,0,0.1,0,0.1
	v94.5c0,7-5.7,12.6-12.7,12.6h-13.2c-2.1,0-3.8-1.7-3.9-3.8v-6.6v-0.6h-0.5h-51.7h-36.3c0,0,0,0,0,0c0,0-0.1,0-0.1,0l0,0h0
	c-6.8-0.3-12.3-5.8-12.5-12.6v-94.6l0,0c0-3.4,1.3-6.6,3.7-9c2.4-2.4,5.6-3.7,9-3.7h0h13.2c2.1,0,3.8,1.7,3.9,3.9v6.6v0.5h0.6H871.8
	z M884.5,1034.3C884.5,1034.3,884.5,1034.3,884.5,1034.3L884.5,1034.3L884.5,1034.3z M758.4,1018.1c0,0,1.2-1.5,1.2-1.5
	s-1.6,0.8-2.7,6.1c0,0.1,0,0.5,0,0.5l0,0v84.8v1.2l0.9-0.8c2.3-2.1,5.3-3.2,8.4-3.2l0,0h13.2h0.5v-0.6v-90.2v-0.6h-0.5h-13.2v0.6
	v-0.6l0,0C763.3,1013.8,760,1015.4,758.4,1018.1z M858,1137.6v0.6h0.5h13.2h0c5.2,0,9.3-4.2,9.3-9.3l0,0v-85v-1.2l-0.9,0.8
	c-2.5,2.2-5.6,3.5-9,3.5h-12.7H858v0.6V1137.6z"/>
<path class="st3" d="M783.8,1024.8c0,0,69.6-0.1,88.9,0c3,0,8.4,1.2,8.4,9c0,7.7-7,9.4-8,9.5l-15.1,0.2c0,0-1.5,0.1-2.3,1
	c-0.6,0.7-1,2.1-1,2.8l-0.5,79.8l-89.5,0c0,0-7.9-0.7-7.8-10.2c0-6.3,6-8.4,7.6-8.5h15c3.4-0.1,3.9-0.5,3.9-3.8L783.8,1024.8z"/>
<path class="st5" d="M846.1,1068.9l-5.1-1.3c-0.3-0.8-0.6-1.5-0.9-2.3l2.7-4.6c0.3-0.5,0.2-1.1-0.2-1.5l-7.6-7.7
	c-0.4-0.4-1-0.4-1.4-0.2l-4.5,2.8c-0.8-0.4-1.5-0.7-2.3-1l-1.3-5.2c-0.1-0.5-0.6-0.9-1.1-0.9h-10.7c-0.5,0-1,0.4-1.1,0.9l-1.3,5.2
	c-0.8,0.3-1.5,0.6-2.3,1l-4.5-2.8c-0.5-0.3-1-0.2-1.4,0.2l-7.6,7.7c-0.4,0.4-0.5,1-0.2,1.5l2.7,4.6c-0.4,0.8-0.7,1.5-0.9,2.3
	l-5.1,1.3c-0.5,0.1-0.9,0.6-0.9,1.2v10.9c0,0.6,0.4,1,0.9,1.2l5.1,1.3c0.3,0.8,0.6,1.5,0.9,2.3l-2.7,4.6c-0.3,0.5-0.2,1.1,0.2,1.5
	l7.6,7.7c0.4,0.4,1,0.5,1.4,0.2l4.5-2.8c0.8,0.4,1.5,0.7,2.3,1l1.3,5.2c0.1,0.5,0.6,0.9,1.1,0.9h10.7c0.5,0,1-0.4,1.1-0.9l1.3-5.2
	c0.8-0.3,1.5-0.6,2.3-1l4.5,2.8c0.5,0.3,1,0.2,1.4-0.2l7.6-7.7c0.4-0.4,0.5-1,0.2-1.5l-2.7-4.6c0.4-0.8,0.7-1.5,0.9-2.3l5.1-1.3
	c0.5-0.1,0.9-0.6,0.9-1.2V1070C847,1069.5,846.6,1069,846.1,1068.9z M844.7,1080l-4.9,1.2c-0.4,0.1-0.7,0.4-0.8,0.8
	c-0.3,1-0.8,2.1-1.3,3.2c-0.2,0.4-0.2,0.8,0,1.2l2.6,4.4l-6.3,6.4l-4.3-2.6c-0.3-0.2-0.8-0.2-1.1,0c-1,0.5-2.1,1-3.1,1.3
	c-0.4,0.1-0.7,0.4-0.8,0.8l-1.2,4.9h-8.9l-1.2-4.9c-0.1-0.4-0.4-0.7-0.8-0.8c-1-0.3-2.1-0.8-3.1-1.3c-0.4-0.2-0.8-0.2-1.1,0
	l-4.3,2.6l-6.3-6.4l2.6-4.4c0.2-0.4,0.2-0.8,0-1.2c-0.5-1-1-2.1-1.3-3.2c-0.1-0.4-0.4-0.7-0.8-0.8l-4.9-1.2v-9.1l4.9-1.2
	c0.4-0.1,0.7-0.4,0.8-0.8c0.3-1,0.8-2.1,1.3-3.2c0.2-0.4,0.2-0.8,0-1.2l-2.6-4.4l6.3-6.4l4.3,2.6c0.3,0.2,0.8,0.2,1.1,0
	c1-0.5,2.1-1,3.1-1.3c0.4-0.1,0.7-0.4,0.8-0.8l1.2-4.9h8.9l1.2,4.9c0.1,0.4,0.4,0.7,0.8,0.8c1,0.3,2.1,0.8,3.1,1.3
	c0.4,0.2,0.8,0.2,1.1,0l4.3-2.6l6.3,6.4l-2.6,4.4c-0.2,0.4-0.2,0.8,0,1.2c0.5,1,1,2.1,1.3,3.2c0.1,0.4,0.4,0.7,0.8,0.8l4.9,1.2V1080
	z"/>
<path class="st13" d="M844.7,1080l-4.9,1.2c-0.4,0.1-0.7,0.4-0.8,0.8c-0.3,1-0.8,2.1-1.3,3.2c-0.2,0.4-0.2,0.8,0,1.2l2.6,4.4
	l-6.3,6.4l-4.3-2.6c-0.3-0.2-0.8-0.2-1.1,0c-1,0.5-2.1,1-3.1,1.3c-0.4,0.1-0.7,0.4-0.8,0.8l-1.2,4.9h-8.9l-1.2-4.9
	c-0.1-0.4-0.4-0.7-0.8-0.8c-1-0.3-2.1-0.8-3.1-1.3c-0.4-0.2-0.8-0.2-1.1,0l-4.3,2.6l-6.3-6.4l2.6-4.4c0.2-0.4,0.2-0.8,0-1.2
	c-0.5-1-1-2.1-1.3-3.2c-0.1-0.4-0.4-0.7-0.8-0.8l-4.9-1.2v-9.1l4.9-1.2c0.4-0.1,0.7-0.4,0.8-0.8c0.3-1,0.8-2.1,1.3-3.2
	c0.2-0.4,0.2-0.8,0-1.2l-2.6-4.4l6.3-6.4l4.3,2.6c0.3,0.2,0.8,0.2,1.1,0c1-0.5,2.1-1,3.1-1.3c0.4-0.1,0.7-0.4,0.8-0.8l1.2-4.9h8.9
	l1.2,4.9c0.1,0.4,0.4,0.7,0.8,0.8c1,0.3,2.1,0.8,3.1,1.3c0.4,0.2,0.8,0.2,1.1,0l4.3-2.6l6.3,6.4l-2.6,4.4c-0.2,0.4-0.2,0.8,0,1.2
	c0.5,1,1,2.1,1.3,3.2c0.1,0.4,0.4,0.7,0.8,0.8l4.9,1.2V1080z"/>
<path class="st14" d="M819,1061.2c-7.6,0-13.8,6.4-13.8,14.3s6.2,14.3,13.8,14.3s13.8-6.4,13.8-14.3S826.6,1061.2,819,1061.2z
	 M819,1087.4c-6.4,0-11.5-5.4-11.5-11.9s5.2-11.9,11.5-11.9s11.5,5.4,11.5,11.9S825.4,1087.4,819,1087.4z"/>
<path class="st14" d="M805,1075.5c0-8,6.3-14.5,14-14.5s14,6.5,14,14.5s-6.3,14.5-14,14.5S805,1083.5,805,1075.5z M807.7,1075.5
	c0,6.5,5.1,11.7,11.3,11.7s11.3-5.3,11.3-11.7s-5.1-11.7-11.3-11.7S807.7,1069,807.7,1075.5z M805.2,1075.5
	c0-7.9,6.2-14.3,13.8-14.3s13.8,6.4,13.8,14.3s-6.2,14.3-13.8,14.3S805.2,1083.4,805.2,1075.5z M807.5,1075.5
	c0,6.6,5.2,11.9,11.5,11.9s11.5-5.4,11.5-11.9s-5.2-11.9-11.5-11.9S807.5,1068.9,807.5,1075.5z"/>
<path class="st14" d="M819,1087.2c-6.3,0-11.3-5.3-11.3-11.7s5.1-11.7,11.3-11.7s11.3,5.3,11.3,11.7S825.3,1087.2,819,1087.2z"/>
<path class="st6" d="M819,1061.2c-7.6,0-13.8,6.4-13.8,14.3s6.2,14.3,13.8,14.3s13.8-6.4,13.8-14.3S826.6,1061.2,819,1061.2z
	 M819,1087.4c-6.4,0-11.5-5.4-11.5-11.9s5.2-11.9,11.5-11.9s11.5,5.4,11.5,11.9S825.4,1087.4,819,1087.4z"/>
<path class="st7" d="M751.2,1242c-0.2,0-0.4-0.1-0.6-0.2c-0.1-0.2-0.2-0.4-0.2-0.6v-23.5c0-0.3,0.1-0.5,0.2-0.6
	c0.2-0.2,0.4-0.2,0.6-0.2h9.1c2.7,0,4.8,0.7,6.4,2c1.6,1.3,2.3,3.2,2.3,5.7c0,2.5-0.8,4.4-2.3,5.7c-1.5,1.3-3.7,1.9-6.4,1.9H754v9
	c0,0.2-0.1,0.4-0.3,0.6c-0.2,0.2-0.4,0.2-0.6,0.2H751.2z M760.2,1229.2c1.8,0,3.1-0.4,4-1.2c0.9-0.8,1.4-1.9,1.4-3.5
	c0-1.5-0.4-2.7-1.3-3.4c-0.9-0.8-2.2-1.2-4-1.2H754v9.3H760.2z"/>
<path class="st7" d="M780.5,1242.4c-2.6,0-4.7-0.7-6.2-2.2c-1.4-1.5-2.2-3.5-2.3-5.9l0-1.5l0-1.6c0.1-2.4,0.9-4.4,2.3-5.9
	c1.5-1.5,3.5-2.3,6.1-2.3c2.6,0,4.7,0.8,6.1,2.3c1.5,1.5,2.2,3.5,2.3,5.9c0,0.3,0,0.8,0,1.6s0,1.3,0,1.5c-0.1,2.5-0.9,4.5-2.3,5.9
	C785.1,1241.6,783.1,1242.4,780.5,1242.4z M780.5,1239.6c1.5,0,2.7-0.5,3.6-1.4c0.9-1,1.4-2.3,1.4-4.1c0-0.2,0-0.7,0-1.4
	s0-1.1,0-1.4c-0.1-1.8-0.6-3.2-1.4-4.1c-0.9-1-2.1-1.4-3.6-1.4c-1.5,0-2.7,0.5-3.6,1.4s-1.4,2.3-1.4,4.1l0,1.4l0,1.4
	c0,1.8,0.5,3.2,1.4,4.1C777.8,1239.1,779,1239.6,780.5,1239.6z"/>
<path class="st7" d="M794.3,1242c-0.2,0-0.4-0.1-0.6-0.2c-0.1-0.2-0.2-0.4-0.2-0.6v-17c0-0.2,0.1-0.4,0.2-0.6
	c0.2-0.2,0.4-0.2,0.6-0.2h1.7c0.2,0,0.4,0.1,0.6,0.2c0.2,0.2,0.3,0.4,0.3,0.6v1.6c1-1.6,2.7-2.4,5-2.4h1.4c0.2,0,0.4,0.1,0.6,0.2
	c0.2,0.2,0.3,0.3,0.3,0.6v1.5c0,0.2-0.1,0.4-0.3,0.6c-0.1,0.1-0.3,0.2-0.6,0.2h-2.2c-1.3,0-2.3,0.4-3.1,1.2
	c-0.7,0.7-1.1,1.8-1.1,3.1v10.6c0,0.2-0.1,0.4-0.3,0.6c-0.2,0.2-0.4,0.2-0.6,0.2H794.3z"/>
<path class="st7" d="M814.5,1242c-3.8,0-5.7-2.1-5.7-6.3v-9.5H806c-0.2,0-0.4-0.1-0.6-0.2c-0.1-0.2-0.2-0.4-0.2-0.6v-1.2
	c0-0.2,0.1-0.4,0.2-0.6c0.2-0.2,0.4-0.2,0.6-0.2h2.8v-6c0-0.2,0.1-0.4,0.2-0.6c0.2-0.2,0.4-0.2,0.6-0.2h1.7c0.2,0,0.4,0.1,0.6,0.2
	c0.2,0.2,0.3,0.3,0.3,0.6v6h4.5c0.2,0,0.4,0.1,0.6,0.2c0.2,0.2,0.3,0.3,0.3,0.6v1.2c0,0.2-0.1,0.5-0.3,0.6c-0.1,0.2-0.3,0.2-0.6,0.2
	h-4.5v9.2c0,1.2,0.2,2.1,0.6,2.7c0.4,0.6,1.1,0.9,2,0.9h2.2c0.2,0,0.4,0.1,0.6,0.2c0.2,0.1,0.3,0.3,0.3,0.6v1.3
	c0,0.2-0.1,0.4-0.3,0.6c-0.1,0.2-0.3,0.2-0.6,0.2H814.5z"/>
<path class="st7" d="M826.4,1242.4c-1.2,0-2.3-0.2-3.3-0.7s-1.8-1.1-2.4-1.9c-0.6-0.8-0.9-1.8-0.9-2.8c0-1.6,0.6-2.9,1.9-3.9
	c1.3-1,3.1-1.7,5.3-2l5.4-0.8v-1c0-2.4-1.4-3.7-4.2-3.7c-1.1,0-1.9,0.2-2.6,0.7c-0.7,0.4-1.2,1-1.5,1.6c-0.1,0.2-0.2,0.4-0.3,0.5
	c-0.1,0.1-0.2,0.1-0.4,0.1h-1.5c-0.2,0-0.4-0.1-0.6-0.2c-0.1-0.2-0.2-0.4-0.2-0.6c0-0.6,0.3-1.2,0.8-1.9c0.5-0.8,1.3-1.4,2.4-1.9
	c1.1-0.6,2.4-0.8,4-0.8c2.7,0,4.6,0.6,5.8,1.9c1.2,1.2,1.8,2.8,1.8,4.7v11.7c0,0.2-0.1,0.4-0.3,0.6c-0.1,0.2-0.3,0.2-0.6,0.2h-1.7
	c-0.2,0-0.4-0.1-0.6-0.2c-0.1-0.2-0.2-0.4-0.2-0.6v-1.6c-0.5,0.8-1.3,1.4-2.3,1.9C829.3,1242.1,828,1242.4,826.4,1242.4z
	 M827.2,1239.7c1.6,0,2.8-0.5,3.8-1.5c1-1,1.5-2.5,1.5-4.4v-1l-4.2,0.6c-1.7,0.2-3,0.7-3.9,1.2c-0.9,0.5-1.3,1.3-1.3,2.1
	c0,1,0.4,1.7,1.2,2.2C825.2,1239.4,826.1,1239.7,827.2,1239.7z"/>
<path class="st7" d="M850.3,1242.4c-2.6,0-4.6-0.9-5.9-2.7v1.5c0,0.2-0.1,0.4-0.3,0.6c-0.1,0.2-0.3,0.2-0.6,0.2h-1.7
	c-0.2,0-0.4-0.1-0.6-0.2c-0.1-0.2-0.2-0.4-0.2-0.6v-23.9c0-0.2,0.1-0.4,0.2-0.6c0.2-0.2,0.4-0.2,0.6-0.2h1.8c0.2,0,0.4,0.1,0.6,0.2
	c0.1,0.2,0.2,0.3,0.2,0.6v8.3c1.4-1.8,3.4-2.6,5.8-2.6c2.5,0,4.4,0.8,5.7,2.5c1.3,1.6,2,3.7,2.1,6.2c0,0.3,0,0.6,0,1.1s0,0.8,0,1.1
	c-0.1,2.5-0.8,4.6-2.1,6.2C854.7,1241.5,852.8,1242.4,850.3,1242.4z M849.6,1239.4c1.7,0,2.9-0.5,3.7-1.6c0.8-1.1,1.2-2.4,1.3-4.2
	c0-0.2,0-0.6,0-1c0-4.5-1.7-6.8-5-6.8c-1.6,0-2.8,0.5-3.7,1.6c-0.9,1.1-1.3,2.3-1.4,3.7l0,1.4l0,1.4c0.1,1.5,0.5,2.8,1.3,3.9
	C846.7,1238.9,847.9,1239.4,849.6,1239.4z"/>
<path class="st7" d="M863.3,1242c-0.2,0-0.4-0.1-0.6-0.2c-0.1-0.2-0.2-0.4-0.2-0.6v-23.9c0-0.2,0.1-0.4,0.2-0.6
	c0.2-0.2,0.4-0.2,0.6-0.2h1.7c0.2,0,0.4,0.1,0.6,0.2c0.2,0.2,0.3,0.3,0.3,0.6v23.9c0,0.2-0.1,0.4-0.3,0.6c-0.1,0.2-0.3,0.2-0.6,0.2
	H863.3z"/>
<path class="st7" d="M878.7,1242.4c-2.5,0-4.5-0.8-5.9-2.3c-1.5-1.5-2.3-3.6-2.4-6.3l0-1.2l0-1.2c0.2-2.6,1-4.7,2.4-6.2
	c1.5-1.5,3.4-2.3,5.9-2.3c2.7,0,4.7,0.8,6.2,2.6c1.5,1.7,2.2,4,2.2,6.8v0.6c0,0.2-0.1,0.4-0.3,0.6c-0.1,0.1-0.3,0.2-0.6,0.2h-12.5
	v0.3c0.1,1.6,0.5,2.9,1.4,4c0.9,1.1,2.1,1.6,3.5,1.6c1.1,0,2-0.2,2.7-0.6c0.7-0.5,1.2-0.9,1.6-1.4c0.2-0.3,0.4-0.5,0.5-0.5
	c0.1-0.1,0.3-0.1,0.6-0.1h1.8c0.2,0,0.4,0.1,0.5,0.2c0.1,0.1,0.2,0.3,0.2,0.5c0,0.5-0.3,1.2-1,1.9c-0.6,0.8-1.6,1.4-2.8,1.9
	C881.6,1242.1,880.3,1242.4,878.7,1242.4z M883.7,1231.3v-0.1c0-1.7-0.5-3-1.4-4c-0.9-1.1-2.1-1.6-3.6-1.6c-1.5,0-2.7,0.5-3.6,1.6
	c-0.9,1-1.3,2.4-1.3,4v0.1H883.7z"/>
<path class="st7" d="M745,1286.4c-2.6,0-4.6-0.9-5.9-2.7v1.5c0,0.2-0.1,0.4-0.3,0.6c-0.1,0.2-0.3,0.2-0.6,0.2h-1.7
	c-0.2,0-0.4-0.1-0.6-0.2c-0.1-0.2-0.2-0.4-0.2-0.6v-23.9c0-0.2,0.1-0.4,0.2-0.6c0.2-0.2,0.4-0.2,0.6-0.2h1.8c0.2,0,0.4,0.1,0.6,0.2
	c0.1,0.2,0.2,0.3,0.2,0.6v8.3c1.4-1.8,3.4-2.6,5.8-2.6c2.5,0,4.4,0.8,5.7,2.5c1.3,1.6,2,3.7,2.1,6.2c0,0.3,0,0.6,0,1.1s0,0.8,0,1.1
	c-0.1,2.5-0.8,4.6-2.1,6.2C749.4,1285.5,747.5,1286.4,745,1286.4z M744.3,1283.4c1.7,0,2.9-0.5,3.7-1.6c0.8-1.1,1.2-2.4,1.3-4.2
	c0-0.2,0-0.6,0-1c0-4.5-1.7-6.8-5-6.8c-1.6,0-2.8,0.5-3.7,1.6c-0.9,1.1-1.3,2.3-1.4,3.7l0,1.4l0,1.4c0.1,1.5,0.5,2.8,1.3,3.9
	C741.4,1282.9,742.6,1283.4,744.3,1283.4z"/>
<path class="st7" d="M758,1286c-0.2,0-0.4-0.1-0.6-0.2c-0.1-0.2-0.2-0.4-0.2-0.6v-23.9c0-0.2,0.1-0.4,0.2-0.6
	c0.2-0.2,0.4-0.2,0.6-0.2h1.7c0.2,0,0.4,0.1,0.6,0.2c0.2,0.2,0.3,0.3,0.3,0.6v23.9c0,0.2-0.1,0.4-0.3,0.6c-0.1,0.2-0.3,0.2-0.6,0.2
	H758z"/>
<path class="st7" d="M772.9,1286.4c-2.3,0-4-0.7-5.3-2.2c-1.2-1.5-1.9-3.5-1.9-5.9v-10.2c0-0.2,0.1-0.4,0.2-0.6
	c0.2-0.2,0.4-0.2,0.6-0.2h1.8c0.2,0,0.4,0.1,0.6,0.2c0.2,0.2,0.3,0.3,0.3,0.6v10c0,3.6,1.6,5.4,4.7,5.4c1.5,0,2.7-0.5,3.6-1.4
	c0.9-1,1.3-2.3,1.3-4v-10c0-0.2,0.1-0.4,0.2-0.6c0.2-0.2,0.4-0.2,0.6-0.2h1.8c0.2,0,0.4,0.1,0.6,0.2c0.1,0.2,0.2,0.3,0.2,0.6v17.1
	c0,0.2-0.1,0.4-0.2,0.6c-0.1,0.2-0.3,0.2-0.6,0.2h-1.7c-0.2,0-0.4-0.1-0.6-0.2c-0.1-0.2-0.2-0.4-0.2-0.6v-1.6
	c-0.7,0.9-1.5,1.6-2.4,2.1C775.5,1286.1,774.3,1286.4,772.9,1286.4z"/>
<path class="st7" d="M795.1,1286.4c-2.5,0-4.5-0.8-5.9-2.3c-1.5-1.5-2.3-3.6-2.4-6.3l0-1.2l0-1.2c0.2-2.6,1-4.7,2.4-6.2
	c1.5-1.5,3.4-2.3,5.9-2.3c2.7,0,4.7,0.8,6.2,2.6c1.5,1.7,2.2,4,2.2,6.8v0.6c0,0.2-0.1,0.4-0.3,0.6c-0.1,0.1-0.3,0.2-0.6,0.2h-12.5
	v0.3c0.1,1.6,0.5,2.9,1.4,4c0.9,1.1,2.1,1.6,3.5,1.6c1.1,0,2-0.2,2.7-0.6c0.7-0.5,1.2-0.9,1.6-1.4c0.2-0.3,0.4-0.5,0.5-0.5
	c0.1-0.1,0.3-0.1,0.6-0.1h1.8c0.2,0,0.4,0.1,0.5,0.2c0.1,0.1,0.2,0.3,0.2,0.5c0,0.5-0.3,1.2-1,1.9c-0.6,0.8-1.6,1.4-2.8,1.9
	C798,1286.1,796.6,1286.4,795.1,1286.4z M800,1275.3v-0.1c0-1.7-0.5-3-1.4-4c-0.9-1.1-2.1-1.6-3.6-1.6s-2.7,0.5-3.6,1.6
	c-0.9,1-1.3,2.4-1.3,4v0.1H800z"/>
<path class="st7" d="M808.6,1292.8c-0.2,0-0.4-0.1-0.6-0.2c-0.1-0.2-0.2-0.3-0.2-0.6v-23.9c0-0.2,0.1-0.4,0.2-0.6
	c0.2-0.2,0.4-0.2,0.6-0.2h1.7c0.2,0,0.4,0.1,0.6,0.2c0.2,0.2,0.3,0.3,0.3,0.6v1.6c1.3-1.8,3.3-2.8,5.9-2.8c2.5,0,4.4,0.8,5.7,2.4
	c1.3,1.6,2,3.6,2.1,6.1c0,0.3,0,0.7,0,1.2c0,0.5,0,1,0,1.2c-0.1,2.5-0.8,4.5-2.1,6.1c-1.3,1.6-3.2,2.4-5.7,2.4
	c-2.5,0-4.4-0.9-5.8-2.7v8.3c0,0.2-0.1,0.4-0.2,0.6c-0.1,0.2-0.3,0.2-0.6,0.2H808.6z M816.2,1283.4c1.7,0,2.9-0.5,3.7-1.6
	c0.8-1.1,1.2-2.4,1.3-4.2c0-0.2,0-0.6,0-1c0-4.5-1.7-6.8-5-6.8c-1.7,0-2.9,0.6-3.7,1.7c-0.8,1.1-1.3,2.4-1.3,3.9l0,1.4l0,1.4
	c0,1.4,0.5,2.7,1.4,3.7C813.4,1282.9,814.6,1283.4,816.2,1283.4z"/>
<path class="st7" d="M830,1286c-0.2,0-0.4-0.1-0.6-0.2c-0.1-0.2-0.2-0.4-0.2-0.6v-17c0-0.2,0.1-0.4,0.2-0.6c0.2-0.2,0.4-0.2,0.6-0.2
	h1.7c0.2,0,0.4,0.1,0.6,0.2c0.2,0.2,0.3,0.4,0.3,0.6v1.6c1-1.6,2.7-2.4,5-2.4h1.4c0.2,0,0.4,0.1,0.6,0.2c0.2,0.2,0.3,0.3,0.3,0.6
	v1.5c0,0.2-0.1,0.4-0.3,0.6c-0.1,0.1-0.3,0.2-0.6,0.2h-2.2c-1.3,0-2.3,0.4-3.1,1.2c-0.7,0.7-1.1,1.8-1.1,3.1v10.6
	c0,0.2-0.1,0.4-0.3,0.6c-0.2,0.2-0.4,0.2-0.6,0.2H830z"/>
<path class="st7" d="M843.4,1263.8c-0.2,0-0.4-0.1-0.6-0.2c-0.1-0.2-0.2-0.4-0.2-0.6v-1.9c0-0.2,0.1-0.5,0.2-0.6
	c0.2-0.2,0.4-0.2,0.6-0.2h2.3c0.2,0,0.4,0.1,0.6,0.2c0.2,0.2,0.3,0.4,0.3,0.6v1.9c0,0.2-0.1,0.4-0.3,0.6c-0.2,0.2-0.4,0.2-0.6,0.2
	H843.4z M843.7,1286c-0.2,0-0.4-0.1-0.6-0.2c-0.1-0.2-0.2-0.4-0.2-0.6v-17.1c0-0.2,0.1-0.4,0.2-0.6c0.2-0.2,0.4-0.2,0.6-0.2h1.7
	c0.2,0,0.4,0.1,0.6,0.2c0.2,0.2,0.3,0.3,0.3,0.6v17.1c0,0.2-0.1,0.4-0.3,0.6c-0.1,0.2-0.3,0.2-0.6,0.2H843.7z"/>
<path class="st7" d="M852.4,1286c-0.2,0-0.4-0.1-0.6-0.2c-0.1-0.2-0.2-0.4-0.2-0.6v-17.1c0-0.2,0.1-0.4,0.2-0.6
	c0.2-0.2,0.4-0.2,0.6-0.2h1.7c0.2,0,0.4,0.1,0.6,0.2c0.2,0.2,0.3,0.3,0.3,0.6v1.6c0.7-0.9,1.5-1.6,2.4-2c1-0.5,2.1-0.7,3.6-0.7
	c2.3,0,4.1,0.7,5.4,2.2c1.3,1.5,1.9,3.4,1.9,5.9v10.2c0,0.2-0.1,0.4-0.3,0.6c-0.1,0.2-0.3,0.2-0.6,0.2h-1.8c-0.2,0-0.4-0.1-0.6-0.2
	c-0.1-0.2-0.2-0.4-0.2-0.6v-10c0-1.7-0.4-3-1.3-4c-0.8-0.9-2-1.4-3.6-1.4c-1.5,0-2.7,0.5-3.6,1.4c-0.9,0.9-1.3,2.2-1.3,3.9v10
	c0,0.2-0.1,0.4-0.3,0.6c-0.1,0.2-0.3,0.2-0.6,0.2H852.4z"/>
<path class="st7" d="M880.5,1286c-3.8,0-5.7-2.1-5.7-6.3v-9.5H872c-0.2,0-0.4-0.1-0.6-0.2c-0.1-0.2-0.2-0.4-0.2-0.6v-1.2
	c0-0.2,0.1-0.4,0.2-0.6c0.2-0.2,0.4-0.2,0.6-0.2h2.8v-6c0-0.2,0.1-0.4,0.2-0.6c0.2-0.2,0.4-0.2,0.6-0.2h1.7c0.2,0,0.4,0.1,0.6,0.2
	c0.2,0.2,0.3,0.3,0.3,0.6v6h4.5c0.2,0,0.4,0.1,0.6,0.2c0.2,0.2,0.3,0.3,0.3,0.6v1.2c0,0.2-0.1,0.5-0.3,0.6c-0.1,0.2-0.3,0.2-0.6,0.2
	h-4.5v9.2c0,1.2,0.2,2.1,0.6,2.7c0.4,0.6,1.1,0.9,2,0.9h2.2c0.2,0,0.4,0.1,0.6,0.2c0.2,0.1,0.3,0.3,0.3,0.6v1.3
	c0,0.2-0.1,0.4-0.3,0.6c-0.1,0.2-0.3,0.2-0.6,0.2H880.5z"/>
<path class="st7" d="M893.7,1286.4c-1.7,0-3.1-0.3-4.2-0.8c-1.1-0.5-2-1.2-2.6-1.9c-0.6-0.7-0.8-1.3-0.8-1.7c0-0.2,0.1-0.4,0.3-0.5
	c0.2-0.2,0.4-0.2,0.6-0.2h1.6c0.2,0,0.5,0.1,0.6,0.4c0.6,0.7,1.2,1.2,1.9,1.6c0.7,0.4,1.6,0.6,2.7,0.6c1.2,0,2.3-0.2,3-0.7
	c0.8-0.5,1.2-1.2,1.2-2.1c0-0.6-0.2-1-0.5-1.4c-0.3-0.4-0.9-0.7-1.7-1c-0.8-0.3-1.9-0.6-3.5-0.9c-2.1-0.5-3.6-1.1-4.5-2
	c-0.9-0.9-1.3-2-1.3-3.4c0-0.9,0.3-1.8,0.8-2.6c0.6-0.8,1.3-1.5,2.4-2c1.1-0.5,2.3-0.8,3.8-0.8c1.5,0,2.8,0.2,3.9,0.8
	c1.1,0.5,1.9,1.1,2.4,1.8c0.6,0.7,0.8,1.2,0.8,1.7c0,0.2-0.1,0.4-0.3,0.5c-0.1,0.1-0.3,0.2-0.5,0.2h-1.5c-0.3,0-0.5-0.1-0.7-0.4
	c-0.4-0.5-0.7-0.8-1-1c-0.3-0.3-0.7-0.5-1.2-0.7c-0.5-0.2-1.2-0.3-1.9-0.3c-1.2,0-2,0.2-2.7,0.8c-0.6,0.5-0.9,1.1-0.9,1.9
	c0,0.5,0.1,0.9,0.4,1.3c0.3,0.3,0.8,0.7,1.5,0.9c0.8,0.3,1.9,0.6,3.3,0.9c2.3,0.5,3.9,1.2,4.8,2.1c1,0.9,1.4,2,1.4,3.4
	c0,1-0.3,2-0.9,2.8c-0.6,0.8-1.5,1.5-2.7,2C896.7,1286.1,895.3,1286.4,893.7,1286.4z"/>
<path class="st3" d="M399,967l85.2,41l21,92.2l-59,74h-94.6l-59-74l21-92.2L399,967z"/>
<path class="st4" d="M400.2,946.6l-0.7-0.3l-0.7,0.3l-98.1,47.3l-0.7,0.3l-0.2,0.7l-24.2,106.2l-0.2,0.7l0.5,0.6l67.9,85.2l0.5,0.6
	h0.7H454h0.7l0.5-0.6l67.9-85.2l0.5-0.6l-0.2-0.7l-24.2-106.2l-0.2-0.7l-0.6-0.3L400.2,946.6z"/>
<path class="st15" d="M350.4,1124.6v-97.2h97.2v97.2H350.4z"/>
<path class="st2" d="M397.6,1042c0,0.8,0.6,1.4,1.4,1.4s1.4-0.6,1.4-1.4H397.6z M400,1009c-0.5-0.5-1.4-0.5-2,0l-8.9,8.9
	c-0.5,0.5-0.5,1.4,0,2c0.5,0.5,1.4,0.5,2,0l7.9-7.9l7.9,7.9c0.5,0.5,1.4,0.5,2,0c0.5-0.6,0.5-1.4,0-2L400,1009z M400.4,1042v-32
	h-2.8v32H400.4z"/>
<path class="st2" d="M397.6,1110c0-0.8,0.6-1.4,1.4-1.4s1.4,0.6,1.4,1.4H397.6z M400,1143c-0.5,0.6-1.4,0.6-2,0l-8.9-8.9
	c-0.5-0.5-0.5-1.4,0-2c0.5-0.5,1.4-0.5,2,0l7.9,7.9l7.9-7.9c0.5-0.5,1.4-0.5,2,0c0.5,0.6,0.5,1.4,0,2L400,1143z M400.4,1110v32h-2.8
	v-32H400.4z"/>
<path class="st2" d="M433,1074.6c-0.8,0-1.4,0.6-1.4,1.4s0.6,1.4,1.4,1.4V1074.6z M466,1077c0.5-0.6,0.5-1.4,0-2l-8.9-8.9
	c-0.5-0.5-1.4-0.5-2,0c-0.5,0.6-0.5,1.4,0,2l7.9,7.9l-7.9,7.9c-0.5,0.5-0.5,1.4,0,2c0.5,0.5,1.4,0.5,2,0L466,1077z M433,1077.4h32
	v-2.8h-32V1077.4z"/>
<path class="st2" d="M365,1074.6c0.8,0,1.4,0.6,1.4,1.4s-0.6,1.4-1.4,1.4V1074.6z M332,1077c-0.5-0.6-0.5-1.4,0-2l8.9-8.9
	c0.5-0.5,1.4-0.5,2,0c0.5,0.6,0.5,1.4,0,2l-7.9,7.9l7.9,7.9c0.5,0.5,0.5,1.4,0,2c-0.5,0.5-1.4,0.5-2,0L332,1077z M365,1077.4h-32
	v-2.8h32V1077.4z"/>
<rect x="375.4" y="1052.4" class="st16" width="47.2" height="47.2"/>
<path class="st7" d="M306.3,1242c-0.2,0-0.4-0.1-0.6-0.2c-0.1-0.2-0.2-0.4-0.2-0.6v-23.5c0-0.3,0.1-0.5,0.2-0.6
	c0.2-0.2,0.4-0.2,0.6-0.2H321c0.3,0,0.5,0.1,0.6,0.2c0.2,0.1,0.3,0.3,0.3,0.6v1.4c0,0.2-0.1,0.5-0.3,0.6c-0.1,0.1-0.3,0.2-0.6,0.2
	h-12v8.4h11.3c0.3,0,0.5,0.1,0.6,0.2c0.2,0.2,0.3,0.4,0.3,0.6v1.4c0,0.2-0.1,0.4-0.3,0.6c-0.2,0.1-0.4,0.2-0.6,0.2h-11.3v9.7
	c0,0.2-0.1,0.4-0.3,0.6c-0.2,0.2-0.4,0.2-0.6,0.2H306.3z"/>
<path class="st7" d="M326.3,1242c-0.2,0-0.4-0.1-0.6-0.2c-0.1-0.2-0.2-0.4-0.2-0.6v-17c0-0.2,0.1-0.4,0.2-0.6
	c0.2-0.2,0.4-0.2,0.6-0.2h1.7c0.2,0,0.4,0.1,0.6,0.2c0.2,0.2,0.3,0.4,0.3,0.6v1.6c1-1.6,2.7-2.4,5-2.4h1.4c0.2,0,0.4,0.1,0.6,0.2
	c0.2,0.2,0.3,0.3,0.3,0.6v1.5c0,0.2-0.1,0.4-0.3,0.6c-0.1,0.1-0.3,0.2-0.6,0.2h-2.2c-1.3,0-2.3,0.4-3.1,1.2
	c-0.7,0.7-1.1,1.8-1.1,3.1v10.6c0,0.2-0.1,0.4-0.3,0.6c-0.2,0.2-0.4,0.2-0.6,0.2H326.3z"/>
<path class="st7" d="M346.3,1242.4c-2.5,0-4.5-0.8-5.9-2.3c-1.5-1.5-2.3-3.6-2.4-6.3l0-1.2l0-1.2c0.2-2.6,1-4.7,2.4-6.2
	c1.5-1.5,3.4-2.3,5.9-2.3c2.7,0,4.7,0.8,6.2,2.6c1.5,1.7,2.2,4,2.2,6.8v0.6c0,0.2-0.1,0.4-0.3,0.6c-0.1,0.1-0.3,0.2-0.6,0.2h-12.5
	v0.3c0.1,1.6,0.5,2.9,1.4,4c0.9,1.1,2.1,1.6,3.5,1.6c1.1,0,2-0.2,2.7-0.6c0.7-0.5,1.2-0.9,1.6-1.4c0.2-0.3,0.4-0.5,0.5-0.5
	c0.1-0.1,0.3-0.1,0.6-0.1h1.8c0.2,0,0.4,0.1,0.5,0.2c0.1,0.1,0.2,0.3,0.2,0.5c0,0.5-0.3,1.2-1,1.9c-0.6,0.8-1.6,1.4-2.8,1.9
	C349.2,1242.1,347.9,1242.4,346.3,1242.4z M351.3,1231.3v-0.1c0-1.7-0.5-3-1.4-4c-0.9-1.1-2.1-1.6-3.6-1.6s-2.7,0.5-3.6,1.6
	c-0.9,1-1.3,2.4-1.3,4v0.1H351.3z"/>
<path class="st7" d="M366.5,1242.4c-2.5,0-4.5-0.8-5.9-2.3c-1.5-1.5-2.3-3.6-2.4-6.3l0-1.2l0-1.2c0.2-2.6,1-4.7,2.4-6.2
	c1.5-1.5,3.4-2.3,5.9-2.3c2.7,0,4.7,0.8,6.2,2.6c1.5,1.7,2.2,4,2.2,6.8v0.6c0,0.2-0.1,0.4-0.3,0.6c-0.1,0.1-0.3,0.2-0.6,0.2h-12.5
	v0.3c0.1,1.6,0.5,2.9,1.4,4c0.9,1.1,2.1,1.6,3.5,1.6c1.1,0,2-0.2,2.7-0.6c0.7-0.5,1.2-0.9,1.6-1.4c0.2-0.3,0.4-0.5,0.5-0.5
	c0.1-0.1,0.3-0.1,0.6-0.1h1.8c0.2,0,0.4,0.1,0.5,0.2c0.1,0.1,0.2,0.3,0.2,0.5c0,0.5-0.3,1.2-1,1.9c-0.6,0.8-1.6,1.4-2.8,1.9
	C369.4,1242.1,368,1242.4,366.5,1242.4z M371.4,1231.3v-0.1c0-1.7-0.5-3-1.4-4c-0.9-1.1-2.1-1.6-3.6-1.6c-1.5,0-2.7,0.5-3.6,1.6
	c-0.9,1-1.3,2.4-1.3,4v0.1H371.4z"/>
<path class="st7" d="M386,1242.4c-2.5,0-4.4-0.8-5.7-2.4s-1.9-3.7-2-6.2l0-1.1l0-1.1c0.1-2.5,0.7-4.5,2-6.2c1.3-1.7,3.2-2.5,5.7-2.5
	c2.5,0,4.4,0.9,5.8,2.6v-8.3c0-0.2,0.1-0.4,0.2-0.6c0.2-0.2,0.4-0.2,0.6-0.2h1.7c0.2,0,0.4,0.1,0.6,0.2c0.2,0.2,0.3,0.3,0.3,0.6
	v23.9c0,0.2-0.1,0.4-0.3,0.6c-0.1,0.2-0.3,0.2-0.6,0.2h-1.6c-0.2,0-0.4-0.1-0.6-0.2c-0.1-0.2-0.2-0.4-0.2-0.6v-1.5
	C390.5,1241.5,388.5,1242.4,386,1242.4z M386.7,1239.4c1.7,0,2.9-0.5,3.7-1.6c0.8-1.1,1.3-2.4,1.4-3.9c0-0.3,0-0.7,0-1.4
	c0-0.7,0-1.1,0-1.4c0-1.4-0.5-2.7-1.4-3.7c-0.9-1.1-2.1-1.6-3.7-1.6c-1.7,0-3,0.5-3.7,1.6c-0.8,1.1-1.2,2.4-1.3,4.2l0,1
	C381.7,1237.2,383.4,1239.4,386.7,1239.4z"/>
<path class="st7" d="M408.2,1242.4c-2.6,0-4.7-0.7-6.2-2.2c-1.4-1.5-2.2-3.5-2.3-5.9l0-1.5l0-1.6c0.1-2.4,0.9-4.4,2.3-5.9
	c1.5-1.5,3.5-2.3,6.1-2.3c2.6,0,4.7,0.8,6.1,2.3c1.5,1.5,2.2,3.5,2.3,5.9c0,0.3,0,0.8,0,1.6s0,1.3,0,1.5c-0.1,2.5-0.9,4.5-2.3,5.9
	C412.9,1241.6,410.8,1242.4,408.2,1242.4z M408.2,1239.6c1.5,0,2.7-0.5,3.6-1.4c0.9-1,1.4-2.3,1.4-4.1c0-0.2,0-0.7,0-1.4
	s0-1.1,0-1.4c-0.1-1.8-0.6-3.2-1.4-4.1c-0.9-1-2.1-1.4-3.6-1.4c-1.5,0-2.7,0.5-3.6,1.4s-1.4,2.3-1.4,4.1l0,1.4l0,1.4
	c0,1.8,0.5,3.2,1.4,4.1C405.5,1239.1,406.7,1239.6,408.2,1239.6z"/>
<path class="st7" d="M422,1242c-0.2,0-0.4-0.1-0.6-0.2c-0.1-0.2-0.2-0.4-0.2-0.6v-17.1c0-0.2,0.1-0.4,0.2-0.6
	c0.2-0.2,0.4-0.2,0.6-0.2h1.6c0.2,0,0.4,0.1,0.6,0.2c0.2,0.2,0.3,0.3,0.3,0.6v1.3c1.2-1.6,3-2.4,5.2-2.4c2.7,0,4.5,1.1,5.7,3.3
	c0.6-1,1.4-1.8,2.4-2.4c1.1-0.6,2.2-0.9,3.6-0.9c2,0,3.6,0.7,4.8,2c1.2,1.3,1.9,3.3,1.9,5.8v10.4c0,0.2-0.1,0.4-0.3,0.6
	c-0.1,0.2-0.3,0.2-0.6,0.2h-1.7c-0.2,0-0.4-0.1-0.6-0.2c-0.1-0.2-0.2-0.4-0.2-0.6v-10.1c0-1.9-0.4-3.2-1.2-4
	c-0.8-0.8-1.8-1.2-3.1-1.2c-1.1,0-2.1,0.4-2.9,1.3c-0.8,0.8-1.2,2.1-1.2,4v10.1c0,0.2-0.1,0.4-0.3,0.6c-0.1,0.2-0.3,0.2-0.6,0.2
	h-1.7c-0.2,0-0.4-0.1-0.6-0.2c-0.1-0.2-0.2-0.4-0.2-0.6v-10.1c0-1.9-0.4-3.2-1.2-4c-0.8-0.8-1.8-1.2-3-1.2c-1.1,0-2.1,0.4-2.9,1.3
	c-0.8,0.8-1.2,2.1-1.2,4v10.1c0,0.2-0.1,0.4-0.3,0.6c-0.1,0.2-0.3,0.2-0.6,0.2H422z"/>
<path class="st7" d="M469.7,1242.4c-2.6,0-4.7-0.7-6.2-2.2c-1.4-1.5-2.2-3.5-2.3-5.9l0-1.5l0-1.6c0.1-2.4,0.9-4.4,2.3-5.9
	c1.5-1.5,3.5-2.3,6.1-2.3s4.7,0.8,6.1,2.3c1.5,1.5,2.2,3.5,2.3,5.9c0,0.3,0,0.8,0,1.6s0,1.3,0,1.5c-0.1,2.5-0.9,4.5-2.3,5.9
	C474.4,1241.6,472.3,1242.4,469.7,1242.4z M469.7,1239.6c1.5,0,2.7-0.5,3.6-1.4c0.9-1,1.4-2.3,1.4-4.1c0-0.2,0-0.7,0-1.4
	s0-1.1,0-1.4c-0.1-1.8-0.6-3.2-1.4-4.1c-0.9-1-2.1-1.4-3.6-1.4c-1.5,0-2.7,0.5-3.6,1.4c-0.9,1-1.4,2.3-1.4,4.1l0,1.4l0,1.4
	c0,1.8,0.5,3.2,1.4,4.1C467,1239.1,468.2,1239.6,469.7,1239.6z"/>
<path class="st7" d="M485.2,1242c-0.2,0-0.4-0.1-0.6-0.2c-0.1-0.2-0.2-0.4-0.2-0.6v-15h-3.1c-0.2,0-0.4-0.1-0.6-0.2
	c-0.1-0.2-0.2-0.4-0.2-0.6v-1.2c0-0.2,0.1-0.4,0.2-0.6c0.2-0.2,0.4-0.2,0.6-0.2h3.1v-1.8c0-4.1,2.1-6.1,6.2-6.1h2.2
	c0.2,0,0.4,0.1,0.6,0.2c0.2,0.2,0.3,0.3,0.3,0.6v1.2c0,0.2-0.1,0.4-0.3,0.6c-0.1,0.2-0.3,0.2-0.6,0.2h-2.1c-1.1,0-1.8,0.3-2.3,0.9
	c-0.4,0.6-0.6,1.4-0.6,2.6v1.6h4.6c0.2,0,0.4,0.1,0.6,0.2c0.2,0.2,0.3,0.3,0.3,0.6v1.2c0,0.2-0.1,0.5-0.3,0.6
	c-0.1,0.2-0.3,0.2-0.6,0.2h-4.6v15c0,0.2-0.1,0.4-0.3,0.6c-0.1,0.2-0.3,0.2-0.6,0.2H485.2z"/>
<path class="st7" d="M307.8,1286.4c-2.5,0-4.4-0.8-5.7-2.4s-1.9-3.7-2-6.2l0-1.1l0-1.1c0.1-2.5,0.7-4.5,2-6.2
	c1.3-1.7,3.2-2.5,5.7-2.5c2.5,0,4.4,0.9,5.8,2.6v-8.3c0-0.2,0.1-0.4,0.2-0.6c0.2-0.2,0.4-0.2,0.6-0.2h1.7c0.2,0,0.4,0.1,0.6,0.2
	c0.2,0.2,0.3,0.3,0.3,0.6v23.9c0,0.2-0.1,0.4-0.3,0.6c-0.1,0.2-0.3,0.2-0.6,0.2h-1.6c-0.2,0-0.4-0.1-0.6-0.2
	c-0.1-0.2-0.2-0.4-0.2-0.6v-1.5C312.4,1285.5,310.4,1286.4,307.8,1286.4z M308.6,1283.4c1.7,0,2.9-0.5,3.7-1.6
	c0.8-1.1,1.3-2.4,1.4-3.9c0-0.3,0-0.7,0-1.4c0-0.7,0-1.1,0-1.4c0-1.4-0.5-2.7-1.4-3.7c-0.9-1.1-2.1-1.6-3.7-1.6
	c-1.7,0-3,0.5-3.7,1.6c-0.8,1.1-1.2,2.4-1.3,4.2l0,1C303.5,1281.2,305.2,1283.4,308.6,1283.4z"/>
<path class="st7" d="M329.9,1286.4c-2.5,0-4.5-0.8-5.9-2.3c-1.5-1.5-2.3-3.6-2.4-6.3l0-1.2l0-1.2c0.2-2.6,1-4.7,2.4-6.2
	c1.5-1.5,3.4-2.3,5.9-2.3c2.7,0,4.7,0.8,6.2,2.6c1.5,1.7,2.2,4,2.2,6.8v0.6c0,0.2-0.1,0.4-0.3,0.6c-0.1,0.1-0.3,0.2-0.6,0.2h-12.5
	v0.3c0.1,1.6,0.5,2.9,1.4,4c0.9,1.1,2.1,1.6,3.5,1.6c1.1,0,2-0.2,2.7-0.6c0.7-0.5,1.2-0.9,1.6-1.4c0.2-0.3,0.4-0.5,0.5-0.5
	c0.1-0.1,0.3-0.1,0.6-0.1h1.8c0.2,0,0.4,0.1,0.5,0.2s0.2,0.3,0.2,0.5c0,0.5-0.3,1.2-1,1.9c-0.6,0.8-1.6,1.4-2.8,1.9
	C332.8,1286.1,331.4,1286.4,329.9,1286.4z M334.8,1275.3v-0.1c0-1.7-0.5-3-1.4-4c-0.9-1.1-2.1-1.6-3.6-1.6s-2.7,0.5-3.6,1.6
	c-0.9,1-1.3,2.4-1.3,4v0.1H334.8z"/>
<path class="st7" d="M343.4,1292.8c-0.2,0-0.4-0.1-0.6-0.2c-0.1-0.2-0.2-0.3-0.2-0.6v-23.9c0-0.2,0.1-0.4,0.2-0.6
	c0.2-0.2,0.4-0.2,0.6-0.2h1.7c0.2,0,0.4,0.1,0.6,0.2c0.2,0.2,0.3,0.3,0.3,0.6v1.6c1.3-1.8,3.3-2.8,5.9-2.8c2.5,0,4.4,0.8,5.7,2.4
	c1.3,1.6,2,3.6,2.1,6.1c0,0.3,0,0.7,0,1.2c0,0.5,0,1,0,1.2c-0.1,2.5-0.8,4.5-2.1,6.1c-1.3,1.6-3.2,2.4-5.7,2.4s-4.4-0.9-5.8-2.7v8.3
	c0,0.2-0.1,0.4-0.2,0.6c-0.1,0.2-0.3,0.2-0.6,0.2H343.4z M351,1283.4c1.7,0,2.9-0.5,3.7-1.6c0.8-1.1,1.2-2.4,1.3-4.2
	c0-0.2,0-0.6,0-1c0-4.5-1.7-6.8-5-6.8c-1.7,0-2.9,0.6-3.7,1.7c-0.8,1.1-1.3,2.4-1.3,3.9l0,1.4l0,1.4c0,1.4,0.5,2.7,1.4,3.7
	C348.2,1282.9,349.4,1283.4,351,1283.4z"/>
<path class="st7" d="M364.8,1286c-0.2,0-0.4-0.1-0.6-0.2c-0.1-0.2-0.2-0.4-0.2-0.6v-23.9c0-0.2,0.1-0.4,0.2-0.6
	c0.2-0.2,0.4-0.2,0.6-0.2h1.7c0.2,0,0.4,0.1,0.6,0.2c0.2,0.2,0.3,0.3,0.3,0.6v23.9c0,0.2-0.1,0.4-0.3,0.6c-0.1,0.2-0.3,0.2-0.6,0.2
	H364.8z"/>
<path class="st7" d="M380.4,1286.4c-2.6,0-4.7-0.7-6.2-2.2c-1.4-1.5-2.2-3.5-2.3-5.9l0-1.5l0-1.6c0.1-2.4,0.9-4.4,2.3-5.9
	c1.5-1.5,3.5-2.3,6.1-2.3s4.7,0.8,6.1,2.3c1.5,1.5,2.2,3.5,2.3,5.9c0,0.3,0,0.8,0,1.6s0,1.3,0,1.5c-0.1,2.5-0.9,4.5-2.3,5.9
	C385.1,1285.6,383,1286.4,380.4,1286.4z M380.4,1283.6c1.5,0,2.7-0.5,3.6-1.4c0.9-1,1.4-2.3,1.4-4.1c0-0.2,0-0.7,0-1.4s0-1.1,0-1.4
	c-0.1-1.8-0.6-3.2-1.4-4.1c-0.9-1-2.1-1.4-3.6-1.4s-2.7,0.5-3.6,1.4s-1.4,2.3-1.4,4.1l0,1.4l0,1.4c0,1.8,0.5,3.2,1.4,4.1
	C377.7,1283.1,378.9,1283.6,380.4,1283.6z"/>
<path class="st7" d="M396,1292.8c-0.2,0-0.4-0.1-0.5-0.2c-0.1-0.1-0.2-0.3-0.2-0.5c0-0.2,0.1-0.4,0.2-0.7l2.8-6.6l-6.9-16.2
	c-0.1-0.3-0.2-0.5-0.2-0.6c0-0.2,0.1-0.4,0.2-0.5c0.1-0.2,0.3-0.2,0.5-0.2h1.8c0.4,0,0.7,0.2,0.9,0.6l5.5,13.1l5.6-13.1
	c0.2-0.4,0.5-0.6,0.9-0.6h1.7c0.2,0,0.4,0.1,0.5,0.2c0.1,0.1,0.2,0.3,0.2,0.5c0,0.1-0.1,0.3-0.2,0.7l-10.2,23.6
	c-0.2,0.4-0.5,0.6-0.9,0.6H396z"/>
<path class="st7" d="M413.4,1286c-0.2,0-0.4-0.1-0.6-0.2c-0.1-0.2-0.2-0.4-0.2-0.6v-17.1c0-0.2,0.1-0.4,0.2-0.6
	c0.2-0.2,0.4-0.2,0.6-0.2h1.6c0.2,0,0.4,0.1,0.6,0.2c0.2,0.2,0.3,0.3,0.3,0.6v1.3c1.2-1.6,3-2.4,5.2-2.4c2.7,0,4.5,1.1,5.7,3.3
	c0.6-1,1.4-1.8,2.4-2.4c1.1-0.6,2.2-0.9,3.6-0.9c2,0,3.6,0.7,4.8,2c1.2,1.3,1.9,3.3,1.9,5.8v10.4c0,0.2-0.1,0.4-0.3,0.6
	c-0.1,0.2-0.3,0.2-0.6,0.2h-1.7c-0.2,0-0.4-0.1-0.6-0.2c-0.1-0.2-0.2-0.4-0.2-0.6v-10.1c0-1.9-0.4-3.2-1.2-4
	c-0.8-0.8-1.8-1.2-3.1-1.2c-1.1,0-2.1,0.4-2.9,1.3c-0.8,0.8-1.2,2.1-1.2,4v10.1c0,0.2-0.1,0.4-0.3,0.6c-0.1,0.2-0.3,0.2-0.6,0.2
	h-1.7c-0.2,0-0.4-0.1-0.6-0.2c-0.1-0.2-0.2-0.4-0.2-0.6v-10.1c0-1.9-0.4-3.2-1.2-4c-0.8-0.8-1.8-1.2-3-1.2c-1.1,0-2.1,0.4-2.9,1.3
	c-0.8,0.8-1.2,2.1-1.2,4v10.1c0,0.2-0.1,0.4-0.3,0.6c-0.1,0.2-0.3,0.2-0.6,0.2H413.4z"/>
<path class="st7" d="M452,1286.4c-2.5,0-4.5-0.8-5.9-2.3c-1.5-1.5-2.3-3.6-2.4-6.3l0-1.2l0-1.2c0.2-2.6,1-4.7,2.4-6.2
	c1.5-1.5,3.4-2.3,5.9-2.3c2.7,0,4.7,0.8,6.2,2.6c1.5,1.7,2.2,4,2.2,6.8v0.6c0,0.2-0.1,0.4-0.3,0.6c-0.1,0.1-0.3,0.2-0.6,0.2h-12.5
	v0.3c0.1,1.6,0.5,2.9,1.4,4c0.9,1.1,2.1,1.6,3.5,1.6c1.1,0,2-0.2,2.7-0.6c0.7-0.5,1.2-0.9,1.6-1.4c0.2-0.3,0.4-0.5,0.5-0.5
	c0.1-0.1,0.3-0.1,0.6-0.1h1.8c0.2,0,0.4,0.1,0.5,0.2s0.2,0.3,0.2,0.5c0,0.5-0.3,1.2-1,1.9c-0.6,0.8-1.6,1.4-2.8,1.9
	C454.9,1286.1,453.6,1286.4,452,1286.4z M457,1275.3v-0.1c0-1.7-0.5-3-1.4-4c-0.9-1.1-2.1-1.6-3.6-1.6s-2.7,0.5-3.6,1.6
	c-0.9,1-1.3,2.4-1.3,4v0.1H457z"/>
<path class="st7" d="M465.5,1286c-0.2,0-0.4-0.1-0.6-0.2c-0.1-0.2-0.2-0.4-0.2-0.6v-17.1c0-0.2,0.1-0.4,0.2-0.6
	c0.2-0.2,0.4-0.2,0.6-0.2h1.7c0.2,0,0.4,0.1,0.6,0.2c0.2,0.2,0.3,0.3,0.3,0.6v1.6c0.7-0.9,1.5-1.6,2.4-2c1-0.5,2.1-0.7,3.6-0.7
	c2.3,0,4.1,0.7,5.4,2.2c1.3,1.5,1.9,3.4,1.9,5.9v10.2c0,0.2-0.1,0.4-0.3,0.6c-0.1,0.2-0.3,0.2-0.6,0.2h-1.8c-0.2,0-0.4-0.1-0.6-0.2
	c-0.1-0.2-0.2-0.4-0.2-0.6v-10c0-1.7-0.4-3-1.3-4c-0.8-0.9-2-1.4-3.6-1.4c-1.5,0-2.7,0.5-3.6,1.4c-0.9,0.9-1.3,2.2-1.3,3.9v10
	c0,0.2-0.1,0.4-0.3,0.6c-0.1,0.2-0.3,0.2-0.6,0.2H465.5z"/>
<path class="st7" d="M493.6,1286c-3.8,0-5.7-2.1-5.7-6.3v-9.5h-2.8c-0.2,0-0.4-0.1-0.6-0.2c-0.1-0.2-0.2-0.4-0.2-0.6v-1.2
	c0-0.2,0.1-0.4,0.2-0.6c0.2-0.2,0.4-0.2,0.6-0.2h2.8v-6c0-0.2,0.1-0.4,0.2-0.6c0.2-0.2,0.4-0.2,0.6-0.2h1.7c0.2,0,0.4,0.1,0.6,0.2
	c0.2,0.2,0.3,0.3,0.3,0.6v6h4.5c0.2,0,0.4,0.1,0.6,0.2c0.2,0.2,0.3,0.3,0.3,0.6v1.2c0,0.2-0.1,0.5-0.3,0.6c-0.1,0.2-0.3,0.2-0.6,0.2
	h-4.5v9.2c0,1.2,0.2,2.1,0.6,2.7c0.4,0.6,1.1,0.9,2,0.9h2.2c0.2,0,0.4,0.1,0.6,0.2c0.2,0.1,0.3,0.3,0.3,0.6v1.3
	c0,0.2-0.1,0.4-0.3,0.6c-0.1,0.2-0.3,0.2-0.6,0.2H493.6z"/>
<path class="st3" d="M201.1,206.6l85.2,41l21,92.2l-59,74h-94.6l-59-74l21-92.2L201.1,206.6z"/>
<path class="st4" d="M205.2,186.6l-0.7-0.3l-0.7,0.3l-98.1,47.3l-0.7,0.3l-0.2,0.7L80.7,341.1l-0.2,0.7l0.5,0.6l67.9,85.1l0.4,0.6
	h0.7H259h0.7l0.5-0.6l67.9-85.1l0.5-0.6l-0.2-0.7l-24.2-106.2l-0.2-0.7l-0.6-0.3L205.2,186.6z"/>
<path class="st8" d="M195,325.8 M195,325.8 M169.2,338.3h1.4v-1.4v-36.5v-1.4h-1.4h-8.8h-1.4v1.4v36.5v1.4h1.4H169.2z M186.6,333.3
	L186.6,333.3c4,3.9,9,5.8,15.1,5.8c6.1,0,11.1-1.9,15-5.8c4-3.9,5.9-8.8,5.9-14.7s-2-10.8-5.9-14.7c-3.9-3.9-9-5.8-15-5.8
	c-6.1,0-11.1,1.9-15.1,5.8l0,0l0,0c-3.9,3.9-5.9,8.8-5.9,14.7C180.8,324.6,182.7,329.5,186.6,333.3z M248.6,338.3h1.4v-1.4v-27.4h9
	h1.4v-1.4v-7.6v-1.4H259h-29.5h-1.4v1.4v7.6v1.4h1.4h8.9v27.4v1.4h1.4H248.6z"/>
<defs>
	<filter id="Adobe_OpacityMaskFilter" filterUnits="userSpaceOnUse" x="178.3" y="276.6" width="47.6" height="21.4">
		<feColorMatrix  type="matrix" values="1 0 0 0 0  0 1 0 0 0  0 0 1 0 0  0 0 0 1 0"/>
	</filter>
</defs>
<mask maskUnits="userSpaceOnUse" x="178.3" y="276.6" width="47.6" height="21.4" id="path-48-inside-1_1_">
	<path class="st17" d="M182.1,284.4c6.1-3.4,13.1-5.1,20.1-5c7,0.1,13.9,2.1,19.9,5.7l-5.4,9.1c-4.4-2.6-9.5-4.1-14.6-4.2
		c-5.2-0.1-10.3,1.2-14.8,3.7L182.1,284.4z"/>
</mask>
<path class="st18" d="M182.1,284.4c6.1-3.4,13.1-5.1,20.1-5c7,0.1,13.9,2.1,19.9,5.7l-5.4,9.1c-4.4-2.6-9.5-4.1-14.6-4.2
	c-5.2-0.1-10.3,1.2-14.8,3.7L182.1,284.4z"/>
<defs>
	<filter id="Adobe_OpacityMaskFilter_1_" filterUnits="userSpaceOnUse" x="169.1" y="258.2" width="65.5" height="24.1">
		<feColorMatrix  type="matrix" values="1 0 0 0 0  0 1 0 0 0  0 0 1 0 0  0 0 0 1 0"/>
	</filter>
</defs>
<mask maskUnits="userSpaceOnUse" x="169.1" y="258.2" width="65.5" height="24.1" id="path-49-inside-2_1_">
	<path class="st19" d="M172.9,268.3c8.9-4.9,18.9-7.4,29.1-7.3s20.1,3,28.8,8.2l-5.5,9.2c-7.1-4.2-15.2-6.6-23.5-6.7
		s-16.4,1.9-23.7,5.9L172.9,268.3z"/>
</mask>
<path class="st20" d="M172.9,268.3c8.9-4.9,18.9-7.4,29.1-7.3s20.1,3,28.8,8.2l-5.5,9.2c-7.1-4.2-15.2-6.6-23.5-6.7
	s-16.4,1.9-23.7,5.9L172.9,268.3z"/>
<defs>
	<filter id="Adobe_OpacityMaskFilter_2_" filterUnits="userSpaceOnUse" x="169.1" y="355.7" width="65.5" height="24.1">
		<feColorMatrix  type="matrix" values="1 0 0 0 0  0 1 0 0 0  0 0 1 0 0  0 0 0 1 0"/>
	</filter>
</defs>
<mask maskUnits="userSpaceOnUse" x="169.1" y="355.7" width="65.5" height="24.1" id="path-50-inside-3_1_">
	<path class="st21" d="M172.9,369.7c8.9,4.9,18.9,7.4,29.1,7.3s20.1-3,28.8-8.2l-5.5-9.2c-7.1,4.2-15.2,6.6-23.5,6.7
		s-16.4-1.9-23.7-5.9L172.9,369.7z"/>
</mask>
<path class="st22" d="M172.9,369.7c8.9,4.9,18.9,7.4,29.1,7.3s20.1-3,28.8-8.2l-5.5-9.2c-7.1,4.2-15.2,6.6-23.5,6.7
	s-16.4-1.9-23.7-5.9L172.9,369.7z"/>
<defs>
	<filter id="Adobe_OpacityMaskFilter_3_" filterUnits="userSpaceOnUse" x="178.3" y="340.9" width="47.6" height="21.4">
		<feColorMatrix  type="matrix" values="1 0 0 0 0  0 1 0 0 0  0 0 1 0 0  0 0 0 1 0"/>
	</filter>
</defs>
<mask maskUnits="userSpaceOnUse" x="178.3" y="340.9" width="47.6" height="21.4" id="path-51-inside-4_1_">
	<path class="st23" d="M182.1,354.5c6.1,3.4,13.1,5.1,20.1,5c7-0.1,13.9-2.1,19.9-5.7l-5.4-9.1c-4.4,2.6-9.5,4.1-14.6,4.2
		c-5.2,0.1-10.3-1.2-14.8-3.7L182.1,354.5z"/>
</mask>
<path class="st24" d="M182.1,354.5c6.1,3.4,13.1,5.1,20.1,5c7-0.1,13.9-2.1,19.9-5.7l-5.4-9.1c-4.4,2.6-9.5,4.1-14.6,4.2
	c-5.2,0.1-10.3-1.2-14.8-3.7L182.1,354.5z"/>
<path class="st7" d="M142.9,483.4c-3.1,0-5.6-0.8-7.3-2.4c-1.7-1.7-2.6-4.1-2.7-7.5c0-0.7,0-1.7,0-3.1s0-2.3,0-3
	c0.1-3.2,1-5.7,2.8-7.4c1.8-1.7,4.2-2.6,7.2-2.6c3,0,5.4,0.9,7.2,2.6c1.8,1.7,2.7,4.1,2.8,7.4c0,1.4,0.1,2.4,0.1,3
	c0,0.6,0,1.6-0.1,3.1c-0.1,3.3-1,5.8-2.7,7.5C148.5,482.5,146.1,483.4,142.9,483.4z M142.9,480.3c1.9,0,3.4-0.6,4.5-1.7
	c1.1-1.2,1.7-2.9,1.8-5.3c0-1.4,0.1-2.4,0.1-2.9c0-0.5,0-1.5-0.1-2.9c-0.1-2.4-0.7-4.1-1.9-5.3c-1.1-1.2-2.6-1.7-4.5-1.7
	c-1.9,0-3.4,0.6-4.6,1.7c-1.1,1.2-1.7,2.9-1.8,5.3c0,0.7,0,1.7,0,2.9c0,1.2,0,2.2,0,2.9c0.1,2.4,0.7,4.1,1.8,5.3
	C139.5,479.7,141,480.3,142.9,480.3z"/>
<path class="st7" d="M158.6,489.8c-0.2,0-0.4-0.1-0.6-0.3c-0.1-0.1-0.2-0.3-0.2-0.6v-23.9c0-0.2,0.1-0.4,0.2-0.6
	c0.2-0.2,0.4-0.3,0.6-0.3h1.7c0.2,0,0.4,0.1,0.6,0.3c0.2,0.1,0.3,0.3,0.3,0.6v1.6c1.3-1.8,3.3-2.8,5.9-2.8c2.5,0,4.4,0.8,5.7,2.4
	c1.3,1.6,2,3.6,2.1,6.1c0,0.3,0,0.7,0,1.2c0,0.6,0,1,0,1.2c-0.1,2.5-0.8,4.5-2.1,6.1c-1.3,1.6-3.2,2.4-5.7,2.4
	c-2.5,0-4.4-0.9-5.8-2.7v8.4c0,0.2-0.1,0.4-0.2,0.6c-0.1,0.2-0.3,0.3-0.6,0.3H158.6z M166.3,480.4c1.7,0,2.9-0.5,3.7-1.6
	c0.8-1.1,1.2-2.4,1.3-4.2c0-0.2,0-0.6,0-1c0-4.5-1.7-6.8-5-6.8c-1.7,0-2.9,0.6-3.7,1.7c-0.8,1.1-1.3,2.4-1.3,3.9l0,1.4l0,1.4
	c0,1.4,0.5,2.7,1.4,3.7S164.7,480.4,166.3,480.4z"/>
<path class="st7" d="M186.7,483.4c-2.5,0-4.5-0.8-5.9-2.3c-1.5-1.5-2.3-3.6-2.4-6.3l0-1.2l0-1.2c0.2-2.6,1-4.7,2.4-6.2
	c1.5-1.5,3.4-2.3,5.9-2.3c2.7,0,4.7,0.9,6.2,2.6c1.5,1.7,2.2,4,2.2,6.8v0.6c0,0.2-0.1,0.4-0.3,0.6c-0.1,0.1-0.3,0.2-0.6,0.2h-12.5
	v0.3c0.1,1.6,0.5,2.9,1.4,4c0.9,1.1,2.1,1.6,3.5,1.6c1.1,0,2-0.2,2.7-0.6c0.7-0.5,1.2-0.9,1.6-1.4c0.2-0.3,0.4-0.5,0.5-0.5
	c0.1-0.1,0.3-0.1,0.6-0.1h1.8c0.2,0,0.4,0.1,0.5,0.2c0.1,0.1,0.2,0.3,0.2,0.5c0,0.5-0.3,1.2-1,1.9c-0.6,0.7-1.6,1.4-2.8,1.9
	C189.6,483.1,188.2,483.4,186.7,483.4z M191.6,472.3v-0.1c0-1.7-0.5-3-1.4-4c-0.9-1.1-2.1-1.6-3.6-1.6c-1.5,0-2.7,0.5-3.6,1.6
	c-0.9,1-1.3,2.4-1.3,4v0.1H191.6z"/>
<path class="st7" d="M200.2,483c-0.2,0-0.4-0.1-0.6-0.2c-0.1-0.2-0.2-0.4-0.2-0.6v-17.1c0-0.2,0.1-0.4,0.2-0.6
	c0.2-0.2,0.4-0.3,0.6-0.3h1.7c0.2,0,0.4,0.1,0.6,0.3c0.2,0.1,0.3,0.3,0.3,0.6v1.6c0.7-0.9,1.5-1.6,2.4-2.1c1-0.5,2.1-0.7,3.6-0.7
	c2.3,0,4.1,0.7,5.4,2.2c1.3,1.5,1.9,3.4,1.9,5.9v10.2c0,0.2-0.1,0.4-0.3,0.6c-0.1,0.1-0.3,0.2-0.6,0.2h-1.8c-0.2,0-0.4-0.1-0.6-0.2
	c-0.1-0.2-0.2-0.4-0.2-0.6v-10c0-1.7-0.4-3-1.3-4c-0.8-0.9-2-1.4-3.6-1.4c-1.5,0-2.7,0.5-3.6,1.4c-0.9,0.9-1.3,2.2-1.3,3.9v10
	c0,0.2-0.1,0.4-0.3,0.6c-0.1,0.1-0.3,0.2-0.6,0.2H200.2z"/>
<path class="st7" d="M231.3,483c-0.2,0-0.4-0.1-0.6-0.2c-0.1-0.2-0.2-0.4-0.2-0.6v-23.5c0-0.2,0.1-0.4,0.2-0.6
	c0.2-0.2,0.4-0.3,0.6-0.3h1.9c0.2,0,0.4,0.1,0.6,0.3c0.2,0.1,0.3,0.3,0.3,0.6v23.5c0,0.2-0.1,0.4-0.3,0.6c-0.1,0.1-0.3,0.2-0.6,0.2
	H231.3z"/>
<path class="st7" d="M247.5,483.4c-2.6,0-4.7-0.7-6.2-2.2c-1.4-1.5-2.2-3.5-2.3-5.9l0-1.5l0-1.5c0.1-2.4,0.9-4.4,2.3-5.9
	c1.5-1.5,3.5-2.3,6.1-2.3s4.7,0.8,6.1,2.3c1.5,1.5,2.2,3.5,2.3,5.9c0,0.3,0,0.8,0,1.5c0,0.8,0,1.3,0,1.5c-0.1,2.5-0.9,4.5-2.3,5.9
	C252.2,482.6,250.2,483.4,247.5,483.4z M247.5,480.6c1.5,0,2.7-0.5,3.6-1.4c0.9-1,1.4-2.3,1.4-4.1c0-0.2,0-0.7,0-1.4
	c0-0.7,0-1.1,0-1.4c-0.1-1.8-0.6-3.2-1.4-4.1c-0.9-1-2.1-1.4-3.6-1.4c-1.5,0-2.7,0.5-3.6,1.4c-0.9,1-1.4,2.3-1.4,4.1l0,1.4l0,1.4
	c0,1.8,0.5,3.2,1.4,4.1C244.8,480.1,246,480.6,247.5,480.6z"/>
<path class="st7" d="M263.9,483c-0.2,0-0.4-0.1-0.6-0.2c-0.1-0.2-0.2-0.4-0.2-0.6V461h-6.9c-0.2,0-0.4-0.1-0.6-0.2
	c-0.1-0.2-0.2-0.4-0.2-0.6v-1.5c0-0.2,0.1-0.4,0.2-0.6c0.2-0.2,0.4-0.3,0.6-0.3h17.4c0.3,0,0.5,0.1,0.6,0.3c0.2,0.1,0.3,0.3,0.3,0.6
	v1.5c0,0.2-0.1,0.4-0.3,0.6c-0.2,0.1-0.4,0.2-0.6,0.2h-6.9v21.2c0,0.2-0.1,0.4-0.3,0.6c-0.2,0.1-0.4,0.2-0.6,0.2H263.9z"/>
<path class="st7" d="M136.9,533.8c-0.2,0-0.4-0.1-0.6-0.3c-0.1-0.1-0.2-0.3-0.2-0.6v-23.9c0-0.2,0.1-0.4,0.2-0.6
	c0.2-0.2,0.4-0.3,0.6-0.3h1.7c0.2,0,0.4,0.1,0.6,0.3c0.2,0.1,0.3,0.3,0.3,0.6v1.6c1.3-1.8,3.3-2.8,5.9-2.8c2.5,0,4.4,0.8,5.7,2.4
	c1.3,1.6,2,3.6,2.1,6.1c0,0.3,0,0.7,0,1.2s0,1,0,1.2c-0.1,2.5-0.8,4.5-2.1,6.1c-1.3,1.6-3.2,2.4-5.7,2.4s-4.4-0.9-5.8-2.7v8.4
	c0,0.2-0.1,0.4-0.2,0.6c-0.1,0.2-0.3,0.3-0.6,0.3H136.9z M144.5,524.4c1.7,0,2.9-0.5,3.7-1.6c0.8-1.1,1.2-2.4,1.3-4.2
	c0-0.2,0-0.6,0-1c0-4.5-1.7-6.8-5-6.8c-1.7,0-2.9,0.6-3.7,1.7c-0.8,1.1-1.3,2.4-1.3,3.9l0,1.4l0,1.4c0,1.4,0.5,2.7,1.4,3.7
	C141.7,523.9,142.9,524.4,144.5,524.4z"/>
<path class="st7" d="M158.3,527c-0.2,0-0.4-0.1-0.6-0.2c-0.1-0.2-0.2-0.4-0.2-0.6v-17c0-0.2,0.1-0.4,0.2-0.6
	c0.2-0.2,0.4-0.3,0.6-0.3h1.7c0.2,0,0.4,0.1,0.6,0.3s0.3,0.4,0.3,0.6v1.6c1-1.6,2.7-2.4,5-2.4h1.4c0.2,0,0.4,0.1,0.6,0.3
	c0.2,0.1,0.3,0.3,0.3,0.6v1.5c0,0.2-0.1,0.4-0.3,0.6c-0.1,0.1-0.3,0.2-0.6,0.2h-2.2c-1.3,0-2.3,0.4-3.1,1.2
	c-0.7,0.7-1.1,1.8-1.1,3.1v10.6c0,0.2-0.1,0.4-0.3,0.6c-0.2,0.1-0.4,0.2-0.6,0.2H158.3z"/>
<path class="st7" d="M178.5,527.4c-2.6,0-4.7-0.7-6.2-2.2c-1.4-1.5-2.2-3.5-2.3-5.9l0-1.5l0-1.5c0.1-2.4,0.9-4.4,2.3-5.9
	c1.5-1.5,3.5-2.3,6.1-2.3s4.7,0.8,6.1,2.3c1.5,1.5,2.2,3.5,2.3,5.9c0,0.3,0,0.8,0,1.5s0,1.3,0,1.5c-0.1,2.5-0.9,4.5-2.3,5.9
	C183.1,526.6,181.1,527.4,178.5,527.4z M178.5,524.6c1.5,0,2.7-0.5,3.6-1.4c0.9-1,1.4-2.3,1.4-4.1c0-0.2,0-0.7,0-1.4s0-1.1,0-1.4
	c-0.1-1.8-0.6-3.2-1.4-4.1c-0.9-1-2.1-1.4-3.6-1.4s-2.7,0.5-3.6,1.4c-0.9,1-1.4,2.3-1.4,4.1l0,1.4l0,1.4c0,1.8,0.5,3.2,1.4,4.1
	C175.7,524.1,176.9,524.6,178.5,524.6z"/>
<path class="st7" d="M198.6,527c-3.8,0-5.7-2.1-5.7-6.3v-9.5h-2.8c-0.2,0-0.4-0.1-0.6-0.2c-0.1-0.2-0.2-0.4-0.2-0.6v-1.2
	c0-0.2,0.1-0.4,0.2-0.6c0.2-0.2,0.4-0.3,0.6-0.3h2.8v-6c0-0.2,0.1-0.4,0.2-0.6c0.2-0.2,0.4-0.3,0.6-0.3h1.7c0.2,0,0.4,0.1,0.6,0.3
	c0.2,0.1,0.3,0.3,0.3,0.6v6h4.5c0.2,0,0.4,0.1,0.6,0.3c0.2,0.1,0.3,0.3,0.3,0.6v1.2c0,0.2-0.1,0.4-0.3,0.6c-0.1,0.1-0.3,0.2-0.6,0.2
	h-4.5v9.3c0,1.2,0.2,2.1,0.6,2.7c0.4,0.6,1.1,0.9,2,0.9h2.2c0.2,0,0.4,0.1,0.6,0.3c0.2,0.1,0.3,0.3,0.3,0.6v1.3
	c0,0.2-0.1,0.4-0.3,0.6c-0.1,0.1-0.3,0.2-0.6,0.2H198.6z"/>
<path class="st7" d="M213,527.4c-2.6,0-4.7-0.7-6.2-2.2c-1.4-1.5-2.2-3.5-2.3-5.9l0-1.5l0-1.5c0.1-2.4,0.9-4.4,2.3-5.9
	c1.5-1.5,3.5-2.3,6.1-2.3c2.6,0,4.7,0.8,6.1,2.3c1.5,1.5,2.2,3.5,2.3,5.9c0,0.3,0,0.8,0,1.5s0,1.3,0,1.5c-0.1,2.5-0.9,4.5-2.3,5.9
	C217.7,526.6,215.7,527.4,213,527.4z M213,524.6c1.5,0,2.7-0.5,3.6-1.4c0.9-1,1.4-2.3,1.4-4.1c0-0.2,0-0.7,0-1.4s0-1.1,0-1.4
	c-0.1-1.8-0.6-3.2-1.4-4.1c-0.9-1-2.1-1.4-3.6-1.4c-1.5,0-2.7,0.5-3.6,1.4c-0.9,1-1.4,2.3-1.4,4.1l0,1.4l0,1.4
	c0,1.8,0.5,3.2,1.4,4.1C210.3,524.1,211.5,524.6,213,524.6z"/>
<path class="st7" d="M233.6,527.4c-2.6,0-4.6-0.7-6-2.2c-1.4-1.5-2.2-3.5-2.3-6.1l0-1.4l0-1.4c0.1-2.6,0.9-4.6,2.3-6.1
	c1.5-1.5,3.5-2.2,6-2.2c1.7,0,3.2,0.3,4.4,0.9c1.2,0.6,2.1,1.4,2.7,2.3c0.6,0.9,0.9,1.8,1,2.7c0,0.2,0,0.4-0.2,0.6
	c-0.2,0.1-0.4,0.2-0.6,0.2h-1.7c-0.2,0-0.4,0-0.5-0.1c-0.1-0.1-0.2-0.3-0.4-0.6c-0.4-1.2-1-2-1.7-2.4c-0.7-0.5-1.7-0.8-2.8-0.8
	c-1.5,0-2.7,0.5-3.6,1.4c-0.9,0.9-1.3,2.3-1.4,4.2l0,1.3l0,1.2c0.1,1.9,0.5,3.3,1.4,4.2s2.1,1.4,3.6,1.4c1.1,0,2.1-0.2,2.8-0.7
	c0.7-0.5,1.3-1.3,1.7-2.5c0.1-0.3,0.2-0.5,0.4-0.6c0.1-0.1,0.3-0.2,0.5-0.2h1.7c0.2,0,0.4,0.1,0.6,0.3c0.2,0.1,0.2,0.3,0.2,0.6
	c0,0.9-0.4,1.8-1,2.7c-0.6,0.9-1.5,1.7-2.7,2.3C236.8,527,235.3,527.4,233.6,527.4z"/>
<path class="st7" d="M253.6,527.4c-2.6,0-4.7-0.7-6.2-2.2c-1.4-1.5-2.2-3.5-2.3-5.9l0-1.5l0-1.5c0.1-2.4,0.9-4.4,2.3-5.9
	c1.5-1.5,3.5-2.3,6.1-2.3s4.7,0.8,6.1,2.3c1.5,1.5,2.2,3.5,2.3,5.9c0,0.3,0,0.8,0,1.5s0,1.3,0,1.5c-0.1,2.5-0.9,4.5-2.3,5.9
	C258.2,526.6,256.2,527.4,253.6,527.4z M253.6,524.6c1.5,0,2.7-0.5,3.6-1.4c0.9-1,1.4-2.3,1.4-4.1c0-0.2,0-0.7,0-1.4s0-1.1,0-1.4
	c-0.1-1.8-0.6-3.2-1.4-4.1c-0.9-1-2.1-1.4-3.6-1.4c-1.5,0-2.7,0.5-3.6,1.4c-0.9,1-1.4,2.3-1.4,4.1l0,1.4l0,1.4
	c0,1.8,0.5,3.2,1.4,4.1C250.8,524.1,252,524.6,253.6,524.6z"/>
<path class="st7" d="M267.4,527c-0.2,0-0.4-0.1-0.6-0.2c-0.1-0.2-0.2-0.4-0.2-0.6v-23.9c0-0.2,0.1-0.4,0.2-0.6
	c0.2-0.2,0.4-0.3,0.6-0.3h1.7c0.2,0,0.4,0.1,0.6,0.3c0.2,0.1,0.3,0.3,0.3,0.6v23.9c0,0.2-0.1,0.4-0.3,0.6c-0.1,0.1-0.3,0.2-0.6,0.2
	H267.4z"/>
<path class="st3" d="M1084,613l85.2,41l21.1,92.2l-59,74h-94.6l-59-74l21-92.2L1084,613z"/>
<path class="st4" d="M1085.2,592.6l-0.7-0.3l-0.7,0.3l-98.1,47.3l-0.7,0.3l-0.2,0.7l-24.2,106.2l-0.2,0.7l0.5,0.6l67.9,85.1l0.5,0.6
	h0.7h108.9h0.7l0.5-0.6l67.9-85.1l0.4-0.6l-0.2-0.7l-24.2-106.2l-0.2-0.7l-0.7-0.3L1085.2,592.6z"/>
<path class="st25" d="M1042.2,712.6L1042.2,712.6l2.4-0.8l0.1,0v0.1v10.3c0,1.4,0.8,2.6,2,3.1l0,0l15.3,6.6l16.1,6.9V682v-0.1l0.1,0
	l2.3,0.7l0.1,0v0.1v57.8c0,0.4-0.2,0.8-0.6,1l0,0l-0.1-0.1c-0.2,0.1-0.4,0.2-0.6,0.2c-0.2,0-0.3,0-0.5-0.1l-16.6-9.7l-4.4-1.9
	c0,0-9.1-3.9-12.1-5.3c-1.4-1.2-1.1-3-1.1-3v-7.1L1042.2,712.6z M1042.2,712.6L1042.2,712.6v9.6c0,2.4,1.4,4.5,3.6,5.4l33.1,14.2
	l0,0l-17.1-10.1l-4-1.7l-11.9-5.3c0,0,0.3,0.2,0,0c-1.4-1.1-1.1-3-1.1-3v-7.1L1042.2,712.6z M1123.4,711.8l-0.1,0v0.1v10.3
	c0,1.4-0.8,2.6-2,3.1l-31.4,13.4v-45.1v-0.2V682v-0.1l-0.1,0l-2.3,0.7l-0.1,0v0.1v28.6v29.2c0,0.4,0.2,0.8,0.6,1l0,0
	c0.2,0.1,0.4,0.2,0.7,0.2c0.2,0,0.3,0,0.5-0.1l0,0l33.1-14.2c2.2-0.9,3.6-3,3.6-5.4v-9.5v-0.1l-0.1,0L1123.4,711.8z M1132.5,712.8
	L1132.5,712.8L1132.5,712.8l-0.1,9.4c0,5.1-3,9.6-7.6,11.6l0,0.1l0-0.1l-36.7,15.7c-0.5,0.2-0.8,0.7-0.8,1.2v11.6v0.1h0.1h2.3h0.1
	v-0.1v-10.8l36-15.4c5.5-2.4,9.1-7.8,9.1-13.9v-10v-0.1l-0.1,0L1132.5,712.8z M1080.6,762.3L1080.6,762.3l0.1-0.1v-11.6
	c0-0.5-0.3-1-0.8-1.2l-36.7-15.7c-4.6-2-7.6-6.5-7.6-11.6v-9.3v-0.1l-0.1,0l-2.3-0.7l-0.1,0v0.1v10c0,6.1,3.6,11.5,9.1,13.9l36,15.4
	v10.8v0.1h0.1H1080.6z"/>
<circle class="st9" cx="1084" cy="777" r="15.5"/>
<circle class="st9" cx="1084" cy="668" r="15.5"/>
<circle class="st9" cx="1129" cy="697" r="15.5"/>
<circle class="st9" cx="1039" cy="697" r="15.5"/>
<rect x="958.5" y="590.5" class="st26" width="252" height="254"/>
<path class="st7" d="M989.8,889c-0.2,0-0.4-0.1-0.5-0.2c-0.1-0.1-0.2-0.3-0.2-0.5c0-0.2,0-0.3,0-0.4l8.9-23.3
	c0.2-0.5,0.6-0.8,1.2-0.8h2.5c0.6,0,1,0.3,1.2,0.8l8.9,23.3l0.1,0.4c0,0.2-0.1,0.4-0.2,0.5c-0.2,0.1-0.3,0.2-0.5,0.2h-1.8
	c-0.3,0-0.5-0.1-0.6-0.2c-0.1-0.1-0.2-0.3-0.3-0.4l-2-5.1h-11.8l-2,5.1c0,0.1-0.2,0.3-0.3,0.4c-0.1,0.1-0.3,0.2-0.6,0.2H989.8z
	 M1005.3,880.2l-4.9-12.8l-4.9,12.8H1005.3z"/>
<path class="st7" d="M1016,895.8c-0.2,0-0.5-0.1-0.6-0.3c-0.1-0.1-0.2-0.3-0.2-0.6v-23.9c0-0.2,0.1-0.4,0.2-0.6
	c0.2-0.2,0.4-0.3,0.6-0.3h1.7c0.2,0,0.4,0.1,0.6,0.3c0.2,0.1,0.2,0.3,0.2,0.6v1.6c1.3-1.8,3.3-2.8,5.9-2.8c2.5,0,4.4,0.8,5.7,2.4
	c1.3,1.6,1.9,3.6,2,6.1c0,0.3,0,0.7,0,1.2s0,1,0,1.2c-0.1,2.5-0.8,4.5-2,6.1c-1.3,1.6-3.2,2.4-5.7,2.4c-2.5,0-4.4-0.9-5.8-2.7v8.4
	c0,0.2-0.1,0.4-0.2,0.6c-0.2,0.2-0.3,0.3-0.6,0.3H1016z M1023.6,886.4c1.7,0,2.9-0.5,3.7-1.6c0.8-1.1,1.2-2.4,1.3-4.2
	c0-0.2,0-0.6,0-1c0-4.5-1.7-6.8-5-6.8c-1.7,0-2.9,0.6-3.8,1.7c-0.8,1.1-1.3,2.4-1.3,3.9l0,1.4l0,1.4c0.1,1.4,0.5,2.7,1.4,3.7
	C1020.8,885.9,1022,886.4,1023.6,886.4z"/>
<path class="st7" d="M1037.4,895.8c-0.2,0-0.4-0.1-0.6-0.3c-0.1-0.1-0.2-0.3-0.2-0.6v-23.9c0-0.2,0.1-0.4,0.2-0.6
	c0.2-0.2,0.4-0.3,0.6-0.3h1.7c0.2,0,0.4,0.1,0.6,0.3c0.2,0.1,0.3,0.3,0.3,0.6v1.6c1.3-1.8,3.3-2.8,5.9-2.8c2.5,0,4.4,0.8,5.7,2.4
	c1.3,1.6,2,3.6,2.1,6.1c0,0.3,0,0.7,0,1.2s0,1,0,1.2c-0.1,2.5-0.8,4.5-2.1,6.1c-1.3,1.6-3.2,2.4-5.7,2.4s-4.4-0.9-5.8-2.7v8.4
	c0,0.2-0.1,0.4-0.2,0.6c-0.1,0.2-0.3,0.3-0.6,0.3H1037.4z M1045.1,886.4c1.7,0,2.9-0.5,3.7-1.6c0.8-1.1,1.2-2.4,1.3-4.2
	c0-0.2,0-0.6,0-1c0-4.5-1.7-6.8-5-6.8c-1.7,0-2.9,0.6-3.7,1.7c-0.8,1.1-1.3,2.4-1.3,3.9l0,1.4l0,1.4c0.1,1.4,0.5,2.7,1.4,3.7
	C1042.2,885.9,1043.5,886.4,1045.1,886.4z"/>
<path class="st7" d="M1058.9,889c-0.2,0-0.4-0.1-0.6-0.2c-0.2-0.2-0.2-0.4-0.2-0.6v-23.9c0-0.2,0.1-0.4,0.2-0.6
	c0.2-0.2,0.4-0.3,0.6-0.3h1.7c0.2,0,0.4,0.1,0.6,0.3c0.2,0.1,0.2,0.3,0.2,0.6v23.9c0,0.2-0.1,0.4-0.2,0.6c-0.2,0.1-0.3,0.2-0.6,0.2
	H1058.9z"/>
<path class="st7" d="M1067.3,866.8c-0.2,0-0.5-0.1-0.6-0.2c-0.1-0.2-0.2-0.4-0.2-0.6V864c0-0.2,0.1-0.4,0.2-0.6
	c0.2-0.2,0.4-0.3,0.6-0.3h2.3c0.2,0,0.4,0.1,0.6,0.3c0.2,0.2,0.2,0.4,0.2,0.6v1.9c0,0.2-0.1,0.4-0.2,0.6c-0.2,0.1-0.4,0.2-0.6,0.2
	H1067.3z M1067.6,889c-0.2,0-0.4-0.1-0.6-0.2c-0.1-0.2-0.2-0.4-0.2-0.6v-17.1c0-0.2,0.1-0.4,0.2-0.6c0.2-0.2,0.4-0.3,0.6-0.3h1.7
	c0.2,0,0.4,0.1,0.6,0.3c0.2,0.1,0.2,0.3,0.2,0.6v17.1c0,0.2-0.1,0.4-0.2,0.6c-0.1,0.1-0.3,0.2-0.6,0.2H1067.6z"/>
<path class="st7" d="M1083.1,889.4c-2.6,0-4.6-0.7-6.1-2.2c-1.4-1.5-2.2-3.5-2.3-6.1l0-1.4l0-1.4c0.1-2.6,0.9-4.6,2.3-6.1
	c1.5-1.5,3.5-2.2,6.1-2.2c1.7,0,3.2,0.3,4.4,0.9c1.2,0.6,2.1,1.4,2.7,2.3c0.6,0.9,0.9,1.8,1,2.7c0,0.2,0,0.4-0.2,0.6
	c-0.2,0.1-0.4,0.2-0.6,0.2h-1.7c-0.2,0-0.4,0-0.5-0.1s-0.2-0.3-0.4-0.6c-0.4-1.2-1-2-1.7-2.4c-0.7-0.5-1.7-0.8-2.8-0.8
	c-1.5,0-2.7,0.5-3.6,1.4c-0.9,0.9-1.3,2.3-1.4,4.2l0,1.3l0,1.2c0.1,1.9,0.5,3.3,1.4,4.2c0.9,0.9,2,1.4,3.6,1.4
	c1.1,0,2.1-0.2,2.8-0.7c0.7-0.5,1.3-1.3,1.7-2.5c0.1-0.3,0.2-0.5,0.4-0.6c0.1-0.1,0.3-0.2,0.5-0.2h1.7c0.2,0,0.4,0.1,0.6,0.3
	c0.2,0.1,0.2,0.3,0.2,0.6c0,0.9-0.4,1.8-1,2.7c-0.6,0.9-1.5,1.7-2.7,2.3C1086.3,889,1084.8,889.4,1083.1,889.4z"/>
<path class="st7" d="M1100.6,889.4c-1.2,0-2.3-0.2-3.3-0.7c-1-0.5-1.8-1.1-2.4-1.9c-0.6-0.8-0.9-1.8-0.9-2.8c0-1.6,0.7-2.9,1.9-3.9
	c1.3-1,3.1-1.7,5.3-2l5.4-0.8v-1c0-2.4-1.4-3.7-4.2-3.7c-1,0-1.9,0.2-2.6,0.7c-0.7,0.4-1.2,0.9-1.5,1.5c-0.1,0.2-0.2,0.4-0.3,0.5
	c-0.1,0.1-0.2,0.1-0.4,0.1h-1.6c-0.2,0-0.4-0.1-0.6-0.2c-0.1-0.2-0.2-0.4-0.2-0.6c0-0.6,0.3-1.2,0.8-1.9c0.5-0.7,1.3-1.4,2.4-1.9
	c1.1-0.6,2.4-0.8,4-0.8c2.7,0,4.6,0.6,5.8,1.9c1.2,1.2,1.8,2.8,1.8,4.7v11.7c0,0.2-0.1,0.4-0.2,0.6c-0.2,0.1-0.3,0.2-0.6,0.2h-1.7
	c-0.2,0-0.4-0.1-0.6-0.2c-0.1-0.2-0.2-0.4-0.2-0.6v-1.5c-0.5,0.8-1.3,1.4-2.3,1.9S1102.1,889.4,1100.6,889.4z M1101.3,886.7
	c1.6,0,2.8-0.5,3.8-1.5c1-1,1.5-2.5,1.5-4.4v-1l-4.2,0.6c-1.7,0.2-3,0.6-3.8,1.2c-0.9,0.6-1.3,1.3-1.3,2.1c0,1,0.4,1.7,1.2,2.2
	C1099.3,886.4,1100.2,886.7,1101.3,886.7z"/>
<path class="st7" d="M1122.3,889c-3.8,0-5.7-2.1-5.7-6.3v-9.5h-2.8c-0.2,0-0.4-0.1-0.6-0.2c-0.2-0.2-0.2-0.4-0.2-0.6v-1.2
	c0-0.2,0.1-0.4,0.2-0.6c0.2-0.2,0.4-0.3,0.6-0.3h2.8v-6c0-0.2,0.1-0.4,0.2-0.6c0.2-0.2,0.4-0.3,0.6-0.3h1.7c0.2,0,0.4,0.1,0.6,0.3
	c0.2,0.1,0.3,0.3,0.3,0.6v6h4.5c0.2,0,0.4,0.1,0.6,0.3c0.2,0.1,0.2,0.3,0.2,0.6v1.2c0,0.2-0.1,0.4-0.2,0.6c-0.2,0.1-0.3,0.2-0.6,0.2
	h-4.5v9.3c0,1.2,0.2,2.1,0.6,2.7c0.4,0.6,1.1,0.9,2,0.9h2.2c0.2,0,0.4,0.1,0.6,0.3c0.2,0.1,0.2,0.3,0.2,0.6v1.3
	c0,0.2-0.1,0.4-0.2,0.6c-0.2,0.1-0.3,0.2-0.6,0.2H1122.3z"/>
<path class="st7" d="M1129.6,866.8c-0.2,0-0.4-0.1-0.6-0.2c-0.2-0.2-0.2-0.4-0.2-0.6V864c0-0.2,0.1-0.4,0.2-0.6
	c0.2-0.2,0.4-0.3,0.6-0.3h2.3c0.2,0,0.4,0.1,0.6,0.3c0.2,0.2,0.2,0.4,0.2,0.6v1.9c0,0.2-0.1,0.4-0.2,0.6c-0.2,0.1-0.4,0.2-0.6,0.2
	H1129.6z M1129.9,889c-0.2,0-0.5-0.1-0.6-0.2c-0.1-0.2-0.2-0.4-0.2-0.6v-17.1c0-0.2,0.1-0.4,0.2-0.6c0.2-0.2,0.4-0.3,0.6-0.3h1.7
	c0.2,0,0.4,0.1,0.6,0.3c0.2,0.1,0.2,0.3,0.2,0.6v17.1c0,0.2-0.1,0.4-0.2,0.6c-0.1,0.1-0.3,0.2-0.6,0.2H1129.9z"/>
<path class="st7" d="M1145.5,889.4c-2.6,0-4.7-0.7-6.2-2.2c-1.4-1.5-2.2-3.5-2.3-5.9l0-1.5l0-1.5c0.1-2.4,0.9-4.4,2.3-5.9
	c1.5-1.5,3.5-2.3,6.1-2.3c2.6,0,4.7,0.8,6.1,2.3c1.5,1.5,2.2,3.5,2.3,5.9c0,0.3,0,0.8,0,1.5s0,1.3,0,1.5c-0.1,2.5-0.9,4.5-2.3,5.9
	C1150.2,888.6,1148.1,889.4,1145.5,889.4z M1145.5,886.6c1.5,0,2.7-0.5,3.6-1.4c0.9-1,1.4-2.3,1.4-4.1c0-0.2,0-0.7,0-1.4
	s0-1.1,0-1.4c-0.1-1.8-0.6-3.2-1.4-4.1c-0.9-1-2.1-1.4-3.6-1.4c-1.5,0-2.7,0.5-3.6,1.4c-0.9,1-1.4,2.3-1.4,4.1l0,1.4l0,1.4
	c0.1,1.8,0.5,3.2,1.4,4.1C1142.8,886.1,1144,886.6,1145.5,886.6z"/>
<path class="st7" d="M1159.3,889c-0.2,0-0.4-0.1-0.6-0.2c-0.1-0.2-0.2-0.4-0.2-0.6v-17.1c0-0.2,0.1-0.4,0.2-0.6
	c0.2-0.2,0.4-0.3,0.6-0.3h1.7c0.2,0,0.4,0.1,0.6,0.3c0.2,0.1,0.2,0.3,0.2,0.6v1.6c0.7-0.9,1.5-1.6,2.5-2.1c1-0.5,2.1-0.7,3.6-0.7
	c2.3,0,4.1,0.7,5.4,2.2c1.3,1.5,2,3.4,2,5.9v10.2c0,0.2-0.1,0.4-0.2,0.6c-0.2,0.1-0.3,0.2-0.6,0.2h-1.8c-0.2,0-0.4-0.1-0.6-0.2
	c-0.2-0.2-0.2-0.4-0.2-0.6v-10c0-1.7-0.4-3-1.3-4c-0.8-0.9-2-1.4-3.6-1.4c-1.5,0-2.7,0.5-3.6,1.4c-0.9,0.9-1.3,2.2-1.3,3.9v10
	c0,0.2-0.1,0.4-0.3,0.6c-0.1,0.1-0.3,0.2-0.6,0.2H1159.3z"/>
<path class="st7" d="M1004.8,933c-0.6,0-1.1-0.3-1.3-0.9l-6.7-16.7l-0.1-0.4c0-0.2,0.1-0.4,0.2-0.5c0.1-0.1,0.3-0.2,0.5-0.2h1.7
	c0.4,0,0.7,0.2,0.9,0.6l5.5,14.2l5.5-14.2c0.2-0.4,0.5-0.6,0.9-0.6h1.8c0.2,0,0.4,0.1,0.5,0.2c0.2,0.1,0.2,0.3,0.2,0.5l-0.1,0.4
	l-6.7,16.7c-0.3,0.6-0.7,0.9-1.3,0.9H1004.8z"/>
<path class="st7" d="M1025.1,933.4c-2.5,0-4.4-0.8-5.9-2.3c-1.5-1.5-2.3-3.6-2.4-6.3l0-1.2l0-1.2c0.2-2.6,1-4.7,2.5-6.2
	c1.5-1.5,3.4-2.3,5.9-2.3c2.7,0,4.7,0.9,6.2,2.6c1.5,1.7,2.2,4,2.2,6.8v0.6c0,0.2-0.1,0.4-0.2,0.6c-0.1,0.1-0.3,0.2-0.6,0.2h-12.5
	v0.3c0.1,1.6,0.5,2.9,1.4,4c0.9,1.1,2.1,1.6,3.5,1.6c1.1,0,2-0.2,2.7-0.6c0.7-0.5,1.2-0.9,1.6-1.4c0.2-0.3,0.4-0.5,0.5-0.5
	c0.1-0.1,0.3-0.1,0.6-0.1h1.8c0.2,0,0.4,0.1,0.5,0.2c0.2,0.1,0.2,0.3,0.2,0.5c0,0.5-0.3,1.2-1,1.9c-0.7,0.7-1.6,1.4-2.8,1.9
	C1028,933.1,1026.6,933.4,1025.1,933.4z M1030,922.3v-0.1c0-1.7-0.4-3-1.4-4c-0.9-1.1-2.1-1.6-3.6-1.6c-1.5,0-2.7,0.5-3.6,1.6
	c-0.9,1-1.3,2.4-1.3,4v0.1H1030z"/>
<path class="st7" d="M1038.6,933c-0.2,0-0.5-0.1-0.6-0.2c-0.1-0.2-0.2-0.4-0.2-0.6v-17c0-0.2,0.1-0.4,0.2-0.6
	c0.2-0.2,0.4-0.3,0.6-0.3h1.6c0.2,0,0.5,0.1,0.6,0.3c0.2,0.2,0.3,0.4,0.3,0.6v1.6c1-1.6,2.7-2.4,5-2.4h1.4c0.2,0,0.4,0.1,0.6,0.3
	c0.2,0.1,0.2,0.3,0.2,0.6v1.5c0,0.2-0.1,0.4-0.2,0.6c-0.2,0.1-0.3,0.2-0.6,0.2h-2.2c-1.3,0-2.3,0.4-3.1,1.2
	c-0.7,0.7-1.1,1.8-1.1,3.1v10.6c0,0.2-0.1,0.4-0.2,0.6c-0.2,0.1-0.4,0.2-0.6,0.2H1038.6z"/>
<path class="st7" d="M1057.9,933.4c-1.7,0-3.1-0.3-4.2-0.8c-1.1-0.6-2-1.2-2.6-1.9c-0.5-0.7-0.8-1.3-0.8-1.7c0-0.2,0.1-0.4,0.2-0.5
	c0.2-0.1,0.4-0.2,0.6-0.2h1.6c0.2,0,0.5,0.1,0.7,0.4c0.6,0.7,1.2,1.2,1.9,1.6c0.7,0.4,1.6,0.6,2.7,0.6c1.2,0,2.3-0.2,3-0.7
	c0.8-0.5,1.2-1.2,1.2-2.1c0-0.6-0.2-1-0.5-1.4c-0.3-0.4-0.9-0.7-1.7-1c-0.8-0.3-1.9-0.6-3.4-0.9c-2.1-0.5-3.6-1.1-4.5-2
	c-0.9-0.9-1.3-2-1.3-3.3c0-0.9,0.3-1.8,0.8-2.6c0.5-0.8,1.3-1.5,2.4-2c1.1-0.5,2.3-0.8,3.8-0.8c1.5,0,2.9,0.3,3.9,0.8
	c1.1,0.5,1.9,1.1,2.4,1.8c0.5,0.7,0.8,1.2,0.8,1.7c0,0.2-0.1,0.4-0.2,0.5c-0.2,0.1-0.3,0.2-0.5,0.2h-1.5c-0.3,0-0.5-0.1-0.7-0.4
	c-0.4-0.5-0.7-0.8-1-1c-0.3-0.3-0.7-0.5-1.2-0.7c-0.5-0.2-1.2-0.3-2-0.3c-1.1,0-2,0.3-2.7,0.8c-0.6,0.5-0.9,1.1-0.9,1.9
	c0,0.5,0.1,0.9,0.4,1.3c0.3,0.3,0.8,0.6,1.5,0.9c0.8,0.3,1.9,0.6,3.3,0.9c2.3,0.5,3.9,1.2,4.8,2.1c1,0.9,1.4,2,1.4,3.4
	c0,1-0.3,2-0.9,2.8c-0.6,0.8-1.5,1.5-2.7,2C1060.9,933.1,1059.5,933.4,1057.9,933.4z"/>
<path class="st7" d="M1070.3,910.8c-0.2,0-0.5-0.1-0.6-0.2c-0.1-0.2-0.2-0.4-0.2-0.6V908c0-0.2,0.1-0.4,0.2-0.6
	c0.2-0.2,0.4-0.3,0.6-0.3h2.3c0.2,0,0.4,0.1,0.6,0.3c0.2,0.2,0.2,0.4,0.2,0.6v1.9c0,0.2-0.1,0.4-0.2,0.6c-0.2,0.1-0.4,0.2-0.6,0.2
	H1070.3z M1070.6,933c-0.2,0-0.4-0.1-0.6-0.2c-0.1-0.2-0.2-0.4-0.2-0.6v-17.1c0-0.2,0.1-0.4,0.2-0.6c0.2-0.2,0.4-0.3,0.6-0.3h1.7
	c0.2,0,0.4,0.1,0.6,0.3c0.2,0.1,0.2,0.3,0.2,0.6v17.1c0,0.2-0.1,0.4-0.2,0.6c-0.2,0.1-0.3,0.2-0.6,0.2H1070.6z"/>
<path class="st7" d="M1086.1,933.4c-2.6,0-4.7-0.7-6.2-2.2c-1.4-1.5-2.2-3.5-2.3-5.9l0-1.5l0-1.5c0.1-2.4,0.9-4.4,2.3-5.9
	c1.5-1.5,3.5-2.3,6.1-2.3c2.6,0,4.7,0.8,6.1,2.3c1.5,1.5,2.2,3.5,2.3,5.9c0,0.3,0,0.8,0,1.5s0,1.3,0,1.5c-0.1,2.5-0.9,4.5-2.3,5.9
	C1090.8,932.6,1088.8,933.4,1086.1,933.4z M1086.1,930.6c1.5,0,2.7-0.5,3.6-1.4c0.9-1,1.4-2.3,1.4-4.1c0-0.2,0-0.7,0-1.4
	s0-1.1,0-1.4c-0.1-1.8-0.6-3.2-1.4-4.1c-0.9-1-2.1-1.4-3.6-1.4s-2.7,0.5-3.6,1.4c-0.9,1-1.4,2.3-1.4,4.1l0,1.4l0,1.4
	c0,1.8,0.5,3.2,1.4,4.1C1083.4,930.1,1084.6,930.6,1086.1,930.6z"/>
<path class="st7" d="M1100,933c-0.2,0-0.4-0.1-0.6-0.2c-0.1-0.2-0.2-0.4-0.2-0.6v-17.1c0-0.2,0.1-0.4,0.2-0.6
	c0.2-0.2,0.4-0.3,0.6-0.3h1.7c0.2,0,0.4,0.1,0.6,0.3c0.2,0.1,0.2,0.3,0.2,0.6v1.6c0.7-0.9,1.5-1.6,2.4-2.1c1-0.5,2.2-0.7,3.6-0.7
	c2.3,0,4.1,0.7,5.4,2.2c1.3,1.5,1.9,3.4,1.9,5.9v10.2c0,0.2-0.1,0.4-0.2,0.6c-0.1,0.1-0.3,0.2-0.6,0.2h-1.8c-0.2,0-0.4-0.1-0.6-0.2
	c-0.1-0.2-0.2-0.4-0.2-0.6v-10c0-1.7-0.4-3-1.3-4c-0.8-0.9-2-1.4-3.6-1.4c-1.5,0-2.7,0.5-3.6,1.4c-0.9,0.9-1.3,2.2-1.3,3.9v10
	c0,0.2-0.1,0.4-0.2,0.6c-0.1,0.1-0.3,0.2-0.6,0.2H1100z"/>
<path class="st7" d="M1121.5,910.8c-0.2,0-0.5-0.1-0.6-0.2c-0.2-0.2-0.2-0.4-0.2-0.6V908c0-0.2,0.1-0.4,0.2-0.6
	c0.2-0.2,0.4-0.3,0.6-0.3h2.3c0.2,0,0.4,0.1,0.6,0.3c0.2,0.2,0.2,0.4,0.2,0.6v1.9c0,0.2-0.1,0.4-0.2,0.6c-0.2,0.1-0.4,0.2-0.6,0.2
	H1121.5z M1121.8,933c-0.2,0-0.5-0.1-0.6-0.2c-0.1-0.2-0.2-0.4-0.2-0.6v-17.1c0-0.2,0.1-0.4,0.2-0.6c0.2-0.2,0.4-0.3,0.6-0.3h1.7
	c0.2,0,0.4,0.1,0.6,0.3c0.2,0.1,0.2,0.3,0.2,0.6v17.1c0,0.2-0.1,0.4-0.2,0.6c-0.1,0.1-0.3,0.2-0.6,0.2H1121.8z"/>
<path class="st7" d="M1130.5,933c-0.2,0-0.5-0.1-0.6-0.2c-0.1-0.2-0.2-0.4-0.2-0.6v-17.1c0-0.2,0.1-0.4,0.2-0.6
	c0.2-0.2,0.4-0.3,0.6-0.3h1.7c0.2,0,0.4,0.1,0.6,0.3c0.2,0.1,0.3,0.3,0.3,0.6v1.6c0.7-0.9,1.5-1.6,2.4-2.1c1-0.5,2.2-0.7,3.6-0.7
	c2.3,0,4.1,0.7,5.4,2.2c1.3,1.5,1.9,3.4,1.9,5.9v10.2c0,0.2-0.1,0.4-0.3,0.6c-0.1,0.1-0.3,0.2-0.6,0.2h-1.8c-0.2,0-0.4-0.1-0.6-0.2
	c-0.2-0.2-0.2-0.4-0.2-0.6v-10c0-1.7-0.4-3-1.3-4c-0.8-0.9-2-1.4-3.6-1.4c-1.5,0-2.7,0.5-3.6,1.4c-0.9,0.9-1.3,2.2-1.3,3.9v10
	c0,0.2-0.1,0.4-0.2,0.6c-0.1,0.1-0.3,0.2-0.6,0.2H1130.5z"/>
<path class="st7" d="M1159.2,940.9c-2,0-3.5-0.3-4.8-1c-1.2-0.6-2.1-1.4-2.6-2.2c-0.5-0.8-0.8-1.6-0.8-2.3c0-0.2,0-0.4,0.2-0.6
	c0.2-0.2,0.4-0.3,0.6-0.3h1.7c0.2,0,0.4,0,0.5,0.1c0.1,0.1,0.3,0.3,0.4,0.6c0.3,0.8,0.8,1.4,1.4,2c0.7,0.6,1.7,0.9,3.1,0.9
	c1.8,0,3.1-0.4,3.9-1.2c0.8-0.7,1.3-2.1,1.3-4v-2.4c-0.6,0.8-1.4,1.4-2.4,1.9c-1,0.5-2.1,0.7-3.4,0.7c-2.6,0-4.5-0.8-5.7-2.4
	c-1.2-1.6-1.9-3.7-2-6.2l0-1l0-1c0.1-2.5,0.8-4.5,2-6.2c1.3-1.7,3.2-2.5,5.7-2.5s4.5,0.9,5.9,2.8v-1.5c0-0.2,0.1-0.4,0.2-0.6
	c0.2-0.2,0.4-0.3,0.6-0.3h1.7c0.2,0,0.4,0.1,0.6,0.3c0.2,0.2,0.2,0.4,0.2,0.6v17.5C1167.7,938.1,1164.8,940.9,1159.2,940.9z
	 M1159.1,930.3c1.6,0,2.9-0.5,3.7-1.6c0.8-1.1,1.3-2.4,1.4-3.9c0-0.2,0-0.6,0-1.3c0-0.6,0-1,0-1.2c-0.1-1.5-0.5-2.8-1.4-3.9
	c-0.8-1.1-2-1.6-3.7-1.6c-1.7,0-2.9,0.5-3.7,1.6c-0.8,1.1-1.2,2.4-1.3,4.2l0,0.9l0,1c0.1,1.7,0.5,3.1,1.3,4.2
	C1156.2,929.7,1157.4,930.3,1159.1,930.3z"/>
<circle class="st8" cx="201.8" cy="318.7" r="11.1"/>
<line class="st8" x1="195.4" y1="310.2" x2="208.5" y2="325.8"/>
</svg>
